<mxfile host="app.diagrams.net" modified="2023-04-12T10:10:40.811Z" agent="Mozilla/5.0 (X11; Linux x86_64) AppleWebKit/537.36 (KHTML, like Gecko) Chrome/107.0.0.0 Safari/537.36" etag="cvcvHOfvLqlddZ30n14y" version="21.1.5" type="device">
  <diagram name="PÃ¡gina-1" id="rDVPxd_81cGRoME4qDwU">
    <mxGraphModel dx="2620" dy="2053" grid="1" gridSize="10" guides="1" tooltips="1" connect="1" arrows="1" fold="1" page="1" pageScale="1" pageWidth="827" pageHeight="1169" math="0" shadow="0">
      <root>
        <mxCell id="0" />
        <mxCell id="1" parent="0" />
        <mxCell id="rrwpw1Hd3HMWVf84mYSk-5" value="" style="shape=image;verticalLabelPosition=bottom;labelBackgroundColor=default;verticalAlign=top;aspect=fixed;imageAspect=0;image=data:image/png,iVBORw0KGgoAAAANSUhEUgAAANgAAABOCAYAAABCH9izAAAABHNCSVQICAgIfAhkiAAAEGNJREFUeF7tXQdYFNcW/kVFwIKKikEFRbEAYsOG9UXFlhiwG0vsJWqsUaMxRhOTL+YlpmiUJCqCLbEbe0mCCmrEXiPqQ1QilgAKgqLmzblkl2XZ3dllZ3fG4Z7vm0/mtnPvf+f33jn3zNlC/wgCM+VRRhYOxibg4Il4nL6UiKys52bW5MU4Ai8nAo5FC6OBrwfaBlZFq0aecHEqatFACplDsLspGViz4zwOxMShTg13BDXwQuN6nnC2UJlFPeOFOQIKQCAjMwvHzyQg5tQNXLqWhI4tfNC/qz/KlHI2q3eiBEtKzsCI2VvQtlkNhAb7wbWkeQ2bpZ0X4gi8RAikPsrA5r0XEHXsKlZ8HIKyruJcECXYV6uP44WwiRzcI/AlgoJ3lSNgOwQiNsXCsTDwdt/GokocTJV49DgLvx6JQ0gHP1PFeB5HoEAh0K29H/ZEx+GxYJMQE5MEO3gyAbWru6O0mftNMWU8nyOgBgSID76CLSL6dILocEwTLDYezRt6iTbCC3AEChoCzQReRB2PFx22SYKRKb5JXU/RRngBjkBBQyDQzxOxFxJFh22SYHTO5exsmd1fVCMvwBFQAQLEi6dmnAObJJgKcOBD4AjIigAnmKzwc+VqR4ATTO0zzMcnKwKcYLLCz5WrHQFOMLXPMB+frAhwgskKP1eudgQ4wdQ+w3x8siLACSYr/Fy52hHgBFP7DPPxyYoAJ5is8HPlakeAE0ztM8zHJysCnGCyws+Vqx0BTjC1zzAfn6wIFLFWe+LtWyhXvgIcHR1Fm7qZcAMUxMq1dGm4upYWLW/PAnf+SsTTp0/hUrw4ypUrb0/VorpS0x7nKeNawiVPGk9QHgJWE6xLu1YIX7Me9RuKx+xoWq82Aps2R/+Bg9Gn/yCGxu8H9mHPrh348/JFtA/uhLffmczSs7Ky8MVn81n+3aQ78K7hg6kz3kezoJYs//nz5wjt0p79rSudX+uGMeMn6SezeyLQ3PdnYPeObQLJy2DK9Jno2i2U5X3+yUeIPhwF/7r18GPEWoP17ZWY+TQLiQ9SQMRKy8w0qraEkxOIaB5upeHkyD8rMgqUjBlWE4wexho+tcwewtJlEfCoVFlb/szpkyhZqhRb2a7FxWnTnwgP1q2bCZg9dz4qVfHEjm2b0euNzjhy8gIqC/cODg6YPmuOtjwRrn/vEIwa+47Rvnw8ZxZi/ziKTTv24cqflzBsYF/s2F8NdQPq44tvl2Dpoq+E/GNG69s6g4iVcPcBkpJTzVJF5KPr9v2/4V7GFZ4V3DjRzELOfoWsJthv+/fiFY9KKFGyJD79aA5eD+mO1StXgLZctJr07jfA5GgmTJnO8qdNGo/nz55py1J7i8KWa+/HTpiCFT+GMYIQwQoVKoQWrdtq8/fu3gEXZxcEd35Nm0YEJeJ5Va3G/l0VvgwrVv/M7unq+noIIlcsw4KF32rryPXHDYFYCUn3862eSEmXp3s5eAlE46IMBBzoQTV2mdPF1RErcO9uEiu6ctn3mDBmBJo0a47Qnr0x691JOPjbAXOaES3z4MF93BYIU6Om4dVyVfhy9H5zIIoWzdkqLVzwKT6d9wFrm8iWmpqC+o1ytrINhL/Pnz0tqtuWBZ69eI4rt+5YRS7d/hFJqT1ql4v8CFi9gukPYeLU6cIq1oMlH42JRpRAsNb/aadfzKL7Z8LKNnrIQHTv3Y+9I+nL/fv3sHfXdvx+9GSurJFvj8ez59mrIpGLpFQpV22Z0sJ7WGpKdrp+m/a6v3gjkb1rSSm0kmUK77AB1apI2SxvKx8ISG6mr+5TU9sNNzc3qx9g2tqNHjqQvXMtXBRmcIg/rY5AQP2GqF0nd/zGWnV84ecfwOo4O2VHYc14nPMwpz9Oh5OzeHRWg0olSKSVRmpyabpF7VL7XORFQHKC0XZTVyz4bYk8SLx48QLjRg4BbQ8j1m00ehRA29QBg4fmqa+b4OlVlW0fr13LMaSQUaWGzn8IJhuQOPPBw0dmGzPyq5pWMtLDRT4EJCeYVEMhco0fPQy3b93EmvVbUUwwSRsSMnok3IhHaI8+ebL3792FXdu3snSq3y64M5aHLWH3RNrNG35Ct9Ds7WyeyjZMYO9dN7PfW22ohjVNevj7mK1RNt5+EVMrzKtDw43XlChn/tzZ+FI479JI+LIwkGVx8PBRWLdqJUuuXK6ENn/+gi8xetxE7T0ZN7qF9mSmfn3Z9cs2pKenCdbMN1jWZ19+gz4hXRHo74Pkv/9Gz779tedg+nVtef/s2Qt4lC9jSxW52iZ9RSiYOhe7I2Dyxx+IYBsWvyVZpzzKOGOJcA5Gh9JkJpdD6D+UG/H/Y4R0cyun7cKpE8exdlUE/hZWNrkPmuXAxV461eTN03PsSvy6fLBJ6CS3IprSNmTEGEQfOsgMC3IRjN4Rq1bzztNN8hghebV9cJ48WyTcuZeCfYfO5mq6uEsxBDWqhYrlc9zIIjcdNKq+Xm1PBPhWZflnL8bjzOUE9vfA7q2N1rFnxtrIcHTo3DWX65m+N48xTx7qp9TePKY8eUifLbx57Eow2t4pVSZNm2nXrt0VCBa5MSqPzlUbD+Lz9weiuldFlmeojLZSjzZaghG5NGWVQjDa/tfx88/j26nrzWPMk4fGKLU3jylPHtJnC28exRo5tA9RAfgjuE090EWS9jgTkZsOaUc9UCARXZqVijI0abSC2Vrof/1FX/0XQwf0wUzBcYAMShqZPWMq0h7lWCnJnW3fnp0sm1avhw9T8d03C1m9ozGHDXaV3rdnfjAPPjVr58nXePOQxw7tOsibx73iK8ybh0TjzUP5dGU+yczlzUPOBfQ6QKLx5CFdtHvq0LGL1pMnj2IJE+y6gknYb1U1FdwygBHozr1UttUjkmlEuxoJW0XKI7HnCjWkf2/8I1h0x06YjOPHjqBdi8aIOXke5Su4I2zx1xg/aSpzkyOh7X/xEiXYw+tfrz6cijmhcdNmzFGb3NusFUu9eciTh4xcS5dHGvXk2bJxvVXd0j+W0m+ME0wfERnu9x4+C7o0BKpYPsfbRIbuaFXG/XlZ8MTZj4vXbzMPGFolTsQeR7jgE/ruzGwXNGP9Iwdqx2LFBII1N+tLC2PtaNLz482jBE8eTjCxmbVD/t6oM1otJVycMCBUGUYKOpT38qqWy72sXv0GuBp3xQ6o5KjIrzcPefJoRNeTh775I7GHJw9/B7Pro2JYGb1/EbFIvKtWzGVFNFzDPqn0UWxKSnIuZcnJyexbOpKiwke2ZOnTSFpabq8Rse2TOaOQyptHLk8eTjBzZtnGZegdLLRzU6aFtokxsZet0jh1fiQ019LIvfluq57g30mrx/atm1gb9NXEpvXr0KFTZ3bv7V0DMYezjxGS7vyFPTu359JVtqwb6Iv3/Iq13jxK8OThBMvv7EtcL7RTE+0qtnRV9plcflUQSTXX1YT8u2TRVuqH8NV4b+pEtG3WEEEN/QWfz2HCl+fZBJv14UeYNnEcy+vXoxuat2iVq8sThC8rZkyZgDrVPLBG8Bc1JGTKd3NxwLKwxSAvHvp73uz3WFGyApI3T/ShKObNQ3l00YexumLMm4c8ebZu2qAtSp48fxyNYZ48TerWwmtvdLfak4ccF0xdVntykK9gBfeKub7DMgSkJWlKPu2ncUgRv0P3oLlDqwC2LaSV61rCXQaVJk2Dm9hBsm6+Ltbubq7aIwBL5kC3LD1A9LBXECyH+j6hmRkZ+Ev4uJZM3/TFg5jI7c1jzJOH+m2pN49dPDnatWyCzTv3oY6vvxi2Zufrn/ZTxfye+Esdu4P6IsWJPxFK39weFFgbdBkSMuPrnoXplxHL1y9vyT29S1Xx9DJYhbxyqnlXN5hnKFFubx5jnjzUV1t48yjWimhu7A4CxtSJf6XKVSSN3UH6rD3xp9gbSSkPDT1/NklzL11KMbE6Cpo3j6QEe/LkCb754jMEtWzNzkxoOV69cjkORf0GF5fiGDR0OBo0agyKn0EeAN179dU+UAf27RYcbR+gl+DhbkiMxe6gsmLxO5QWu6NIEQck3ku2y2ckRRwKo1I5ZYXIMzS/ak2zOiaHBhj6JL9Xt06Ce8xDBLVqw5InjxstWKA2Y9CQ4ULYgFfRv1cIzgkxMGgvP2vaZNDhoUbmzpohkFCaWH+mTvyVELuDHvqaVdzt8kyRHtLHRR4EJFnByCgxYtCbeGvYCIwYM56NhHzANvy8BlduJMH5X+LQizJ98LhwcRgL3UbxCcmSQy44FFejY5fXrUbB1Im/kmJ3uJUqyUKtmRuiLT/AUPukh4t8CEhCsFGDBzDzrYZcNBwKJEph2Nq3agrBkMm2i+lpafD1q8tGO2zkGCEK1Q+MYOFCNCqqX6SIdd0RO/E3FbtDMwX2PPGvWbkiC05ji7gcFJCU2uciLwLWPdH/9v3zrxfjw1nT0ahxE4T06M1SKWJTWeGDxugT5wyOkN6/5sychrNnTuGXLRsRHWu4nMHKBhJ1T/zXbfzFYPwOit0xetwEA7VzknRP/MmfjsSWsTt8vTxwPfGepCsZrVzeHsoK/20SdBVnih9cmDF4v7oB2CxEyyXC0CpBQl4AFK8+YsUP2hbI2qf5fIDMuxTH8K2+PRDUorVRM7AZ6mHOib9SY3ew9zFhpaGAoVIItUPt8fcuKdC0vg0HU6fQljTvU6s2tu7+FQs+mSdE4F3KDiRXCpGgflyyGE2EmPR0XtbQT3CtEU7lNTJ0xGj2fdHg4SNFVVl74m/stJ8U2+PEX2yAFI23cS1v9l6WH6F6VJ9H9c0PerarY7UnhzldI+PC4/R0FmJbN/LukehDGDVkAE5duo7ChXMsXXKf9tOYpDzxNwcj3TL8xx8sRUye8nbx5DBnaOzngHR+Eogsfcu//44ZOchfTZdc1J7cp/3UB3uf+OviSL+U4v1KzjuUISMI//kic548+ctIYuSwdBj0zpQifPYwWfj5IN3DZk07Sj7tpz7aO34HJ5OlT5hyystCMDJ+TNP56SHlwMF7whGQFgFJrIjSdom3xhFQDwKcYOqZSz4SBSLACabASeFdUg8CnGDqmUs+EgUiwAmmwEnhXVIPApxg6plLPhIFIsAJpsBJ4V1SDwKcYOqZSz4SBSLACabASeFdUg8CnGDqmUs+EgUiwAmmwEnhXVIPApxg6plLPhIFIsAJpsBJ4V1SDwImCeZYtDAyMnJ+PUM9w+Yj4QhYh8DTJ1kgfoiJSYI18PXAH+cSxNrg+RyBAofAifM3EejnITpukwRr27gqjpy8IdoIL8ARKGgIxJyMRxuBH2JikmCtGnji8vUkpDzMEGuH53MECgwCaWkZOB+XhBb1xX932iTBXJyLIjjIB1v2XSgw4PGBcgTEENi2/wI6tvAB8UNMTBKMKr/ZxR9Rx64iYlMsUh/xlUwMUJ6vXgTS0zOwZkss9sVcRd/O5v1cl8mwbRqokoUt4tqd57H7cBz8fNzRrL4XAgM84ewkzmD1ws1HVhAQIGvhiXM3EXMqHueuJKFTSx/0ExadMqWczRq+WQTTtPQ4MwvRJxMQFRuP2AuJeJr13CwlvBBH4GVFgEzxZC1sE1gVLRp6wsXCRcUigr2sIPF+cwTkQuD/KD1MDWRqo2oAAAAASUVORK5CYII=;" parent="1" vertex="1">
          <mxGeometry x="414" y="170.00000000000003" width="216" height="78" as="geometry" />
        </mxCell>
        <mxCell id="rrwpw1Hd3HMWVf84mYSk-6" value="" style="shape=image;verticalLabelPosition=bottom;labelBackgroundColor=default;verticalAlign=top;aspect=fixed;imageAspect=0;image=data:image/png,iVBORw0KGgoAAAANSUhEUgAAAJcAAACLCAYAAABsiwuZAAAABHNCSVQICAgIfAhkiAAAFo9JREFUeF7tXQd4FEUbfukkQuj4ixhq6CVAqKEjJdQAISY0qYKC0osCgoIK+CsqIIICAeklEDqCQoAEhRCQgJRQgwKREloSivr/803cY++yd7t32Uv2kvl48pCdPu+8mZndfefbbP9jBmECAScgkFOpzIfJz3AgKg4Hjl3BiTPX8ezZ30rJRFgmRiB3rhyoVaUEmvuURpM6nnDPm8vu3maTz1x/3kvGqu2n8GNkLCqXfxGNapVC3ZqecHOgYLtbIjIYCoHkx89w9Nc4RB6/ijMX49HW1wu9OlRDIQ83ze00kSs+IRmDp2xG8wbl0bVNVRTIr70QzbWJhC6JwP2Hydj0w2mE/3IBS2f4o3ABbdwwkeuLlUfxD9t99evu45IAiEY7H4HloVHInQN4K6iupsqyU6qHSc/w0+FY+LeuqimTSJQ1Eej8alXsjohFEtuTazFOrgPRcahU7kUUtGM91VK4SJO5ECB+VGF78YgTcZo6lkKuqCtoWLuUpgwiUdZGoAHjSfjRK5pA4OSixw31qntqyiASZW0EfKp6Iur0dU0gcHLRcyw3N/ufY2iqQSTKVAgQT55qfO7JySVMIOAMBAS5nIGqKJMjIMgliOA0BAS5nAatKFiQS3DAaQgIcjkNWlGwIJfggNMQEORyGrSiYEEuwQGnISDI5TRoRcGKMmcBi0BADYG7yepHL8TMpYaiiHcYAUEuh6ETGdUQEORSQ0jEO4yAIJfD0LlGxtmL9uF2QmKGNFaQK0NgT79Kj7DjYaNmhGH7vt/wD53ASUcTd4vpCDZVRQfcVy5bgoPh++Du/gL6DhiEWnVSTtN8Mn0qOvl3Y/FLcfPGdfh17IzA4N6mFu7avgU7t2/F3Tt3UN6rAoaNGI2ixYqr9oDOIC7dcBThRy5haHBDlPUsoppHjwRi5tIDRTvKGD18KLaFbULf/oPQtEVL9Orhj5iTJ3gJyxYvwog3B6Neg4boGhCISeNG4cC+H02lx54/h/aduuCd0eN4mL/fq/j7b+2n4S/F3cHET7dzohHhnG1i5nI2wrLyr165jA3rVuH81Xi4ubvzmN+vxWHJwgWYM38hvx45dgKbvbrz33+OjEA4I1fTFq349dujxjFJ+jP8GX+Tk3P9mpW4wAhXsXIVHq/FaGmkJfKXE1cxMLAe6tZw7OzErI8+UK1OkEsVIv0SnDv7G/7+6y+82qQ+/kf/2BKZ+OgRqlStbqqkHFvuJCtSpAhuXH9+GOLjD9/H6u9DULa8F9zd3PHo0UNONHvIpVdvZgty6QWlPuUULFgIhYsURcSxGKsFZsuWzSxOckJ07sxvfNmMPn0BL+TLx9NULVeSbdL/sVqWUkT27Nng16wygjp6p8kHyIRJU5WKNwsTM5cqRPolqOldG7lz58bypd+yZW0wL/jJ48e4efMGSpUuY7OipKREEPFy5kwZsrDQ9XzTb4/RRl6vDf14QS57oHd+2jx582LZmo0YNqgf5n3xGfLn9+AEmTxthiq5vGv7oH5DX/hUr4BixV9EyVc8NS+H5KWIZiqasWjmSi8TM1d6If1vPdVreOPAkRO4ffsWkhIT8VKJl5ErV8qZ0bNXbpi1ZszEyaZrmrWWrd7A9mB/8BnsPy+V0NTyeswF1oAe9VC00Aua0uuZSJBLTzTtKKto0WJgD6nsyJGSlMhoj41/o4U9yXVNK55z6QqnKEyOgCCX4IPTEBDkchq0omBBLsEBpyEgyOU0aEXBglyCA05DQJDLadCKggW5BAechoChH6Leu5fAO04vfNPbrsVd5aqFAgULokCBguldvc366JXR06dP4f7CC+APYw1qhp65Pp/1Mb76bLYu0JFUhV65aLX6NSth+JAB2LVtC8+y/8c9eHfsSHTr2AZff/W5WTGksZo5YxratfBF7SrlENC5HdNiHTKlIUFf57YtUv0smDtHsTlEnEnjR6NO1fJo6VsX27dsMkv36cfTEejfHhNHv6OYX0sg6epJX+9MM/TMpWfHP/pgCipXrWbXX/o3i5ejxMsleTN+PRGN/B4efDa7GBtr1jRSNpDob8oHH+Fl9kKZyNCjix8OR5/mL5izZ88OuUSFyNYr0B9DhimTY8bUSYg68jNCt+/B+XNnMLBPELbvLQN6L0n22dwF+GbeFyzNL3ZDRGLBneFnsGbbCaerUQ1FruSkJHzx2SycOX0KjRo3SaVVor/oRV9/heioo/zF7dDhI+BZqjQHeMrEsXwA8+XPz69pgHPnyYPWbdtzgd2DB/fZjDOHa847d+2Oewl37dKjjxgzgZc7ftTbXPAnN6pz3sIlpqBhI8Zg6XcLOUGIXPSi2bdpc1P8D7u2c7FfG7+OPIyISYQj2Q39vyJkMZauXMev6adDJ398v3QxZs+Za1avvRckc/5m9WHQ/+lhhloW+/XsgdhzZzlp7t69izUrlplh0L9XICIPHsDAN95E8eLF0YotGbf+jOdpFs7/EqR5kiyCpTvy82F+Wa2mN/LmyYu69RugVZu2fMDTqkc3VaTwy507t/EHI0z5ChUVYsHIswSBPfuY1BBzZn+CT5jKlIyIdv/+PXjXef6ZnFrs91P/6uwVC1QJlA5okH4+vYhFTTLMzHX+7BkcjjyIs5dv8I1qo8ZNcYidkJGMSBe+by9+u/QHPDwK8JngGJvBQtgMMe69lIGxhjEtJzSL1a3fEKSLItNDj65U319sVhvavw+6BQajWvWaqZLQvu+Hnduw/+doU9wbb72Nv/5OmQ2JWGTUR8nohub+vZTwVAWqBBw9GYfF647ofnaxiLv6vGQYcl26GIsyZcpxYkkmH5yLLL5UqTJmoNf0roULsedV4FWOdoYenZa0oQP68D3WnHkpBy4sa1+7cjlqMEVqpcrPv7Mk18C75U35IhhtESQsEtmMnNdN25fCLOvLyGvDkMuD3e5Lf7USIHQt7aHocYD0aEKKT0hIYI8KUh5T5GLyYbprk4wOL0hacwqTa9P10qPLB4607MPf6A9aEtds3MrlzEq2cvlSvuxbM9pDkniQ/pikDTzdQNA5RUeMTvdUq/AS38DTRj49D8aqz22O9MiBPN616oD+Wn/au5vn/uP3a9jNlg/JSH9OM8O2sFAeRHut0PVr0LqdH78uW7Y8Ig8d4L/HM0367h3P81JY4cJFcP2P33m8Hnp0XtC/RsR6e+hA3uZV68NAcmYlow1+3NUr6Nr9NbPovT/sxM5tYTyM8rZq48ePm5ERWTdtWMtvQhw1kjn3D6iLmeM66HYg9k7SP1D7MQy5aAmY9y37q2b7FTp6FdytExo3fa6ipPhvQ1byZ03NG9RGo9rV0LvfQLzKBoJs0rTpGD9yOI8L7t4ZDX2bmI3FCHYecOKYEahcpgR+OxVj0qPTc6SN69ao6tHpUQbtMxYvnI+QxQv57x9OeZfXQZtwuvmIOBiOkkXz8Tj6occFcqONfOeuAfyRhtx2bt2CsNANpqBZn3/FbkYi4VPNi32TqSI6dumGDp27muVx5IIOaBDBiGjp8fVf/jHPlgNCsGH+6460V/c8tLTRYL3iWcp00kVeCT1novji7JCC5QzxODkZN9jTa7p9p32PmtnSo5co5IYF7DkX3QConcxRq8eReOonHaIlIhZhx9HkdvzYUaxesZwd67+N75avdqR4vsFfsv4IHJFBBwxbpokvhtlzSQjRfqNM2XJWAaO9ExFPyWjTayuvZR5bevT+g99kM9EBvpHOCHJRP0uXKWvZZH5NbwvIWr7aRjFeSyAd2HCEWFrKltIYjlz2NN6ZaT+abf6Kx5l12Vv2qPHv2ZslQ9Krrx0Z0ixRaWZAQJArM4yiQfsgyGXQgckMzRLkygyjaNA+CHIZdGAyQ7MEuTLDKBq0D4JcBh2YzNAsQS4DjCK98yQhJBm9n5S/gDdA8xxugiCXw9Dpl7F9qybsfedJXmCrxvWYjOicboULP/S6QSkKskRA+KG3RCQTXpMsZxXTcpFygpa9Fq1ao9frA2z29MmTJ+z00yyuyiXlrfBDbxOurBtJeq9V7KBIQFBP9B80JJUw0hIZEkr2YEfUHjx4gEZNmvHotOr+hR96S5QzwfXlSxe54C8mNs4kn5GfBrLsIh3IHdy3J14fOBiD33zbFK2H7l/4obdE28Wv6ewhyWcsdVnWujWkX28uhJQTi9I6Q/dvrQ1q4cIPvRpC6RRPEmv6Xo9W+/TL+Zg2aQLq1K0H/+6BPJteun/hh17rKLhIuho1ayEv08bL/c/fvXuH6/qVrGr1GtjETluTWwA6zf1ar7666P6FH3oltF08jOTYdIL6jf69+anvPLnzcAcnW3Zb99XgVbESwnb9hO7MN0VSchL6DRwi/NC7OA+c1nz67N3Rk+f4Rw1IHy+XWJ84e9lUr9wXPe3TjrHPsUgm/NA7bXgyR8FaP05grbe2dP9KeZytk1eqUwoTr39soSPi0oSAIFea4BOZbSEgyGULHRGXJgQEudIEn8hsCwFBLlvoiLg0ISDIlSb4RGZbCAhy2UJHxKUJAUGuNMEnMttCINP6ilDzYa8Wbws0istoP/Wu4Is+085caj7s1eLVyGXpp57SW/NVr+anXqkuvXzRZ6SGPtPOXEoDpneY3E89lW3NV72an3qldunli5409DHnbogPqCuBLA+zpSFX82GvFv/J9KnMe58/81m/DAlMDvPNku/t1qxb81Wv5qee+uhMX/SSq/DwI5cwNLihbq4r1cbLpZZFWxpyNR/2avHLFi/CO0MGorZPXa5zJ7NVnxqwtuKV/NQ72xc9tUdo6G2MijUNOXnhs+XDXs3HvVTlsJFj0COol6kF1uqTu/a20VzFKGt+6p3pi17eEL009C7lh15xJCwCrWnIExMf2fRhr+bjXqqmUpXnvuEpzFp9jpLLlp/6zOiL3mU29LY05Go+7NXiJXLlzPkcDlv1aflDsEyj1U895dPbF728LXpp6C37p3TtMnsuW77j1XzYq8UrAWOrPqX0tsK0+Kl3ti96ap+ersLVfNBTvMvMXOSyu35DX/hUr4BizE04fRxKWkrkPuw9mZvwp+yksqUPe8nHvVK8EjFs1aeUnsLIV/3nsz4yRZO/erqD7McOwUofySI/9ZKRU9+hw0fyS/JFT8u7X8cu/Jp80b/m34H7ok9gH9kKYHtBR33Rk8/5oI7e8GtWmblQz2aq39m/GM4PvVqHbfmOV/NhrxavVLe1+tLDT70evujpIeqAHvVArsH1Mpf1Q68GgC0NuZoPe7V4pbqt1Zcefur18EWfkRp6l1kWlQY+I8My2k+9K/iid5kNfUYSSdTtGAKCXI7hJnJpQECQSwNIIoljCAhyOYabyKUBAUEuDSCJJMoIdJsYAvqRzPJakEsZNxGqAwKCXDqAKIpQRkCQSxmXLBdKby9ItaGnGfIh6vAhAxDHPsFL5ubmDnKG9taI0ShatBgPM8UzHRe5gmzSvAX69h+s+Nni6e+/h/PnzmL5mo2gJ96SURl0yILCCxQoaAonj37RUUfw5dffoky58qZwy1/kbShWrDj/amtwn36mzx8f2Pcj5s75LxMcnoWHRwH4deqCUWMn8i/PytvA+2nRD3rRHdCprWWVpuvR7GOezZk3aDJr/bOaWSGCXjPR2wvJ/mJEyym7VsiiKciQ5DoedRRdugWgZeu2SEpMZB8i/xL9ggOwbU8475Q8nuTBUyaOxZ1btzDuvffNOp2QcBeLFszl5Ik4sB+Nmz3/IDuVcfv2LYSuX8O8Kw/l+cjb39pV33OZ8yP2EtmWydtADnUnTxjD85PAMCx0Pch784effIo27Tpwn1yTxo/Gz5GHELrtB+TIkYMXba0fYyZOxoRJU03V9wr0x7h3p4DUHWQVKlXm/9vqnymzhl/kf3SUnMithxmSXNSx0uw71z71GvA+kuqhU5vmZv2V4inN5YsXsHvn9lTk2rBmJXwbN+O+RVcyN91yclFhAa/15Jp5iVyUvpN/d6wI+c6sLmsX8jZcvXyJae63cpXDxDEjMHnaDO4NkKzEyyWxbvMOeFcqw8ksV7ta64fc23OunLlQrXpN7otebmr9s9ZutXCayfQww+65bv0Zz0lzKuZXfPfNfDRvmbIMKHX6IktX5N8lUx6/ankIgnr35T5Ft4WF4iHz6S63+g0bgc4vxrJlk4zS9+zzulIVqmG3b9+Gm7s7Yn49jj/jbyKwZx+zPPk9PNCeHQDZu3un1bKs9cNaBrX+WcsnhROJaJ9F0mu56UUuw85ctBQSeE+ePOakID2W3BZ9PRc7tobxUzMk7AtZud4snkh5le1n/Dp0BvkkrcX0YJs2ruV7M7kFMRKsXrEM3QKDOMik49JqO7dtwbWrV3CV/WxctxpLVqxF/M0bfKYtWLBQqmJeLvkKDkcctKsfqQr5N0Br/6zlp3BaDqUlWp5Ovi+0lV8tzrDkmvLhxwgM7s3bf5LNBu2aN0JEVIxpk02fLGnUpCl+PR6NkO8Wmm1IKc+KkCWozZbD49FRvIzqzKMykdWSXDSr+bVszIR6iejZtx9Pa4/RANGJoZFMFFi2vBcO7v8JdIyNzioSqeV2l81u+fLlNwtT64e1tmjtn7X8rYNmWItKFb5nzeRUYVoCDEsueePJ1XYBNhNEHztqIle1GjXRrn0n/kODOXbkMGzcuptno9PKG9euQjmvCviYqUMlI5LSEkiekiWj2aR8hYr4nu2zTp67YgrX8otfx86mPwApPc18ufPkwb6f9vC2SUab5PD9P6K3xfd+bPXDWhvs6Z+1MhwljLXylMINTy7aE+zYuhl32J0dPZJQshFjJ/DNcuShA/wjTJSe9ji79kWYJR/UN5h/f2fqjJlm4Z/OmQdSnBZljxTSalTvm2xTP5ndHXp5VeQEpz5MfW88Hj18iD79B1mtwrIf1hLa2z9r5Tg73LAb+nfYrTxJiUu9WAAzp0/DgsXLUamy+dEvCZxChQpj0JBhmDljGg+i5a9bYHAq7OiwKz1qsHxYSASwvJNMldmOgEnsTtE/4DW08PXhmv+yJQrj6C+HsXnHXsW9mFS0ZT+sVWlv/6yV4+xwl9PQOxsQPcunfRd9+ZVmMzpUkllM0tBLL61DZ/bjXbO8Nvyy6MoDQht62uRnVRPksjLy9FS9e0flVzAbt+1GWj9WYKXaTBUsyGVlOIk8EcdirMSKYC0IGHZDr6XxIo2xERAzl7HHx7CtK+yWDfu/7G/WPstrMXMZdvhcv2GCXK4/hobtgSCXYYfG9RsmyOX6Y2jYHghyGXZoXL9hglyuP4aG7YEgl2GHxvUbJsjl+mNo2B4Ichl2aFy/YYJcrj+Ghu2BIJdhh8b1G8bJlTtXDiQnP3P93ogeOB2Bp0+ecb5oMU6uWlVK4EhMnJb0Ik0WR+DYqWvwqVpCEwqcXM3rlsbh6KuaMohEWRuByOgraMb4osU4uZrU8sTZS/G49yBZSx6RJosi8OhRMk7FxsPX21MTApxc7m650KaRFzbvOa0pk0iUNRHYsvc02vp6cb5oMdPdYs/21RD+ywUsD43C/YdiBtMCXlZJk5iYjFWbo7An8gKC/Kpp7jY/WialTmDL4uodp7DrUCyqer2IBt6l4FPDE/TtGGFZCwG6KzwWcw2Rx68g5nw82jX2QjCbgAp5PPcvpoaIGbmkxEmPnyEiOg7hUVcQdfo6nj7T1+OcWqNEfMYjQI8b6K6wmU9p+Nb2hLsDE4wiuTK+a6IFmQGB/wNZDUXjkzyIEAAAAABJRU5ErkJggg==;" parent="1" vertex="1">
          <mxGeometry x="110" y="99.99999999999999" width="151" height="139" as="geometry" />
        </mxCell>
        <mxCell id="rrwpw1Hd3HMWVf84mYSk-7" value="" style="shape=image;verticalLabelPosition=bottom;labelBackgroundColor=default;verticalAlign=top;aspect=fixed;imageAspect=0;image=data:image/png,iVBORw0KGgoAAAANSUhEUgAAAJgAAACzCAYAAAB1qdXUAAAABHNCSVQICAgIfAhkiAAAHEBJREFUeF7tXQdcFMf3fyZYwC6Wf4zBSmIXFYyK3ViwoiJijdgTk9hLLIkaY02isURJomDvXcROsGBDLNgRBfIzxljQKBJr/vOG7LK33t4Wbu9uj3l+/HA79b0335ud3fvOm2z/EgEmzAM6ecBFS7uP017AoZhkOHQ6Ec5e/gNevHilpRlWx8AeyJH9bahesTg08i4F9Wt6gFuu7GatyaZmBvvrYRqsDr8AB6LjoUK5YlC3eknwqeYBrhKNm+2RJTqFB9L+eQGnziVD9JkkuJxwB1r4ekL31pWhYD5XE/sUA+xOShr0n7gVGtUuBx2aV4L8eU0bcgqvMSM0eeDR4zTYsvciRJ24DqFT/aFQ/gxsKAbY3FWn4DVZrfXu5K1JCVbJ+T2wfHMM5Hgb4NMgH97Yt5SY/fjpCzh4LB78m1VSUpyVyaIeaPdRJdhzNB6ekjU6J4oAdig2GcqXLQYFRPfXLOpHZraEBxAfFcna/OjZZJUAi0mEOjVKSjTLkpkHMjxQm+Ak6lSiOoDhq4haVTyYH5kHZD3gXckDYi7+oQ5g+J7L1dX8ew7ZHlmBLOUBxMlzwXtRRWuwLOUhZqxVPcAAZlV3ssbEHmAAE3uEXVvVAwxgVnUna0zsAQYwsUfYtVU9wABmVXeyxsQeYAATe4RdW9UDDGBWdSdrTOwBBjCxR9i1VT3AAGZVd7LGxB5weZD2L3QcG0bTN8/oTf+Kr2kiE+YBDR5gM5gGp7Eqyj3AAKbcV6ykBg9YBWAvXryAV6/YziIN/nf6Kpq2rQm9gtsqs2fPoPK8JGBzEVwr8eBnA/tAcuJNWtTV1Q0qVakKnw4ZDoULF6FpfH62bODuXhjqN2oMvYL7g4vLm+p/89U4uHb1CixfuwmykfKcYBu/JyfR9Pz5C/Dpk8aPgdiYk/DjT79A6bLl+HTxB6EORYoUhSYfNYeuPXvDW2+lf0cPRR6A+XO+g/hrVyBfvvzg17Y9DBs5FnK5ZmyAkLLj9evXENC2hbhL/nr46HHQqGkzei1ln2RlO2e8OUIqFRIOIlZFZ6mVMzGnoH3HAGjSrAU8TU2FxQt+hN5dA2DnvijalDD/f78nw8SxI+H+3bswatxXJl2lpDyAnxfNpwA6eug3qNewMZ+Pbdy7dxc2b1gLwf0G0fQHD+7DutUrIIX8fZL6xKQt8YVQh5s3EmDCmBG0/ufDRsG2zRvg80F9Ycr02dC8ZWv48/YfMH70cDgefQQ279wLb79NdkIQkbJjxNgJMGb813yX3QP9YdSXE8Grek2a9n75CvSvJfv4yg72IdMAE9ujdaN4qTJlwbtWbdqcW+7c0LZ5I5OmuXwsczPhOuyJCH8DYBvXrgLfeg2hpk8tWLUizARg2FhAl26wZsUyHmBYvq1/J1gZ9qvYDLPXQh2Sbt6A3eE7YNBnQ2HsiCEwYdJU6N13IK1X/N0SsH7rLvAqX5oCunNQd749KTt8GzTiy2R3yQ6Vq1QDYRpmytnHN+BAHzSvwRBIuO56+fKliTlaAXb3rzsUOBfizsGvixdCoybptwRzvkog5dz/u30K81cvD4OgHr2gS/desHPbZnj8998m1T+sUxcePkyBeHILRcHy3Xp+bK4L2bR79+6Bq5sbxJ07A3/d+RMCu/U0qZM3Xz5o1c4f9u+JkGxLyg6pCnL2SdWzZ7rmGQxvjdzULzRAuOZQYxjeFtGBz579Q4Gx4JdQk+o//zQfdu3YBniLfPo0FcJWbTDJR2AmkXWcX+t2kDNXLqhewxu2bFpH12pCCSJAWLNyGXQMDKJfDi9STqlE7NwOvyclQhL5v2n9Gli6ch3c+fM2nXELFCj4RjPvlngPjh09rMqONxr5L0GpfVL17ZWuCWDNgqYq1nff2gmKyk6cMg0Cu/agZc+TWaFlo7pwNCaOX3jXrdcA6tZvAOfOxELYryEmDxZYZ2XYUqhBbo1nYmNoG1WqVaeAFQMMZze/JvUglaz1uvXqTcuqEfxi1fD2gaEjxkCZcp5w+LeDkPb0KTz75x8KbKE8ILNcnjx5TdLk7JDSRal9UvXtla4JYEpBo9WoqgQc+cmMEHv6FA+wylWrQctWbel/HNCRQwfDph17aBfPnz+HTetWQ1nP92Ha5Il8twhUvB16flCeT8NZpdz7H8AKsu46fzVRlYp+bdrxXwKuIs6AOXLmhMiD+6hunODDTtRvB6DHx31M+rBkh5QyauyTasNe6ZoApqeyuK7btWMr3CdPfPi6wpwMGTmGLqCjjxwCnBGwPK55dkceNSner1dXWE0W+19PnWGSPnvOArj9xy0oTF43ZFaw30/IQn8CeWr09PyAghxt+HrcaHjy+DH0DO4n2YXYDqmCau2Tasce6ZoX+dZW9gvymF+8oCuULJYfZnwzCRYtWQ7lK5gPVVCwYCHoN3AwzJg6iaqBt8KOgV3fUCkgqBt9DSF+CYwgEL7CeKOiyoTx5AnSP6ALNPb1Bu8q70OZ4oXg1IljsHXXfrNrM655sR1S3aq1T6ode6Rnu//09b/iH7fF1wGDl8HGhdqetuxhlL36xHXYrf/9TmfTIkWL2UsNu/eLeDm4tDfVw+FukXb3TiYUwEU+LvyZZHiAAew/X+Db905tzP9cs2nnHvi/d4oz3GjwAAPYf05DAB09HafBhayKJQ84zCLfkpIsz7geoDMYx2TlzBBfG9c8prm9PcBmMHuPgJP3zwDm5ANsb/MYwOw9Ak7ePwOYkw+wvc1zitcUyPFCMUeZwXS5fLlBQKo18tzyFyhgQreWq2etfHxHhz94Iy2Io5Fbq22929FtBpv1cyTcS0nVW3/a/g8zp8G872dJ9iWXL1nxv4wPq5Wn+wJ2Ez4YJ78d2AdfjhwKHds0h5/m/cCn4wYY/I20ZWNfqFGxLAS0a0mp05YEwYMU65qVykETXx8I377FpPjsad9AoH8rGDv8C0vNOGSebjPYSXLMSNzV2xDUxgv8GlYgmyMyNmA4pCdklFpMfnxHKjQn587G0t8ccWZLiI/n0/H3SLpvYPK38O57HhQsndv7wbHYi1CCXJuTqV+Ph5iTx2Fz+D6yYeUy9O0ZBOH7S0OVql60+PfzF5F9CnNJmRPmqjt0mm4AQ6vxPJvQjacg6uQNGNS1DpTxcFfsjN3h2yGCcN4f3L8P5Qj7YTDuMvqPXoN8sLnfz4TLFy8Quk79NzaayOVP/+ZraE3ozMjPxw0fi5euIPx66f7MKT2EEA5RRg/7HF4JaON58uaFBSFL+SqDh4yAUEKQRABxAEMAIsOjZKnS9O/KsCUQumo9vcb/rdv6w4rQJTBrznxzXRsqTbdbpNALN5Lvw9jZ4RRsCDolEn/tKrQiW7++GD6KFvf3+4in3fTu1pkSCQd9NoTs7HkAawkFWihy+cuW/AxfDOxLmalI6UGx1J9J4yov7t+/B7cIoJDkyMmcWdNh+pT0HVEItkePHoJXzQzqdnXy+cL5syp7csziLu5u8hhrHGzKj9diymty0FF45CU4cTYJ+gbWAp+q5m8XXNu4HQzXM7ihohch7W0gO4CuE9AhZflY9GG4cjOdC4+EwyNRkbxK165ctpjPFRw8dITJbh+p/j6oUFGLubQOcv4HBfekXDXcJcTJgE8/h5ev0jfLILhQcC8lJ/iw8uhhejqfaNAPut4iM+OTaeQbvoawUZH+4kY24z558piCLZXsXyxduix9ouJEOHg3EuIt5nN1ylc0JTNK9acVYHjrG9SnJ92YO2dBiIkrhG265krfmIu3dc6mVLKpRevmmcz4XI+6NgMYLvJxsY+LfrnzJa9evgR4G4u9eB1y58lD7a5UtgRda+Ujm2q5bz3nELzGtQ+KXD5XR7gr3FJ/XHk1f1HPzwYEA94e127aATly5JCs7lGyFN3AkkC+GNyiHh8acN3pDPIWYbSC3P/MGoqL+xmjWkNwgI8suLAv3JaGt0IOBLhzGt8FoeBuZ/y2H9yfvuEDGaR7InbyKsrlm7PFUn/myltKQ3DhLm/Ua/WGbW/sNMK6+/dGQMTObbQZJCk2be4HS0MW0WsE5ZaN66Bdh0702uii6wyGM5WW1xS4U+fDOr6U347UY3z64m4reBvBPZO4tvEgT1zPnz2Deg0yQgTI5ZsbMEv9mSuPad+S3Us/zPyWzw5bEgL4ZNm730D+oaNE4fTZl5af9QPdBY4SsWM7vdX7tWlPr2f+MA+6+LcG78qe5Kn2AXnw6E6ecjvQPKML5eTLGaGFk48vWvt0rgWFC2asleT6Eefjzh+cycyxSfEBAJ/A3vMoaTYIily+uC+8luoPN6PgJhQEIr5G0EPwfRpuHMZ3axjgRShnyPa9NSuXk1c29+DX5Wv06N6qbdqEkz96QMasolX7d4q/K1kV1y2lSTwLKZHLN1dPqr/g/p/A0cOH6MJbL4DhF6lU6TLm1AL81QAFI/oYTXS9RRrNGVL64u3NnjKMhG8yqsi/BDOqZUxvh/AAA5hDDIPzKsEA5rxj6xCWMYA5xDA4rxIMYM47tg5hGQOYQwyD8yrBAOa8Y+sQlhkSYH/c+h/lqKPgb3741p6JY3pAN4Dpyclv1bQ+XLpwnnq0ab1acD3+qmN6l2kFugEMOfnDpm6jJEMkGzLJmh7Q9aeizHDykfayenko+Q0wit4CG5OTLrqL4p2Kh+wZYVbMI1x9ZLlijHm1PHtxe+w68x7QbQYTqqaFk4+cKoyvipz5YEKBEZMMxaZjfmeyRexvEgK9bv2GNFsvnr24b3Yt7QGXmd9Ols7lc0opKGO5iBpOPh7VgqS7uPhknroiPvVC2BtujO3fqxt83Lc/9P/kcz5LD569ZStZrtgDLrMUAMwamz7EHVu6xr2BSF0R86Kk6gzs3QN69O5rAi4sa22evVT/LF3aAy7CQ5ikip1MZytLZStKV8PJL1TIne6HVCqzf1wIeGoanlHk3ymQVrM2z16pLqycqQdcRgtO+ZJyDjIUMyPIyVez8RYPYshFuOrLQ3/hT+rAk80QeOYE4+lvIbuicZs+7qzG0zysybM31ydLU+YBXZ8itXLycSME7nQeENyDxH2YAzlz5KSBR7bvydj/KDYPT/PYtvsgCeTbHJ6mPaUnn0nx+sV12bV+HtANYLWqeWSKk1+9pg+cOn+V7iZCvrqQznz2yk3eI1cSb/Ofcd12mmx142TZmo2SPHv9XMpaFnpAN4BZg5OPiprb8KFmCKV49mraYGW1e8Am78G0q8dqGt0DDGBGH0EH158BzMEHyOjqMYAZfQQdXH8GMAcfIKOrxwBm9BF0cP0ZwBx8gIyuHgOY0UfQwfXX7UWrte0Wx7pHXj4GBbYU3E2JDvaOgW9JRyPHx+fs0m0GszYnXxzrXsjLtzRIcnnWjIGPYTPbtWj8xv9F8+dIqmEpRr6R4+NzBus2g+kdJx/jZJXzzIjcLDmCCjKsFQMf47EK6U8IuO6B/jBwsPQBCpZi5Bs5Pr7uAMMOMsPJl4t1H7l/L/0BHGOzYtz7tv4dYdWyUPrjuF+bdhDYtQcPLbXcfK0x8DHGl5B5u3d3OA1g3NyvDdVFGB8fr509Rj7aqNstkh9d8kELJ18u1v0qsiHk7l93aDcYMHjIJ/2hVu060CEgEMaPGgaHIg/wKujFzTcXA19o98qwpRDYrScN8osijI+P184eIx9tdMg4+Upj3QsHc+jIMWQWSw+cezz6KEQRgDVo3JQW0YObLxUDn9Pp3r27sJcEJ/7teCyvpjA+PiY6e4x8tFG3NRjvVQ0flMa6FzZdVhD2293dnfDAMnje1ubmW4qBz+m0btVyqOpVA8pXyIjHL4657+wx8m0KMDWcfKWx7oUAw/WPUJCkiGJtbr7SGPh4C8ejbiyJs8fIR9sdMk6+llj3UgNpTW6+khj4qAcefJWclAgdOnUxUUsYHx8znD1GPtqo6y1SKydfS6x7KYDZOgY+6oGL+3YdAmhIcqGI4+NjnjPHyEf7HDpOvpZY9yYjKriwZwx8KZ24dKkY+UaLj8/ZY5g4+Vpi3UsNphQ33xYx8KV04tKlYuQbOT4+Z5uut0g5xzpCvr1j4FvygZHj43N22eRFqyUnsjzn9gADmHOPr92tYwCz+xA4twIMYM49vna3jgHM7kPg3AowgDn3+NrdOgYwuw+BcytgmPdgYk6+LYeF8fa1e9vmM9i9lFRAvr5aEXPy1dYXll9DggsjX0upiHn7+Ib9y5FDoSOJRfbTPNPDSvHnrRlTJ0HLxr5Qo2JZGhTvePQRviu1vH1LnH1s1NF5+zabwTAIcETUZVi78yylUttT8ED3CpUqQ+HCRRSrIeTtnzsbS3/Ixt8QE+LjTdrACIvIVJ04+Vt4lxxmH759C3Ru7wfHYi/Sw+3V8vYtcfaxY0fn7dsEYEiZXrzmGKVOKxU5Tj5+s3/+aR7ExpyiMcSQe4X8KpSJY0fSzRfI10fBQc6RMyc0a9EKcPb6++9HNHIibntr16ETPEx5ABHhO2hc2HKEuDh4yHCaJyVSnH0sj30uCFnKVx08ZASE/hpCKTwIMDW8fWfg7Ot6i+Q2fYydHa4KXDg6cpz84O6BEE0Oau874BMoWrQoNPX14Tn6IQt/pDFaOcED3U8eP0YvK1fzglw5c4HPh7WhafMWdND14uxjf5nh7TsDZ183Tv6p88mwZP1JwDWXWpHj5MdfvUI49/vh0o1bkC9ffrqT5zSZycLITDFq3FcWu6tS1YvOZj4f1gHkiqHowdnHdjPL23cGzr5NbpEWR9xMphwnPyEhHkqWLE3BxUk1r+rkUKxrZlqTT7I2Zx97tAZv3xk4+7oBzKeqB1R+/x26qMfFvZoDseQ4+fnzFwDutQUHn5SUFBKJuiC9zJ4jh8kRf0+ePIbcefLwSBPy963N2cdOrMXbdwbOvq6cfKRMBwf4wIxRrQFj5SsVOU5+NbJbB2eInds20yZxf+TmDWuhWUs/el2mTDmIPnKIfr7z523Ys2sn/cwJxtvH2BYo1uTsY3vW5O07A2df10U+N6AILgQZgg1BJydCTv5H9T+Erh3bQr0GjflqmP9L2Cr6LqpR7RpQt0ZlepTMR83TATZ+0jcweuhnNK9rp3ZQx7e+SZdDyB7KsSOGQIXSxcm5k3F8PP0m5EFh0/q1IN5eJtYXX3O4u70FS0IWQtiSEPp5ysQvaTFcmK9duYyeEleicB6ah/8XL5hr0owl3v62zRv5ssjZP3k8Grwre0KtKh9Am/YdoXW7DmKVHPZaN06+lMW46F+64SQoCXMux8nH91A4oEWLFqM7dITyT1oa3CZhBEqWKk3fPcmJFGcf6xUv6AqLliynDwXYnq1FirOPejgib98mnHypQShcMLcicGF9OU4+rqXe8yhptqtcrq5QukxZs3nmEqU4+1jW3rx9Kc4+6ubovH3dFvnmBtGoaYy3r33k5O8d2ttmNZkHbBNdh/k563qAzWBZd+xtYjkDmE3cnHU7YQDLumNvE8sZwGzi5qzbCQNY1h17m1jOAGYTN2fdTnQDmLXj5GfdITK25boBDOPkD5u6DcIjL6mi6hjbnUx7sQd0/akoM3Hy8QfeVcuWwuGoSHBzyw29+vQDPCgexdpx8cVOYdfW84BuM5hQRS1x8od/NojwvbZAr+B+JBx5E+je2R/izp+lzdorLr713J51WnKZ+e1kBdaWUlDGchFktOLt8sTZJOgbWAuQ8SolSYk3YeP61XAt6Q64urnRYkjLWRqyCOYsDKHXto6LL6UrS7fsAZdZCgDWODjUcitWzr165RK8evkSkGz4L/4jt8vUJ0+gYqUqfE+2jItvZfOyVHMuwsObpCw/mXGmgVQR2XQ1cfILEG59IffCcPR0nGS7toqLL6kAy1DkAZfRZIOqnCBDMTOClOlBXeso5uUj5x7PgVwe+gtZg/WnXeOO6T8Jv16OUWptjn1m7GZ1HTROPtKfl63dBIP79YYFc7+HvHnz0VPUJkyaKgswLXHxGRD084BurylqVfOAPp1rAVKktQhukD108iwNUvI0NZUe3cedWnYl8bZJkyPGTuCv8da5bM1GclbRLbpNH8MKMLGfB3QDmJJNHUrMpgFKVAQp4dq0xLFX0i8rYx0P2OQ9mHVUZa0Y0QMMYEYcNQPpzABmoMEyoqoMYEYcNQPpzABmoMEyoqoMYEYcNQPpzABmoMEyoqoMYEYcNQPprNuLViP4QO/49/jzFgYrxnBTaiJaG8F3SnXUbQYzAidfHP9eLia92Kly5R09hr3YHj2udZvBkJMfd/U2BLXxAr+GFUiMrmx66J/pNoXx7+Vi0os7kyvv6DHsxfboca3bDIbKag1jfuzoYVi/egVv74K535HIg2v467nfzYDEmzfoNZIRV4YtgYHBPWDY4IE0IBsnu8O3w5BP+0PPLh1h8oSxcO/uX3ye+AMXk37cV1MoYwNj6rdu6w8rQpfwRZFVi2xbFCXlxX1kxWtdAcY5VC0n38XFBWZNm0KrY6RCPEZm7uwZ9BoPUcA8bk1jibuvJv69kpj0c2ZNh+lT0sOkKymfFQEltlm3OPnijtRw8nH3ENJ0cBGeQEKTN2jcFC7EnaMz0KkTxwAJiXiihhx3X038eyUx6Qd8+jm8fPWSmqakvNgHWfFatzVYZpyJM1hd3wYQdXA/3Ei4TncVYWToqMgDBGDHKeBQ5Lj7auLfK4lJLwwOrKR8ZnzgLHVtBjA1nHx0LoIKAXXzRgKELF1BARZJTjnDGWz23IXU/5a4+2rj36uNSa+2vLMARq0dusbJ55RRG8Y8HWBNIXL/XnpbxB1EOGvtJgdWJScl0mNgUITcfa4v5O7jrVMtN19JTPr9eyMgYuc22pWS8pxOWfmvrjMYxsTX+pqiQsXK4JI9O9St35COD85gxQlt2r1IEbohhBtkKe5+UI+P+fj3RUiYczz0Si7+Pcak7+LfmsakT3nwAAKCupvEpI/YsR1SU5+AX5v2tH+58rRQFhfdAJZZTj7y6cXc+8hjp98YLkvcfSXcfLzlcvHvEYRHYs7TGRDPg3QnW+eEgu+1hCJXHl+Z3EhIeEPnrJSgG8CsxclXOhhS3H1L3Hxz8e8txaQ3p4ul8o4ew96cPdZO0w1g1lZUj/b0jn8/bPQ4PdQ2VJs2edFqKI8wZa3qAQYwq7qTNSb2gEshV8f8EVqsKLs2pgfYDGbMcTOM1gxghhkqYyrKAGbMcTOM1gxghhkqYyrKAGbMcTOM1gxghhkqYyrKAGbMcTOM1gxghhkqYyrKAGbMcTOM1gxghhkqYyrKAGbMcTOM1ooAliP725CW9sIwRjFF7eeB589eAOKFE0UAq16xOJyMS7af1qxnw3jg9IXfwbtSRmRvRQBr5FMKjsUmGcZIpqj9PBAdmwgNCV44UQSw+tU94MqNO/Dw7zT7ac56dngPPHmSBhfi74CvV8ZBZ4oA5uaaHZrX9YSt+y46vJFMQft5YPv+i9DC1xMQL6pmMCzcrVVliDpxHZZvjoFHj9lMZr9hdLyeU1PTYPXWGNgXfR2C/CqbKJiNRKf5V6nKKeQWuWbXBdh9JB4qeRaD2l4lwZuc+4j7H5lkLQ/g0+LpuN8h+kwixF27Ay3reUJXMgkVzOeqHWBczaf/vICjsckQFZMIMRdJFL8Xr7KWd5m19FUEPi029C4FvjU8wE1iklE1gzG/Mg+o9cD/AxEyoW4qNRYJAAAAAElFTkSuQmCC;" parent="1" vertex="1">
          <mxGeometry x="770" y="100" width="152" height="179" as="geometry" />
        </mxCell>
        <mxCell id="rrwpw1Hd3HMWVf84mYSk-17" style="edgeStyle=orthogonalEdgeStyle;rounded=0;orthogonalLoop=1;jettySize=auto;html=1;entryX=0;entryY=0.5;entryDx=0;entryDy=0;exitX=0;exitY=0.25;exitDx=0;exitDy=0;" parent="1" source="rrwpw1Hd3HMWVf84mYSk-8" target="rrwpw1Hd3HMWVf84mYSk-12" edge="1">
          <mxGeometry relative="1" as="geometry" />
        </mxCell>
        <mxCell id="rrwpw1Hd3HMWVf84mYSk-20" value="encrypted bitstream" style="edgeLabel;html=1;align=center;verticalAlign=middle;resizable=0;points=[];fontSize=12;" parent="rrwpw1Hd3HMWVf84mYSk-17" vertex="1" connectable="0">
          <mxGeometry x="-0.2033" y="2" relative="1" as="geometry">
            <mxPoint as="offset" />
          </mxGeometry>
        </mxCell>
        <mxCell id="rrwpw1Hd3HMWVf84mYSk-8" value="LOADER" style="rounded=1;whiteSpace=wrap;html=1;fillColor=#f8cecc;strokeColor=#b85450;verticalAlign=bottom;labelPosition=center;verticalLabelPosition=top;align=center;" parent="1" vertex="1">
          <mxGeometry x="414" y="-60" width="120" height="60" as="geometry" />
        </mxCell>
        <mxCell id="rrwpw1Hd3HMWVf84mYSk-11" value="" style="edgeStyle=orthogonalEdgeStyle;rounded=0;orthogonalLoop=1;jettySize=auto;html=1;entryX=0.019;entryY=0.54;entryDx=0;entryDy=0;fontSize=15;exitX=1;exitY=0.75;exitDx=0;exitDy=0;entryPerimeter=0;" parent="1" source="rrwpw1Hd3HMWVf84mYSk-8" target="rrwpw1Hd3HMWVf84mYSk-15" edge="1">
          <mxGeometry x="-0.0168" y="-8" relative="1" as="geometry">
            <mxPoint as="offset" />
            <mxPoint x="630" y="-20" as="sourcePoint" />
          </mxGeometry>
        </mxCell>
        <mxCell id="rrwpw1Hd3HMWVf84mYSk-18" style="edgeStyle=orthogonalEdgeStyle;rounded=0;orthogonalLoop=1;jettySize=auto;html=1;entryX=1;entryY=0.25;entryDx=0;entryDy=0;exitX=1;exitY=0.5;exitDx=0;exitDy=0;" parent="1" source="rrwpw1Hd3HMWVf84mYSk-12" target="rrwpw1Hd3HMWVf84mYSk-8" edge="1">
          <mxGeometry relative="1" as="geometry">
            <Array as="points">
              <mxPoint x="570" y="-210" />
              <mxPoint x="570" y="-45" />
            </Array>
          </mxGeometry>
        </mxCell>
        <mxCell id="rrwpw1Hd3HMWVf84mYSk-12" value="&lt;font style=&quot;font-size: 15px;&quot;&gt;Decrypt&lt;/font&gt;" style="rounded=1;whiteSpace=wrap;html=1;fontSize=15;fillColor=#dae8fc;strokeColor=#6c8ebf;" parent="1" vertex="1">
          <mxGeometry x="414" y="-260" width="140" height="100" as="geometry" />
        </mxCell>
        <mxCell id="rrwpw1Hd3HMWVf84mYSk-13" value="encrypted bitstream" style="edgeStyle=orthogonalEdgeStyle;rounded=0;orthogonalLoop=1;jettySize=auto;html=1;entryX=0;entryY=0.75;entryDx=0;entryDy=0;fontSize=12;exitX=0.999;exitY=0.594;exitDx=0;exitDy=0;exitPerimeter=0;" parent="1" source="rrwpw1Hd3HMWVf84mYSk-14" target="rrwpw1Hd3HMWVf84mYSk-8" edge="1">
          <mxGeometry x="-0.028" y="-15" relative="1" as="geometry">
            <mxPoint as="offset" />
          </mxGeometry>
        </mxCell>
        <mxCell id="rrwpw1Hd3HMWVf84mYSk-14" value="Generic Memory" style="rounded=0;whiteSpace=wrap;html=1;fontSize=15;fillColor=#d5e8d4;strokeColor=#82b366;" parent="1" vertex="1">
          <mxGeometry x="200" y="-110" width="69" height="160" as="geometry" />
        </mxCell>
        <mxCell id="rrwpw1Hd3HMWVf84mYSk-15" value="Generic Memory" style="rounded=0;whiteSpace=wrap;html=1;fontSize=15;fillColor=#d5e8d4;strokeColor=#82b366;" parent="1" vertex="1">
          <mxGeometry x="690" y="-120" width="69" height="160" as="geometry" />
        </mxCell>
        <mxCell id="rrwpw1Hd3HMWVf84mYSk-16" value="Key" style="rounded=0;whiteSpace=wrap;html=1;fontSize=15;fillColor=#f8cecc;strokeColor=#b85450;" parent="1" vertex="1">
          <mxGeometry x="430" y="-250" width="70" height="20" as="geometry" />
        </mxCell>
        <mxCell id="rrwpw1Hd3HMWVf84mYSk-21" value="decrypted bitstream" style="edgeLabel;html=1;align=center;verticalAlign=middle;resizable=0;points=[];fontSize=12;" parent="1" vertex="1" connectable="0">
          <mxGeometry x="610.0044827586207" y="-0.0037931034483733583" as="geometry" />
        </mxCell>
        <mxCell id="rrwpw1Hd3HMWVf84mYSk-22" value="decrypted bitstream" style="edgeLabel;html=1;align=center;verticalAlign=middle;resizable=0;points=[];fontSize=12;" parent="1" vertex="1" connectable="0">
          <mxGeometry x="550.0044827586207" y="-130.00379310344837" as="geometry" />
        </mxCell>
        <mxCell id="rrwpw1Hd3HMWVf84mYSk-25" value="LOADER" style="rounded=1;whiteSpace=wrap;html=1;fillColor=#fff2cc;strokeColor=#d6b656;verticalAlign=bottom;labelPosition=center;verticalLabelPosition=top;align=center;" parent="1" vertex="1">
          <mxGeometry x="370" y="390" width="290" height="140" as="geometry" />
        </mxCell>
        <mxCell id="rrwpw1Hd3HMWVf84mYSk-26" value="" style="edgeStyle=orthogonalEdgeStyle;rounded=0;orthogonalLoop=1;jettySize=auto;html=1;fontSize=15;exitX=1;exitY=0.5;exitDx=0;exitDy=0;entryX=0;entryY=0.5;entryDx=0;entryDy=0;" parent="1" source="rrwpw1Hd3HMWVf84mYSk-25" target="rrwpw1Hd3HMWVf84mYSk-31" edge="1">
          <mxGeometry x="-0.0168" y="-8" relative="1" as="geometry">
            <mxPoint as="offset" />
            <mxPoint x="654.5" y="470" as="sourcePoint" />
            <mxPoint x="789" y="466" as="targetPoint" />
          </mxGeometry>
        </mxCell>
        <mxCell id="rrwpw1Hd3HMWVf84mYSk-38" style="edgeStyle=orthogonalEdgeStyle;rounded=0;orthogonalLoop=1;jettySize=auto;html=1;" parent="1" source="rrwpw1Hd3HMWVf84mYSk-28" edge="1">
          <mxGeometry relative="1" as="geometry">
            <mxPoint x="659.9999999999998" y="460" as="targetPoint" />
          </mxGeometry>
        </mxCell>
        <mxCell id="rrwpw1Hd3HMWVf84mYSk-28" value="&lt;font style=&quot;font-size: 15px;&quot;&gt;Decrypt&lt;/font&gt;" style="rounded=1;whiteSpace=wrap;html=1;fontSize=15;fillColor=#dae8fc;strokeColor=#6c8ebf;" parent="1" vertex="1">
          <mxGeometry x="480" y="420" width="108.5" height="80" as="geometry" />
        </mxCell>
        <mxCell id="rrwpw1Hd3HMWVf84mYSk-29" value="encrypted bitstream" style="edgeStyle=orthogonalEdgeStyle;rounded=0;orthogonalLoop=1;jettySize=auto;html=1;entryX=0;entryY=0.5;entryDx=0;entryDy=0;fontSize=11;exitX=1;exitY=0.5;exitDx=0;exitDy=0;" parent="1" source="rrwpw1Hd3HMWVf84mYSk-30" target="rrwpw1Hd3HMWVf84mYSk-25" edge="1">
          <mxGeometry x="0.0099" y="-20" relative="1" as="geometry">
            <mxPoint as="offset" />
          </mxGeometry>
        </mxCell>
        <mxCell id="rrwpw1Hd3HMWVf84mYSk-30" value="Generic Memory" style="rounded=0;whiteSpace=wrap;html=1;fontSize=15;fillColor=#d5e8d4;strokeColor=#82b366;" parent="1" vertex="1">
          <mxGeometry x="200" y="380" width="69" height="160" as="geometry" />
        </mxCell>
        <mxCell id="rrwpw1Hd3HMWVf84mYSk-31" value="Generic Memory" style="rounded=0;whiteSpace=wrap;html=1;fontSize=15;fillColor=#d5e8d4;strokeColor=#82b366;" parent="1" vertex="1">
          <mxGeometry x="788" y="380" width="69" height="160" as="geometry" />
        </mxCell>
        <mxCell id="rrwpw1Hd3HMWVf84mYSk-35" style="edgeStyle=orthogonalEdgeStyle;rounded=0;orthogonalLoop=1;jettySize=auto;html=1;entryX=0;entryY=0.75;entryDx=0;entryDy=0;" parent="1" source="rrwpw1Hd3HMWVf84mYSk-32" target="rrwpw1Hd3HMWVf84mYSk-28" edge="1">
          <mxGeometry relative="1" as="geometry">
            <Array as="points">
              <mxPoint x="460" y="505" />
              <mxPoint x="460" y="480" />
            </Array>
          </mxGeometry>
        </mxCell>
        <mxCell id="rrwpw1Hd3HMWVf84mYSk-32" value="Key" style="rounded=0;whiteSpace=wrap;html=1;fontSize=15;fillColor=#f8cecc;strokeColor=#b85450;" parent="1" vertex="1">
          <mxGeometry x="380" y="495" width="70" height="20" as="geometry" />
        </mxCell>
        <mxCell id="rrwpw1Hd3HMWVf84mYSk-33" value="decrypted bitstream" style="edgeLabel;html=1;align=center;verticalAlign=middle;resizable=0;points=[];" parent="1" vertex="1" connectable="0">
          <mxGeometry x="710.0044827586207" y="469.9962068965516" as="geometry" />
        </mxCell>
        <mxCell id="rrwpw1Hd3HMWVf84mYSk-37" value="" style="endArrow=classic;html=1;rounded=0;exitX=0;exitY=0.5;exitDx=0;exitDy=0;entryX=0;entryY=0.25;entryDx=0;entryDy=0;" parent="1" source="rrwpw1Hd3HMWVf84mYSk-25" target="rrwpw1Hd3HMWVf84mYSk-28" edge="1">
          <mxGeometry width="50" height="50" relative="1" as="geometry">
            <mxPoint x="590" y="450" as="sourcePoint" />
            <mxPoint x="640" y="400" as="targetPoint" />
            <Array as="points">
              <mxPoint x="410" y="460" />
              <mxPoint x="410" y="440" />
            </Array>
          </mxGeometry>
        </mxCell>
        <mxCell id="rrwpw1Hd3HMWVf84mYSk-39" value="LOADER" style="rounded=1;whiteSpace=wrap;html=1;fillColor=#fff2cc;strokeColor=#d6b656;verticalAlign=bottom;labelPosition=center;verticalLabelPosition=top;align=center;" parent="1" vertex="1">
          <mxGeometry x="370" y="610" width="290" height="140" as="geometry" />
        </mxCell>
        <mxCell id="rrwpw1Hd3HMWVf84mYSk-40" value="" style="edgeStyle=orthogonalEdgeStyle;rounded=0;orthogonalLoop=1;jettySize=auto;html=1;fontSize=15;exitX=1;exitY=0.5;exitDx=0;exitDy=0;entryX=0;entryY=0.5;entryDx=0;entryDy=0;" parent="1" source="rrwpw1Hd3HMWVf84mYSk-39" target="rrwpw1Hd3HMWVf84mYSk-45" edge="1">
          <mxGeometry x="-0.0168" y="-8" relative="1" as="geometry">
            <mxPoint as="offset" />
            <mxPoint x="654.5" y="690" as="sourcePoint" />
            <mxPoint x="789" y="686" as="targetPoint" />
          </mxGeometry>
        </mxCell>
        <mxCell id="rrwpw1Hd3HMWVf84mYSk-41" style="edgeStyle=orthogonalEdgeStyle;rounded=0;orthogonalLoop=1;jettySize=auto;html=1;" parent="1" source="rrwpw1Hd3HMWVf84mYSk-42" edge="1">
          <mxGeometry relative="1" as="geometry">
            <mxPoint x="659.9999999999998" y="680" as="targetPoint" />
          </mxGeometry>
        </mxCell>
        <mxCell id="rrwpw1Hd3HMWVf84mYSk-42" value="&lt;font style=&quot;font-size: 15px;&quot;&gt;Decrypt&lt;/font&gt;" style="rounded=1;whiteSpace=wrap;html=1;fontSize=15;fillColor=#dae8fc;strokeColor=#6c8ebf;" parent="1" vertex="1">
          <mxGeometry x="480" y="640" width="108.5" height="80" as="geometry" />
        </mxCell>
        <mxCell id="rrwpw1Hd3HMWVf84mYSk-43" value="encrypted bitstream" style="edgeStyle=orthogonalEdgeStyle;rounded=0;orthogonalLoop=1;jettySize=auto;html=1;entryX=0;entryY=0.5;entryDx=0;entryDy=0;fontSize=11;exitX=1;exitY=0.5;exitDx=0;exitDy=0;" parent="1" source="rrwpw1Hd3HMWVf84mYSk-44" target="rrwpw1Hd3HMWVf84mYSk-39" edge="1">
          <mxGeometry x="0.084" y="-10" relative="1" as="geometry">
            <mxPoint as="offset" />
          </mxGeometry>
        </mxCell>
        <mxCell id="rrwpw1Hd3HMWVf84mYSk-44" value="ROM" style="rounded=0;whiteSpace=wrap;html=1;fontSize=15;fillColor=#d5e8d4;strokeColor=#82b366;" parent="1" vertex="1">
          <mxGeometry x="170" y="600" width="69" height="160" as="geometry" />
        </mxCell>
        <mxCell id="rrwpw1Hd3HMWVf84mYSk-45" value="RAM" style="rounded=0;whiteSpace=wrap;html=1;fontSize=15;fillColor=#d5e8d4;strokeColor=#82b366;" parent="1" vertex="1">
          <mxGeometry x="857" y="600" width="69" height="160" as="geometry" />
        </mxCell>
        <mxCell id="rrwpw1Hd3HMWVf84mYSk-46" style="edgeStyle=orthogonalEdgeStyle;rounded=0;orthogonalLoop=1;jettySize=auto;html=1;entryX=0;entryY=0.75;entryDx=0;entryDy=0;" parent="1" source="rrwpw1Hd3HMWVf84mYSk-47" target="rrwpw1Hd3HMWVf84mYSk-42" edge="1">
          <mxGeometry relative="1" as="geometry">
            <Array as="points">
              <mxPoint x="460" y="725" />
              <mxPoint x="460" y="700" />
            </Array>
          </mxGeometry>
        </mxCell>
        <mxCell id="rrwpw1Hd3HMWVf84mYSk-47" value="Key" style="rounded=0;whiteSpace=wrap;html=1;fontSize=15;fillColor=#f8cecc;strokeColor=#b85450;" parent="1" vertex="1">
          <mxGeometry x="380" y="715" width="70" height="20" as="geometry" />
        </mxCell>
        <mxCell id="rrwpw1Hd3HMWVf84mYSk-48" value="decrypted bitstream" style="edgeLabel;html=1;align=center;verticalAlign=middle;resizable=0;points=[];" parent="1" vertex="1" connectable="0">
          <mxGeometry x="800.0044827586207" y="689.9962068965516" as="geometry" />
        </mxCell>
        <mxCell id="rrwpw1Hd3HMWVf84mYSk-49" value="" style="endArrow=classic;html=1;rounded=0;exitX=0;exitY=0.5;exitDx=0;exitDy=0;entryX=0;entryY=0.25;entryDx=0;entryDy=0;" parent="1" source="rrwpw1Hd3HMWVf84mYSk-39" target="rrwpw1Hd3HMWVf84mYSk-42" edge="1">
          <mxGeometry width="50" height="50" relative="1" as="geometry">
            <mxPoint x="590" y="670" as="sourcePoint" />
            <mxPoint x="640" y="620" as="targetPoint" />
            <Array as="points">
              <mxPoint x="410" y="680" />
              <mxPoint x="410" y="660" />
            </Array>
          </mxGeometry>
        </mxCell>
        <mxCell id="rrwpw1Hd3HMWVf84mYSk-50" value="LOADER" style="rounded=1;whiteSpace=wrap;html=1;fillColor=#fff2cc;strokeColor=#d6b656;verticalAlign=bottom;labelPosition=center;verticalLabelPosition=top;align=center;" parent="1" vertex="1">
          <mxGeometry x="370" y="849.5" width="290" height="140" as="geometry" />
        </mxCell>
        <mxCell id="rrwpw1Hd3HMWVf84mYSk-51" value="" style="edgeStyle=orthogonalEdgeStyle;rounded=0;orthogonalLoop=1;jettySize=auto;html=1;fontSize=15;exitX=1;exitY=0.5;exitDx=0;exitDy=0;entryX=0;entryY=0.5;entryDx=0;entryDy=0;" parent="1" source="rrwpw1Hd3HMWVf84mYSk-50" edge="1">
          <mxGeometry x="-0.0168" y="-8" relative="1" as="geometry">
            <mxPoint as="offset" />
            <mxPoint x="654.5" y="929.5" as="sourcePoint" />
            <mxPoint x="857" y="919.5" as="targetPoint" />
          </mxGeometry>
        </mxCell>
        <mxCell id="rrwpw1Hd3HMWVf84mYSk-52" style="edgeStyle=orthogonalEdgeStyle;rounded=0;orthogonalLoop=1;jettySize=auto;html=1;" parent="1" source="rrwpw1Hd3HMWVf84mYSk-53" edge="1">
          <mxGeometry relative="1" as="geometry">
            <mxPoint x="659.9999999999998" y="919.5" as="targetPoint" />
          </mxGeometry>
        </mxCell>
        <mxCell id="rrwpw1Hd3HMWVf84mYSk-53" value="&lt;font style=&quot;font-size: 15px;&quot;&gt;Decrypt&lt;/font&gt;" style="rounded=1;whiteSpace=wrap;html=1;fontSize=15;fillColor=#dae8fc;strokeColor=#6c8ebf;" parent="1" vertex="1">
          <mxGeometry x="480" y="879.5" width="108.5" height="80" as="geometry" />
        </mxCell>
        <mxCell id="rrwpw1Hd3HMWVf84mYSk-54" value="encrypted bitstream" style="edgeStyle=orthogonalEdgeStyle;rounded=0;orthogonalLoop=1;jettySize=auto;html=1;entryX=0;entryY=0.5;entryDx=0;entryDy=0;fontSize=11;exitX=1;exitY=0.5;exitDx=0;exitDy=0;" parent="1" target="rrwpw1Hd3HMWVf84mYSk-50" edge="1">
          <mxGeometry x="0.084" y="-10" relative="1" as="geometry">
            <mxPoint as="offset" />
            <mxPoint x="239" y="919.5" as="sourcePoint" />
          </mxGeometry>
        </mxCell>
        <mxCell id="rrwpw1Hd3HMWVf84mYSk-57" style="edgeStyle=orthogonalEdgeStyle;rounded=0;orthogonalLoop=1;jettySize=auto;html=1;entryX=0;entryY=0.75;entryDx=0;entryDy=0;" parent="1" source="rrwpw1Hd3HMWVf84mYSk-58" target="rrwpw1Hd3HMWVf84mYSk-53" edge="1">
          <mxGeometry relative="1" as="geometry">
            <Array as="points">
              <mxPoint x="460" y="964.5" />
              <mxPoint x="460" y="939.5" />
            </Array>
          </mxGeometry>
        </mxCell>
        <mxCell id="rrwpw1Hd3HMWVf84mYSk-58" value="Key" style="rounded=0;whiteSpace=wrap;html=1;fontSize=15;fillColor=#f8cecc;strokeColor=#b85450;" parent="1" vertex="1">
          <mxGeometry x="380" y="954.5" width="70" height="20" as="geometry" />
        </mxCell>
        <mxCell id="rrwpw1Hd3HMWVf84mYSk-59" value="decrypted bitstream" style="edgeLabel;html=1;align=center;verticalAlign=middle;resizable=0;points=[];" parent="1" vertex="1" connectable="0">
          <mxGeometry x="800.0044827586207" y="929.4962068965516" as="geometry" />
        </mxCell>
        <mxCell id="rrwpw1Hd3HMWVf84mYSk-60" value="" style="endArrow=classic;html=1;rounded=0;exitX=0;exitY=0.5;exitDx=0;exitDy=0;entryX=0;entryY=0.25;entryDx=0;entryDy=0;" parent="1" source="rrwpw1Hd3HMWVf84mYSk-50" target="rrwpw1Hd3HMWVf84mYSk-53" edge="1">
          <mxGeometry width="50" height="50" relative="1" as="geometry">
            <mxPoint x="590" y="909.5" as="sourcePoint" />
            <mxPoint x="640" y="859.5" as="targetPoint" />
            <Array as="points">
              <mxPoint x="410" y="919.5" />
              <mxPoint x="410" y="899.5" />
            </Array>
          </mxGeometry>
        </mxCell>
        <mxCell id="rrwpw1Hd3HMWVf84mYSk-61" value="" style="shape=image;verticalLabelPosition=bottom;labelBackgroundColor=default;verticalAlign=top;aspect=fixed;imageAspect=0;image=data:image/png,iVBORw0KGgoAAAANSUhEUgAAAJcAAACLCAYAAABsiwuZAAAABHNCSVQICAgIfAhkiAAAFo9JREFUeF7tXQd4FEUbfukkQuj4ixhq6CVAqKEjJdQAISY0qYKC0osCgoIK+CsqIIICAeklEDqCQoAEhRCQgJRQgwKREloSivr/803cY++yd7t32Uv2kvl48pCdPu+8mZndfefbbP9jBmECAScgkFOpzIfJz3AgKg4Hjl3BiTPX8ezZ30rJRFgmRiB3rhyoVaUEmvuURpM6nnDPm8vu3maTz1x/3kvGqu2n8GNkLCqXfxGNapVC3ZqecHOgYLtbIjIYCoHkx89w9Nc4RB6/ijMX49HW1wu9OlRDIQ83ze00kSs+IRmDp2xG8wbl0bVNVRTIr70QzbWJhC6JwP2Hydj0w2mE/3IBS2f4o3ABbdwwkeuLlUfxD9t99evu45IAiEY7H4HloVHInQN4K6iupsqyU6qHSc/w0+FY+LeuqimTSJQ1Eej8alXsjohFEtuTazFOrgPRcahU7kUUtGM91VK4SJO5ECB+VGF78YgTcZo6lkKuqCtoWLuUpgwiUdZGoAHjSfjRK5pA4OSixw31qntqyiASZW0EfKp6Iur0dU0gcHLRcyw3N/ufY2iqQSTKVAgQT55qfO7JySVMIOAMBAS5nIGqKJMjIMgliOA0BAS5nAatKFiQS3DAaQgIcjkNWlGwIJfggNMQEORyGrSiYEEuwQGnISDI5TRoRcGKMmcBi0BADYG7yepHL8TMpYaiiHcYAUEuh6ETGdUQEORSQ0jEO4yAIJfD0LlGxtmL9uF2QmKGNFaQK0NgT79Kj7DjYaNmhGH7vt/wD53ASUcTd4vpCDZVRQfcVy5bgoPh++Du/gL6DhiEWnVSTtN8Mn0qOvl3Y/FLcfPGdfh17IzA4N6mFu7avgU7t2/F3Tt3UN6rAoaNGI2ixYqr9oDOIC7dcBThRy5haHBDlPUsoppHjwRi5tIDRTvKGD18KLaFbULf/oPQtEVL9Orhj5iTJ3gJyxYvwog3B6Neg4boGhCISeNG4cC+H02lx54/h/aduuCd0eN4mL/fq/j7b+2n4S/F3cHET7dzohHhnG1i5nI2wrLyr165jA3rVuH81Xi4ubvzmN+vxWHJwgWYM38hvx45dgKbvbrz33+OjEA4I1fTFq349dujxjFJ+jP8GX+Tk3P9mpW4wAhXsXIVHq/FaGmkJfKXE1cxMLAe6tZw7OzErI8+UK1OkEsVIv0SnDv7G/7+6y+82qQ+/kf/2BKZ+OgRqlStbqqkHFvuJCtSpAhuXH9+GOLjD9/H6u9DULa8F9zd3PHo0UNONHvIpVdvZgty6QWlPuUULFgIhYsURcSxGKsFZsuWzSxOckJ07sxvfNmMPn0BL+TLx9NULVeSbdL/sVqWUkT27Nng16wygjp6p8kHyIRJU5WKNwsTM5cqRPolqOldG7lz58bypd+yZW0wL/jJ48e4efMGSpUuY7OipKREEPFy5kwZsrDQ9XzTb4/RRl6vDf14QS57oHd+2jx582LZmo0YNqgf5n3xGfLn9+AEmTxthiq5vGv7oH5DX/hUr4BixV9EyVc8NS+H5KWIZiqasWjmSi8TM1d6If1vPdVreOPAkRO4ffsWkhIT8VKJl5ErV8qZ0bNXbpi1ZszEyaZrmrWWrd7A9mB/8BnsPy+V0NTyeswF1oAe9VC00Aua0uuZSJBLTzTtKKto0WJgD6nsyJGSlMhoj41/o4U9yXVNK55z6QqnKEyOgCCX4IPTEBDkchq0omBBLsEBpyEgyOU0aEXBglyCA05DQJDLadCKggW5BAechoChH6Leu5fAO04vfNPbrsVd5aqFAgULokCBguldvc366JXR06dP4f7CC+APYw1qhp65Pp/1Mb76bLYu0JFUhV65aLX6NSth+JAB2LVtC8+y/8c9eHfsSHTr2AZff/W5WTGksZo5YxratfBF7SrlENC5HdNiHTKlIUFf57YtUv0smDtHsTlEnEnjR6NO1fJo6VsX27dsMkv36cfTEejfHhNHv6OYX0sg6epJX+9MM/TMpWfHP/pgCipXrWbXX/o3i5ejxMsleTN+PRGN/B4efDa7GBtr1jRSNpDob8oHH+Fl9kKZyNCjix8OR5/mL5izZ88OuUSFyNYr0B9DhimTY8bUSYg68jNCt+/B+XNnMLBPELbvLQN6L0n22dwF+GbeFyzNL3ZDRGLBneFnsGbbCaerUQ1FruSkJHzx2SycOX0KjRo3SaVVor/oRV9/heioo/zF7dDhI+BZqjQHeMrEsXwA8+XPz69pgHPnyYPWbdtzgd2DB/fZjDOHa847d+2Oewl37dKjjxgzgZc7ftTbXPAnN6pz3sIlpqBhI8Zg6XcLOUGIXPSi2bdpc1P8D7u2c7FfG7+OPIyISYQj2Q39vyJkMZauXMev6adDJ398v3QxZs+Za1avvRckc/5m9WHQ/+lhhloW+/XsgdhzZzlp7t69izUrlplh0L9XICIPHsDAN95E8eLF0YotGbf+jOdpFs7/EqR5kiyCpTvy82F+Wa2mN/LmyYu69RugVZu2fMDTqkc3VaTwy507t/EHI0z5ChUVYsHIswSBPfuY1BBzZn+CT5jKlIyIdv/+PXjXef6ZnFrs91P/6uwVC1QJlA5okH4+vYhFTTLMzHX+7BkcjjyIs5dv8I1qo8ZNcYidkJGMSBe+by9+u/QHPDwK8JngGJvBQtgMMe69lIGxhjEtJzSL1a3fEKSLItNDj65U319sVhvavw+6BQajWvWaqZLQvu+Hnduw/+doU9wbb72Nv/5OmQ2JWGTUR8nohub+vZTwVAWqBBw9GYfF647ofnaxiLv6vGQYcl26GIsyZcpxYkkmH5yLLL5UqTJmoNf0roULsedV4FWOdoYenZa0oQP68D3WnHkpBy4sa1+7cjlqMEVqpcrPv7Mk18C75U35IhhtESQsEtmMnNdN25fCLOvLyGvDkMuD3e5Lf7USIHQt7aHocYD0aEKKT0hIYI8KUh5T5GLyYbprk4wOL0hacwqTa9P10qPLB4607MPf6A9aEtds3MrlzEq2cvlSvuxbM9pDkniQ/pikDTzdQNA5RUeMTvdUq/AS38DTRj49D8aqz22O9MiBPN616oD+Wn/au5vn/uP3a9jNlg/JSH9OM8O2sFAeRHut0PVr0LqdH78uW7Y8Ig8d4L/HM0367h3P81JY4cJFcP2P33m8Hnp0XtC/RsR6e+hA3uZV68NAcmYlow1+3NUr6Nr9NbPovT/sxM5tYTyM8rZq48ePm5ERWTdtWMtvQhw1kjn3D6iLmeM66HYg9k7SP1D7MQy5aAmY9y37q2b7FTp6FdytExo3fa6ipPhvQ1byZ03NG9RGo9rV0LvfQLzKBoJs0rTpGD9yOI8L7t4ZDX2bmI3FCHYecOKYEahcpgR+OxVj0qPTc6SN69ao6tHpUQbtMxYvnI+QxQv57x9OeZfXQZtwuvmIOBiOkkXz8Tj6occFcqONfOeuAfyRhtx2bt2CsNANpqBZn3/FbkYi4VPNi32TqSI6dumGDp27muVx5IIOaBDBiGjp8fVf/jHPlgNCsGH+6460V/c8tLTRYL3iWcp00kVeCT1novji7JCC5QzxODkZN9jTa7p9p32PmtnSo5co5IYF7DkX3QConcxRq8eReOonHaIlIhZhx9HkdvzYUaxesZwd67+N75avdqR4vsFfsv4IHJFBBwxbpokvhtlzSQjRfqNM2XJWAaO9ExFPyWjTayuvZR5bevT+g99kM9EBvpHOCHJRP0uXKWvZZH5NbwvIWr7aRjFeSyAd2HCEWFrKltIYjlz2NN6ZaT+abf6Kx5l12Vv2qPHv2ZslQ9Krrx0Z0ixRaWZAQJArM4yiQfsgyGXQgckMzRLkygyjaNA+CHIZdGAyQ7MEuTLDKBq0D4JcBh2YzNAsQS4DjCK98yQhJBm9n5S/gDdA8xxugiCXw9Dpl7F9qybsfedJXmCrxvWYjOicboULP/S6QSkKskRA+KG3RCQTXpMsZxXTcpFygpa9Fq1ao9frA2z29MmTJ+z00yyuyiXlrfBDbxOurBtJeq9V7KBIQFBP9B80JJUw0hIZEkr2YEfUHjx4gEZNmvHotOr+hR96S5QzwfXlSxe54C8mNs4kn5GfBrLsIh3IHdy3J14fOBiD33zbFK2H7l/4obdE28Wv6ewhyWcsdVnWujWkX28uhJQTi9I6Q/dvrQ1q4cIPvRpC6RRPEmv6Xo9W+/TL+Zg2aQLq1K0H/+6BPJteun/hh17rKLhIuho1ayEv08bL/c/fvXuH6/qVrGr1GtjETluTWwA6zf1ar7666P6FH3oltF08jOTYdIL6jf69+anvPLnzcAcnW3Zb99XgVbESwnb9hO7MN0VSchL6DRwi/NC7OA+c1nz67N3Rk+f4Rw1IHy+XWJ84e9lUr9wXPe3TjrHPsUgm/NA7bXgyR8FaP05grbe2dP9KeZytk1eqUwoTr39soSPi0oSAIFea4BOZbSEgyGULHRGXJgQEudIEn8hsCwFBLlvoiLg0ISDIlSb4RGZbCAhy2UJHxKUJAUGuNMEnMttCINP6ilDzYa8Wbws0istoP/Wu4Is+085caj7s1eLVyGXpp57SW/NVr+anXqkuvXzRZ6SGPtPOXEoDpneY3E89lW3NV72an3qldunli5409DHnbogPqCuBLA+zpSFX82GvFv/J9KnMe58/81m/DAlMDvPNku/t1qxb81Wv5qee+uhMX/SSq/DwI5cwNLihbq4r1cbLpZZFWxpyNR/2avHLFi/CO0MGorZPXa5zJ7NVnxqwtuKV/NQ72xc9tUdo6G2MijUNOXnhs+XDXs3HvVTlsJFj0COol6kF1uqTu/a20VzFKGt+6p3pi17eEL009C7lh15xJCwCrWnIExMf2fRhr+bjXqqmUpXnvuEpzFp9jpLLlp/6zOiL3mU29LY05Go+7NXiJXLlzPkcDlv1aflDsEyj1U895dPbF728LXpp6C37p3TtMnsuW77j1XzYq8UrAWOrPqX0tsK0+Kl3ti96ap+ersLVfNBTvMvMXOSyu35DX/hUr4BizE04fRxKWkrkPuw9mZvwp+yksqUPe8nHvVK8EjFs1aeUnsLIV/3nsz4yRZO/erqD7McOwUofySI/9ZKRU9+hw0fyS/JFT8u7X8cu/Jp80b/m34H7ok9gH9kKYHtBR33Rk8/5oI7e8GtWmblQz2aq39m/GM4PvVqHbfmOV/NhrxavVLe1+tLDT70evujpIeqAHvVArsH1Mpf1Q68GgC0NuZoPe7V4pbqt1Zcefur18EWfkRp6l1kWlQY+I8My2k+9K/iid5kNfUYSSdTtGAKCXI7hJnJpQECQSwNIIoljCAhyOYabyKUBAUEuDSCJJMoIdJsYAvqRzPJakEsZNxGqAwKCXDqAKIpQRkCQSxmXLBdKby9ItaGnGfIh6vAhAxDHPsFL5ubmDnKG9taI0ShatBgPM8UzHRe5gmzSvAX69h+s+Nni6e+/h/PnzmL5mo2gJ96SURl0yILCCxQoaAonj37RUUfw5dffoky58qZwy1/kbShWrDj/amtwn36mzx8f2Pcj5s75LxMcnoWHRwH4deqCUWMn8i/PytvA+2nRD3rRHdCprWWVpuvR7GOezZk3aDJr/bOaWSGCXjPR2wvJ/mJEyym7VsiiKciQ5DoedRRdugWgZeu2SEpMZB8i/xL9ggOwbU8475Q8nuTBUyaOxZ1btzDuvffNOp2QcBeLFszl5Ik4sB+Nmz3/IDuVcfv2LYSuX8O8Kw/l+cjb39pV33OZ8yP2EtmWydtADnUnTxjD85PAMCx0Pch784effIo27Tpwn1yTxo/Gz5GHELrtB+TIkYMXba0fYyZOxoRJU03V9wr0x7h3p4DUHWQVKlXm/9vqnymzhl/kf3SUnMithxmSXNSx0uw71z71GvA+kuqhU5vmZv2V4inN5YsXsHvn9lTk2rBmJXwbN+O+RVcyN91yclFhAa/15Jp5iVyUvpN/d6wI+c6sLmsX8jZcvXyJae63cpXDxDEjMHnaDO4NkKzEyyWxbvMOeFcqw8ksV7ta64fc23OunLlQrXpN7otebmr9s9ZutXCayfQww+65bv0Zz0lzKuZXfPfNfDRvmbIMKHX6IktX5N8lUx6/ankIgnr35T5Ft4WF4iHz6S63+g0bgc4vxrJlk4zS9+zzulIVqmG3b9+Gm7s7Yn49jj/jbyKwZx+zPPk9PNCeHQDZu3un1bKs9cNaBrX+WcsnhROJaJ9F0mu56UUuw85ctBQSeE+ePOakID2W3BZ9PRc7tobxUzMk7AtZud4snkh5le1n/Dp0BvkkrcX0YJs2ruV7M7kFMRKsXrEM3QKDOMik49JqO7dtwbWrV3CV/WxctxpLVqxF/M0bfKYtWLBQqmJeLvkKDkcctKsfqQr5N0Br/6zlp3BaDqUlWp5Ovi+0lV8tzrDkmvLhxwgM7s3bf5LNBu2aN0JEVIxpk02fLGnUpCl+PR6NkO8Wmm1IKc+KkCWozZbD49FRvIzqzKMykdWSXDSr+bVszIR6iejZtx9Pa4/RANGJoZFMFFi2vBcO7v8JdIyNzioSqeV2l81u+fLlNwtT64e1tmjtn7X8rYNmWItKFb5nzeRUYVoCDEsueePJ1XYBNhNEHztqIle1GjXRrn0n/kODOXbkMGzcuptno9PKG9euQjmvCviYqUMlI5LSEkiekiWj2aR8hYr4nu2zTp67YgrX8otfx86mPwApPc18ufPkwb6f9vC2SUab5PD9P6K3xfd+bPXDWhvs6Z+1MhwljLXylMINTy7aE+zYuhl32J0dPZJQshFjJ/DNcuShA/wjTJSe9ji79kWYJR/UN5h/f2fqjJlm4Z/OmQdSnBZljxTSalTvm2xTP5ndHXp5VeQEpz5MfW88Hj18iD79B1mtwrIf1hLa2z9r5Tg73LAb+nfYrTxJiUu9WAAzp0/DgsXLUamy+dEvCZxChQpj0JBhmDljGg+i5a9bYHAq7OiwKz1qsHxYSASwvJNMldmOgEnsTtE/4DW08PXhmv+yJQrj6C+HsXnHXsW9mFS0ZT+sVWlv/6yV4+xwl9PQOxsQPcunfRd9+ZVmMzpUkllM0tBLL61DZ/bjXbO8Nvyy6MoDQht62uRnVRPksjLy9FS9e0flVzAbt+1GWj9WYKXaTBUsyGVlOIk8EcdirMSKYC0IGHZDr6XxIo2xERAzl7HHx7CtK+yWDfu/7G/WPstrMXMZdvhcv2GCXK4/hobtgSCXYYfG9RsmyOX6Y2jYHghyGXZoXL9hglyuP4aG7YEgl2GHxvUbJsjl+mNo2B4Ichl2aFy/YYJcrj+Ghu2BIJdhh8b1G8bJlTtXDiQnP3P93ogeOB2Bp0+ecb5oMU6uWlVK4EhMnJb0Ik0WR+DYqWvwqVpCEwqcXM3rlsbh6KuaMohEWRuByOgraMb4osU4uZrU8sTZS/G49yBZSx6RJosi8OhRMk7FxsPX21MTApxc7m650KaRFzbvOa0pk0iUNRHYsvc02vp6cb5oMdPdYs/21RD+ywUsD43C/YdiBtMCXlZJk5iYjFWbo7An8gKC/Kpp7jY/WialTmDL4uodp7DrUCyqer2IBt6l4FPDE/TtGGFZCwG6KzwWcw2Rx68g5nw82jX2QjCbgAp5PPcvpoaIGbmkxEmPnyEiOg7hUVcQdfo6nj7T1+OcWqNEfMYjQI8b6K6wmU9p+Nb2hLsDE4wiuTK+a6IFmQGB/wNZDUXjkzyIEAAAAABJRU5ErkJggg==;" parent="1" vertex="1">
          <mxGeometry x="88" y="870" width="151" height="139" as="geometry" />
        </mxCell>
        <mxCell id="rrwpw1Hd3HMWVf84mYSk-62" value="" style="shape=image;verticalLabelPosition=bottom;labelBackgroundColor=default;verticalAlign=top;aspect=fixed;imageAspect=0;image=data:image/png,iVBORw0KGgoAAAANSUhEUgAAAJgAAACzCAYAAAB1qdXUAAAABHNCSVQICAgIfAhkiAAAHEBJREFUeF7tXQdcFMf3fyZYwC6Wf4zBSmIXFYyK3ViwoiJijdgTk9hLLIkaY02isURJomDvXcROsGBDLNgRBfIzxljQKBJr/vOG7LK33t4Wbu9uj3l+/HA79b0335ud3fvOm2z/EgEmzAM6ecBFS7uP017AoZhkOHQ6Ec5e/gNevHilpRlWx8AeyJH9bahesTg08i4F9Wt6gFuu7GatyaZmBvvrYRqsDr8AB6LjoUK5YlC3eknwqeYBrhKNm+2RJTqFB9L+eQGnziVD9JkkuJxwB1r4ekL31pWhYD5XE/sUA+xOShr0n7gVGtUuBx2aV4L8eU0bcgqvMSM0eeDR4zTYsvciRJ24DqFT/aFQ/gxsKAbY3FWn4DVZrfXu5K1JCVbJ+T2wfHMM5Hgb4NMgH97Yt5SY/fjpCzh4LB78m1VSUpyVyaIeaPdRJdhzNB6ekjU6J4oAdig2GcqXLQYFRPfXLOpHZraEBxAfFcna/OjZZJUAi0mEOjVKSjTLkpkHMjxQm+Ak6lSiOoDhq4haVTyYH5kHZD3gXckDYi7+oQ5g+J7L1dX8ew7ZHlmBLOUBxMlzwXtRRWuwLOUhZqxVPcAAZlV3ssbEHmAAE3uEXVvVAwxgVnUna0zsAQYwsUfYtVU9wABmVXeyxsQeYAATe4RdW9UDDGBWdSdrTOwBBjCxR9i1VT3AAGZVd7LGxB5weZD2L3QcG0bTN8/oTf+Kr2kiE+YBDR5gM5gGp7Eqyj3AAKbcV6ykBg9YBWAvXryAV6/YziIN/nf6Kpq2rQm9gtsqs2fPoPK8JGBzEVwr8eBnA/tAcuJNWtTV1Q0qVakKnw4ZDoULF6FpfH62bODuXhjqN2oMvYL7g4vLm+p/89U4uHb1CixfuwmykfKcYBu/JyfR9Pz5C/Dpk8aPgdiYk/DjT79A6bLl+HTxB6EORYoUhSYfNYeuPXvDW2+lf0cPRR6A+XO+g/hrVyBfvvzg17Y9DBs5FnK5ZmyAkLLj9evXENC2hbhL/nr46HHQqGkzei1ln2RlO2e8OUIqFRIOIlZFZ6mVMzGnoH3HAGjSrAU8TU2FxQt+hN5dA2DnvijalDD/f78nw8SxI+H+3bswatxXJl2lpDyAnxfNpwA6eug3qNewMZ+Pbdy7dxc2b1gLwf0G0fQHD+7DutUrIIX8fZL6xKQt8YVQh5s3EmDCmBG0/ufDRsG2zRvg80F9Ycr02dC8ZWv48/YfMH70cDgefQQ279wLb79NdkIQkbJjxNgJMGb813yX3QP9YdSXE8Grek2a9n75CvSvJfv4yg72IdMAE9ujdaN4qTJlwbtWbdqcW+7c0LZ5I5OmuXwsczPhOuyJCH8DYBvXrgLfeg2hpk8tWLUizARg2FhAl26wZsUyHmBYvq1/J1gZ9qvYDLPXQh2Sbt6A3eE7YNBnQ2HsiCEwYdJU6N13IK1X/N0SsH7rLvAqX5oCunNQd749KTt8GzTiy2R3yQ6Vq1QDYRpmytnHN+BAHzSvwRBIuO56+fKliTlaAXb3rzsUOBfizsGvixdCoybptwRzvkog5dz/u30K81cvD4OgHr2gS/desHPbZnj8998m1T+sUxcePkyBeHILRcHy3Xp+bK4L2bR79+6Bq5sbxJ07A3/d+RMCu/U0qZM3Xz5o1c4f9u+JkGxLyg6pCnL2SdWzZ7rmGQxvjdzULzRAuOZQYxjeFtGBz579Q4Gx4JdQk+o//zQfdu3YBniLfPo0FcJWbTDJR2AmkXWcX+t2kDNXLqhewxu2bFpH12pCCSJAWLNyGXQMDKJfDi9STqlE7NwOvyclQhL5v2n9Gli6ch3c+fM2nXELFCj4RjPvlngPjh09rMqONxr5L0GpfVL17ZWuCWDNgqYq1nff2gmKyk6cMg0Cu/agZc+TWaFlo7pwNCaOX3jXrdcA6tZvAOfOxELYryEmDxZYZ2XYUqhBbo1nYmNoG1WqVaeAFQMMZze/JvUglaz1uvXqTcuqEfxi1fD2gaEjxkCZcp5w+LeDkPb0KTz75x8KbKE8ILNcnjx5TdLk7JDSRal9UvXtla4JYEpBo9WoqgQc+cmMEHv6FA+wylWrQctWbel/HNCRQwfDph17aBfPnz+HTetWQ1nP92Ha5Il8twhUvB16flCeT8NZpdz7H8AKsu46fzVRlYp+bdrxXwKuIs6AOXLmhMiD+6hunODDTtRvB6DHx31M+rBkh5QyauyTasNe6ZoApqeyuK7btWMr3CdPfPi6wpwMGTmGLqCjjxwCnBGwPK55dkceNSner1dXWE0W+19PnWGSPnvOArj9xy0oTF43ZFaw30/IQn8CeWr09PyAghxt+HrcaHjy+DH0DO4n2YXYDqmCau2Tasce6ZoX+dZW9gvymF+8oCuULJYfZnwzCRYtWQ7lK5gPVVCwYCHoN3AwzJg6iaqBt8KOgV3fUCkgqBt9DSF+CYwgEL7CeKOiyoTx5AnSP6ALNPb1Bu8q70OZ4oXg1IljsHXXfrNrM655sR1S3aq1T6ode6Rnu//09b/iH7fF1wGDl8HGhdqetuxhlL36xHXYrf/9TmfTIkWL2UsNu/eLeDm4tDfVw+FukXb3TiYUwEU+LvyZZHiAAew/X+Db905tzP9cs2nnHvi/d4oz3GjwAAPYf05DAB09HafBhayKJQ84zCLfkpIsz7geoDMYx2TlzBBfG9c8prm9PcBmMHuPgJP3zwDm5ANsb/MYwOw9Ak7ePwOYkw+wvc1zitcUyPFCMUeZwXS5fLlBQKo18tzyFyhgQreWq2etfHxHhz94Iy2Io5Fbq22929FtBpv1cyTcS0nVW3/a/g8zp8G872dJ9iWXL1nxv4wPq5Wn+wJ2Ez4YJ78d2AdfjhwKHds0h5/m/cCn4wYY/I20ZWNfqFGxLAS0a0mp05YEwYMU65qVykETXx8I377FpPjsad9AoH8rGDv8C0vNOGSebjPYSXLMSNzV2xDUxgv8GlYgmyMyNmA4pCdklFpMfnxHKjQn587G0t8ccWZLiI/n0/H3SLpvYPK38O57HhQsndv7wbHYi1CCXJuTqV+Ph5iTx2Fz+D6yYeUy9O0ZBOH7S0OVql60+PfzF5F9CnNJmRPmqjt0mm4AQ6vxPJvQjacg6uQNGNS1DpTxcFfsjN3h2yGCcN4f3L8P5Qj7YTDuMvqPXoN8sLnfz4TLFy8Quk79NzaayOVP/+ZraE3ozMjPxw0fi5euIPx66f7MKT2EEA5RRg/7HF4JaON58uaFBSFL+SqDh4yAUEKQRABxAEMAIsOjZKnS9O/KsCUQumo9vcb/rdv6w4rQJTBrznxzXRsqTbdbpNALN5Lvw9jZ4RRsCDolEn/tKrQiW7++GD6KFvf3+4in3fTu1pkSCQd9NoTs7HkAawkFWihy+cuW/AxfDOxLmalI6UGx1J9J4yov7t+/B7cIoJDkyMmcWdNh+pT0HVEItkePHoJXzQzqdnXy+cL5syp7csziLu5u8hhrHGzKj9diymty0FF45CU4cTYJ+gbWAp+q5m8XXNu4HQzXM7ihohch7W0gO4CuE9AhZflY9GG4cjOdC4+EwyNRkbxK165ctpjPFRw8dITJbh+p/j6oUFGLubQOcv4HBfekXDXcJcTJgE8/h5ev0jfLILhQcC8lJ/iw8uhhejqfaNAPut4iM+OTaeQbvoawUZH+4kY24z558piCLZXsXyxduix9ouJEOHg3EuIt5nN1ylc0JTNK9acVYHjrG9SnJ92YO2dBiIkrhG265krfmIu3dc6mVLKpRevmmcz4XI+6NgMYLvJxsY+LfrnzJa9evgR4G4u9eB1y58lD7a5UtgRda+Ujm2q5bz3nELzGtQ+KXD5XR7gr3FJ/XHk1f1HPzwYEA94e127aATly5JCs7lGyFN3AkkC+GNyiHh8acN3pDPIWYbSC3P/MGoqL+xmjWkNwgI8suLAv3JaGt0IOBLhzGt8FoeBuZ/y2H9yfvuEDGaR7InbyKsrlm7PFUn/myltKQ3DhLm/Ua/WGbW/sNMK6+/dGQMTObbQZJCk2be4HS0MW0WsE5ZaN66Bdh0702uii6wyGM5WW1xS4U+fDOr6U347UY3z64m4reBvBPZO4tvEgT1zPnz2Deg0yQgTI5ZsbMEv9mSuPad+S3Us/zPyWzw5bEgL4ZNm730D+oaNE4fTZl5af9QPdBY4SsWM7vdX7tWlPr2f+MA+6+LcG78qe5Kn2AXnw6E6ecjvQPKML5eTLGaGFk48vWvt0rgWFC2asleT6Eefjzh+cycyxSfEBAJ/A3vMoaTYIily+uC+8luoPN6PgJhQEIr5G0EPwfRpuHMZ3axjgRShnyPa9NSuXk1c29+DX5Wv06N6qbdqEkz96QMasolX7d4q/K1kV1y2lSTwLKZHLN1dPqr/g/p/A0cOH6MJbL4DhF6lU6TLm1AL81QAFI/oYTXS9RRrNGVL64u3NnjKMhG8yqsi/BDOqZUxvh/AAA5hDDIPzKsEA5rxj6xCWMYA5xDA4rxIMYM47tg5hGQOYQwyD8yrBAOa8Y+sQlhkSYH/c+h/lqKPgb3741p6JY3pAN4Dpyclv1bQ+XLpwnnq0ab1acD3+qmN6l2kFugEMOfnDpm6jJEMkGzLJmh7Q9aeizHDykfayenko+Q0wit4CG5OTLrqL4p2Kh+wZYVbMI1x9ZLlijHm1PHtxe+w68x7QbQYTqqaFk4+cKoyvipz5YEKBEZMMxaZjfmeyRexvEgK9bv2GNFsvnr24b3Yt7QGXmd9Ols7lc0opKGO5iBpOPh7VgqS7uPhknroiPvVC2BtujO3fqxt83Lc/9P/kcz5LD569ZStZrtgDLrMUAMwamz7EHVu6xr2BSF0R86Kk6gzs3QN69O5rAi4sa22evVT/LF3aAy7CQ5ikip1MZytLZStKV8PJL1TIne6HVCqzf1wIeGoanlHk3ymQVrM2z16pLqycqQdcRgtO+ZJyDjIUMyPIyVez8RYPYshFuOrLQ3/hT+rAk80QeOYE4+lvIbuicZs+7qzG0zysybM31ydLU+YBXZ8itXLycSME7nQeENyDxH2YAzlz5KSBR7bvydj/KDYPT/PYtvsgCeTbHJ6mPaUnn0nx+sV12bV+HtANYLWqeWSKk1+9pg+cOn+V7iZCvrqQznz2yk3eI1cSb/Ofcd12mmx142TZmo2SPHv9XMpaFnpAN4BZg5OPiprb8KFmCKV49mraYGW1e8Am78G0q8dqGt0DDGBGH0EH158BzMEHyOjqMYAZfQQdXH8GMAcfIKOrxwBm9BF0cP0ZwBx8gIyuHgOY0UfQwfXX7UWrte0Wx7pHXj4GBbYU3E2JDvaOgW9JRyPHx+fs0m0GszYnXxzrXsjLtzRIcnnWjIGPYTPbtWj8xv9F8+dIqmEpRr6R4+NzBus2g+kdJx/jZJXzzIjcLDmCCjKsFQMf47EK6U8IuO6B/jBwsPQBCpZi5Bs5Pr7uAMMOMsPJl4t1H7l/L/0BHGOzYtz7tv4dYdWyUPrjuF+bdhDYtQcPLbXcfK0x8DHGl5B5u3d3OA1g3NyvDdVFGB8fr509Rj7aqNstkh9d8kELJ18u1v0qsiHk7l93aDcYMHjIJ/2hVu060CEgEMaPGgaHIg/wKujFzTcXA19o98qwpRDYrScN8osijI+P184eIx9tdMg4+Upj3QsHc+jIMWQWSw+cezz6KEQRgDVo3JQW0YObLxUDn9Pp3r27sJcEJ/7teCyvpjA+PiY6e4x8tFG3NRjvVQ0flMa6FzZdVhD2293dnfDAMnje1ubmW4qBz+m0btVyqOpVA8pXyIjHL4657+wx8m0KMDWcfKWx7oUAw/WPUJCkiGJtbr7SGPh4C8ejbiyJs8fIR9sdMk6+llj3UgNpTW6+khj4qAcefJWclAgdOnUxUUsYHx8znD1GPtqo6y1SKydfS6x7KYDZOgY+6oGL+3YdAmhIcqGI4+NjnjPHyEf7HDpOvpZY9yYjKriwZwx8KZ24dKkY+UaLj8/ZY5g4+Vpi3UsNphQ33xYx8KV04tKlYuQbOT4+Z5uut0g5xzpCvr1j4FvygZHj43N22eRFqyUnsjzn9gADmHOPr92tYwCz+xA4twIMYM49vna3jgHM7kPg3AowgDn3+NrdOgYwuw+BcytgmPdgYk6+LYeF8fa1e9vmM9i9lFRAvr5aEXPy1dYXll9DggsjX0upiHn7+Ib9y5FDoSOJRfbTPNPDSvHnrRlTJ0HLxr5Qo2JZGhTvePQRviu1vH1LnH1s1NF5+zabwTAIcETUZVi78yylUttT8ED3CpUqQ+HCRRSrIeTtnzsbS3/Ixt8QE+LjTdrACIvIVJ04+Vt4lxxmH759C3Ru7wfHYi/Sw+3V8vYtcfaxY0fn7dsEYEiZXrzmGKVOKxU5Tj5+s3/+aR7ExpyiMcSQe4X8KpSJY0fSzRfI10fBQc6RMyc0a9EKcPb6++9HNHIibntr16ETPEx5ABHhO2hc2HKEuDh4yHCaJyVSnH0sj30uCFnKVx08ZASE/hpCKTwIMDW8fWfg7Ot6i+Q2fYydHa4KXDg6cpz84O6BEE0Oau874BMoWrQoNPX14Tn6IQt/pDFaOcED3U8eP0YvK1fzglw5c4HPh7WhafMWdND14uxjf5nh7TsDZ183Tv6p88mwZP1JwDWXWpHj5MdfvUI49/vh0o1bkC9ffrqT5zSZycLITDFq3FcWu6tS1YvOZj4f1gHkiqHowdnHdjPL23cGzr5NbpEWR9xMphwnPyEhHkqWLE3BxUk1r+rkUKxrZlqTT7I2Zx97tAZv3xk4+7oBzKeqB1R+/x26qMfFvZoDseQ4+fnzFwDutQUHn5SUFBKJuiC9zJ4jh8kRf0+ePIbcefLwSBPy963N2cdOrMXbdwbOvq6cfKRMBwf4wIxRrQFj5SsVOU5+NbJbB2eInds20yZxf+TmDWuhWUs/el2mTDmIPnKIfr7z523Ys2sn/cwJxtvH2BYo1uTsY3vW5O07A2df10U+N6AILgQZgg1BJydCTv5H9T+Erh3bQr0GjflqmP9L2Cr6LqpR7RpQt0ZlepTMR83TATZ+0jcweuhnNK9rp3ZQx7e+SZdDyB7KsSOGQIXSxcm5k3F8PP0m5EFh0/q1IN5eJtYXX3O4u70FS0IWQtiSEPp5ysQvaTFcmK9duYyeEleicB6ah/8XL5hr0owl3v62zRv5ssjZP3k8Grwre0KtKh9Am/YdoXW7DmKVHPZaN06+lMW46F+64SQoCXMux8nH91A4oEWLFqM7dITyT1oa3CZhBEqWKk3fPcmJFGcf6xUv6AqLliynDwXYnq1FirOPejgib98mnHypQShcMLcicGF9OU4+rqXe8yhptqtcrq5QukxZs3nmEqU4+1jW3rx9Kc4+6ubovH3dFvnmBtGoaYy3r33k5O8d2ttmNZkHbBNdh/k563qAzWBZd+xtYjkDmE3cnHU7YQDLumNvE8sZwGzi5qzbCQNY1h17m1jOAGYTN2fdTnQDmLXj5GfdITK25boBDOPkD5u6DcIjL6mi6hjbnUx7sQd0/akoM3Hy8QfeVcuWwuGoSHBzyw29+vQDPCgexdpx8cVOYdfW84BuM5hQRS1x8od/NojwvbZAr+B+JBx5E+je2R/izp+lzdorLr713J51WnKZ+e1kBdaWUlDGchFktOLt8sTZJOgbWAuQ8SolSYk3YeP61XAt6Q64urnRYkjLWRqyCOYsDKHXto6LL6UrS7fsAZdZCgDWODjUcitWzr165RK8evkSkGz4L/4jt8vUJ0+gYqUqfE+2jItvZfOyVHMuwsObpCw/mXGmgVQR2XQ1cfILEG59IffCcPR0nGS7toqLL6kAy1DkAZfRZIOqnCBDMTOClOlBXeso5uUj5x7PgVwe+gtZg/WnXeOO6T8Jv16OUWptjn1m7GZ1HTROPtKfl63dBIP79YYFc7+HvHnz0VPUJkyaKgswLXHxGRD084BurylqVfOAPp1rAVKktQhukD108iwNUvI0NZUe3cedWnYl8bZJkyPGTuCv8da5bM1GclbRLbpNH8MKMLGfB3QDmJJNHUrMpgFKVAQp4dq0xLFX0i8rYx0P2OQ9mHVUZa0Y0QMMYEYcNQPpzABmoMEyoqoMYEYcNQPpzABmoMEyoqoMYEYcNQPpzABmoMEyoqoMYEYcNQPprNuLViP4QO/49/jzFgYrxnBTaiJaG8F3SnXUbQYzAidfHP9eLia92Kly5R09hr3YHj2udZvBkJMfd/U2BLXxAr+GFUiMrmx66J/pNoXx7+Vi0os7kyvv6DHsxfboca3bDIbKag1jfuzoYVi/egVv74K535HIg2v467nfzYDEmzfoNZIRV4YtgYHBPWDY4IE0IBsnu8O3w5BP+0PPLh1h8oSxcO/uX3ye+AMXk37cV1MoYwNj6rdu6w8rQpfwRZFVi2xbFCXlxX1kxWtdAcY5VC0n38XFBWZNm0KrY6RCPEZm7uwZ9BoPUcA8bk1jibuvJv69kpj0c2ZNh+lT0sOkKymfFQEltlm3OPnijtRw8nH3ENJ0cBGeQEKTN2jcFC7EnaMz0KkTxwAJiXiihhx3X038eyUx6Qd8+jm8fPWSmqakvNgHWfFatzVYZpyJM1hd3wYQdXA/3Ei4TncVYWToqMgDBGDHKeBQ5Lj7auLfK4lJLwwOrKR8ZnzgLHVtBjA1nHx0LoIKAXXzRgKELF1BARZJTjnDGWz23IXU/5a4+2rj36uNSa+2vLMARq0dusbJ55RRG8Y8HWBNIXL/XnpbxB1EOGvtJgdWJScl0mNgUITcfa4v5O7jrVMtN19JTPr9eyMgYuc22pWS8pxOWfmvrjMYxsTX+pqiQsXK4JI9O9St35COD85gxQlt2r1IEbohhBtkKe5+UI+P+fj3RUiYczz0Si7+Pcak7+LfmsakT3nwAAKCupvEpI/YsR1SU5+AX5v2tH+58rRQFhfdAJZZTj7y6cXc+8hjp98YLkvcfSXcfLzlcvHvEYRHYs7TGRDPg3QnW+eEgu+1hCJXHl+Z3EhIeEPnrJSgG8CsxclXOhhS3H1L3Hxz8e8txaQ3p4ul8o4ew96cPdZO0w1g1lZUj/b0jn8/bPQ4PdQ2VJs2edFqKI8wZa3qAQYwq7qTNSb2gEshV8f8EVqsKLs2pgfYDGbMcTOM1gxghhkqYyrKAGbMcTOM1gxghhkqYyrKAGbMcTOM1gxghhkqYyrKAGbMcTOM1gxghhkqYyrKAGbMcTOM1gxghhkqYyrKAGbMcTOM1ooAliP725CW9sIwRjFF7eeB589eAOKFE0UAq16xOJyMS7af1qxnw3jg9IXfwbtSRmRvRQBr5FMKjsUmGcZIpqj9PBAdmwgNCV44UQSw+tU94MqNO/Dw7zT7ac56dngPPHmSBhfi74CvV8ZBZ4oA5uaaHZrX9YSt+y46vJFMQft5YPv+i9DC1xMQL6pmMCzcrVVliDpxHZZvjoFHj9lMZr9hdLyeU1PTYPXWGNgXfR2C/CqbKJiNRKf5V6nKKeQWuWbXBdh9JB4qeRaD2l4lwZuc+4j7H5lkLQ/g0+LpuN8h+kwixF27Ay3reUJXMgkVzOeqHWBczaf/vICjsckQFZMIMRdJFL8Xr7KWd5m19FUEPi029C4FvjU8wE1iklE1gzG/Mg+o9cD/AxEyoW4qNRYJAAAAAElFTkSuQmCC;" parent="1" vertex="1">
          <mxGeometry x="857" y="830" width="152" height="179" as="geometry" />
        </mxCell>
        <mxCell id="rrwpw1Hd3HMWVf84mYSk-69" value="&lt;p style=&quot;margin:0px;margin-top:6px;text-align:center;&quot;&gt;&lt;b&gt;LOADER&lt;/b&gt;&lt;/p&gt;&lt;hr&gt;&lt;p style=&quot;margin:0px;margin-left:8px;&quot;&gt;+ clk:&amp;nbsp; &lt;span style=&quot;white-space: pre;&quot;&gt; &lt;/span&gt;&lt;span style=&quot;white-space: pre;&quot;&gt; &lt;/span&gt;input&lt;br&gt;&lt;/p&gt;&lt;p style=&quot;margin:0px;margin-left:8px;&quot;&gt;+ rst:&lt;span style=&quot;white-space: pre;&quot;&gt; &lt;/span&gt;&lt;span style=&quot;white-space: pre;&quot;&gt; &lt;/span&gt;input&lt;/p&gt;&lt;p style=&quot;margin:0px;margin-left:8px;&quot;&gt;+ bit_addr&lt;span style=&quot;white-space: pre;&quot;&gt; &lt;/span&gt;input&lt;/p&gt;&lt;p style=&quot;margin:0px;margin-left:8px;&quot;&gt;+ bit_size&lt;span style=&quot;white-space: pre;&quot;&gt; &lt;/span&gt;&lt;span style=&quot;white-space: pre;&quot;&gt; &lt;/span&gt;input&lt;/p&gt;&lt;p style=&quot;margin:0px;margin-left:8px;&quot;&gt;+ trigger&lt;span style=&quot;white-space: pre;&quot;&gt; &lt;/span&gt;&lt;span style=&quot;white-space: pre;&quot;&gt; &lt;/span&gt;input&lt;/p&gt;&lt;p style=&quot;margin:0px;margin-left:8px;&quot;&gt;+ done&lt;span style=&quot;white-space: pre;&quot;&gt; &lt;/span&gt;&lt;span style=&quot;white-space: pre;&quot;&gt; &lt;/span&gt;output&lt;/p&gt;&lt;p style=&quot;margin:0px;margin-left:8px;&quot;&gt;&lt;br&gt;&lt;/p&gt;&lt;p style=&quot;margin:0px;margin-left:8px;&quot;&gt;+ rom_ena:&lt;span style=&quot;&quot;&gt; &lt;span style=&quot;white-space: pre;&quot;&gt; &lt;/span&gt;&lt;/span&gt;output&lt;br&gt;+ rom_data&lt;span style=&quot;background-color: initial;&quot;&gt;:&lt;span style=&quot;&quot;&gt; &lt;span style=&quot;white-space: pre;&quot;&gt; &lt;/span&gt;&lt;/span&gt;input&lt;/span&gt;&lt;/p&gt;&lt;p style=&quot;margin:0px;margin-left:8px;&quot;&gt;&lt;span style=&quot;background-color: initial;&quot;&gt;+ rom_addr:&lt;span style=&quot;white-space: pre;&quot;&gt; &lt;/span&gt;output&lt;/span&gt;&lt;/p&gt;&lt;p style=&quot;margin:0px;margin-left:8px;&quot;&gt;&lt;br&gt;&lt;/p&gt;&lt;p style=&quot;margin:0px;margin-left:8px;&quot;&gt;&lt;span style=&quot;background-color: initial;&quot;&gt;+ ram_ena:&lt;span style=&quot;&quot;&gt; &lt;span style=&quot;white-space: pre;&quot;&gt; &lt;/span&gt;&lt;/span&gt;output&lt;/span&gt;&lt;/p&gt;&lt;p style=&quot;margin:0px;margin-left:8px;&quot;&gt;&lt;span style=&quot;background-color: initial;&quot;&gt;+ ram_data:&lt;span style=&quot;white-space: pre;&quot;&gt; &lt;/span&gt;output&lt;/span&gt;&lt;/p&gt;&lt;p style=&quot;margin:0px;margin-left:8px;&quot;&gt;&lt;span style=&quot;background-color: initial;&quot;&gt;+ ram_addr:&lt;span style=&quot;white-space: pre;&quot;&gt; &lt;/span&gt;output&lt;/span&gt;&lt;/p&gt;&lt;p style=&quot;margin:0px;margin-left:8px;&quot;&gt;+ ram_wea:&lt;span style=&quot;white-space: pre;&quot;&gt; &lt;/span&gt;output&lt;/p&gt;" style="align=left;overflow=fill;html=1;dropTarget=0;whiteSpace=wrap;fillColor=#fff2cc;strokeColor=#d6b656;" parent="1" vertex="1">
          <mxGeometry x="1070" y="959.5" width="178" height="270.5" as="geometry" />
        </mxCell>
        <mxCell id="rrwpw1Hd3HMWVf84mYSk-70" value="" style="shape=component;jettyWidth=8;jettyHeight=4;" parent="rrwpw1Hd3HMWVf84mYSk-69" vertex="1">
          <mxGeometry x="1" width="20" height="20" relative="1" as="geometry">
            <mxPoint x="-24" y="4" as="offset" />
          </mxGeometry>
        </mxCell>
        <mxCell id="rrwpw1Hd3HMWVf84mYSk-77" value="LOADER" style="rounded=1;whiteSpace=wrap;html=1;fillColor=#fff2cc;strokeColor=#d6b656;verticalAlign=bottom;labelPosition=center;verticalLabelPosition=top;align=center;absoluteArcSize=0;imageWidth=24;" parent="1" vertex="1">
          <mxGeometry x="405" y="1220" width="290" height="200" as="geometry" />
        </mxCell>
        <mxCell id="rrwpw1Hd3HMWVf84mYSk-84" value="" style="shape=image;verticalLabelPosition=bottom;labelBackgroundColor=default;verticalAlign=top;aspect=fixed;imageAspect=0;image=data:image/png,iVBORw0KGgoAAAANSUhEUgAAAJcAAACLCAYAAABsiwuZAAAABHNCSVQICAgIfAhkiAAAFo9JREFUeF7tXQd4FEUbfukkQuj4ixhq6CVAqKEjJdQAISY0qYKC0osCgoIK+CsqIIICAeklEDqCQoAEhRCQgJRQgwKREloSivr/803cY++yd7t32Uv2kvl48pCdPu+8mZndfefbbP9jBmECAScgkFOpzIfJz3AgKg4Hjl3BiTPX8ezZ30rJRFgmRiB3rhyoVaUEmvuURpM6nnDPm8vu3maTz1x/3kvGqu2n8GNkLCqXfxGNapVC3ZqecHOgYLtbIjIYCoHkx89w9Nc4RB6/ijMX49HW1wu9OlRDIQ83ze00kSs+IRmDp2xG8wbl0bVNVRTIr70QzbWJhC6JwP2Hydj0w2mE/3IBS2f4o3ABbdwwkeuLlUfxD9t99evu45IAiEY7H4HloVHInQN4K6iupsqyU6qHSc/w0+FY+LeuqimTSJQ1Eej8alXsjohFEtuTazFOrgPRcahU7kUUtGM91VK4SJO5ECB+VGF78YgTcZo6lkKuqCtoWLuUpgwiUdZGoAHjSfjRK5pA4OSixw31qntqyiASZW0EfKp6Iur0dU0gcHLRcyw3N/ufY2iqQSTKVAgQT55qfO7JySVMIOAMBAS5nIGqKJMjIMgliOA0BAS5nAatKFiQS3DAaQgIcjkNWlGwIJfggNMQEORyGrSiYEEuwQGnISDI5TRoRcGKMmcBi0BADYG7yepHL8TMpYaiiHcYAUEuh6ETGdUQEORSQ0jEO4yAIJfD0LlGxtmL9uF2QmKGNFaQK0NgT79Kj7DjYaNmhGH7vt/wD53ASUcTd4vpCDZVRQfcVy5bgoPh++Du/gL6DhiEWnVSTtN8Mn0qOvl3Y/FLcfPGdfh17IzA4N6mFu7avgU7t2/F3Tt3UN6rAoaNGI2ixYqr9oDOIC7dcBThRy5haHBDlPUsoppHjwRi5tIDRTvKGD18KLaFbULf/oPQtEVL9Orhj5iTJ3gJyxYvwog3B6Neg4boGhCISeNG4cC+H02lx54/h/aduuCd0eN4mL/fq/j7b+2n4S/F3cHET7dzohHhnG1i5nI2wrLyr165jA3rVuH81Xi4ubvzmN+vxWHJwgWYM38hvx45dgKbvbrz33+OjEA4I1fTFq349dujxjFJ+jP8GX+Tk3P9mpW4wAhXsXIVHq/FaGmkJfKXE1cxMLAe6tZw7OzErI8+UK1OkEsVIv0SnDv7G/7+6y+82qQ+/kf/2BKZ+OgRqlStbqqkHFvuJCtSpAhuXH9+GOLjD9/H6u9DULa8F9zd3PHo0UNONHvIpVdvZgty6QWlPuUULFgIhYsURcSxGKsFZsuWzSxOckJ07sxvfNmMPn0BL+TLx9NULVeSbdL/sVqWUkT27Nng16wygjp6p8kHyIRJU5WKNwsTM5cqRPolqOldG7lz58bypd+yZW0wL/jJ48e4efMGSpUuY7OipKREEPFy5kwZsrDQ9XzTb4/RRl6vDf14QS57oHd+2jx582LZmo0YNqgf5n3xGfLn9+AEmTxthiq5vGv7oH5DX/hUr4BixV9EyVc8NS+H5KWIZiqasWjmSi8TM1d6If1vPdVreOPAkRO4ffsWkhIT8VKJl5ErV8qZ0bNXbpi1ZszEyaZrmrWWrd7A9mB/8BnsPy+V0NTyeswF1oAe9VC00Aua0uuZSJBLTzTtKKto0WJgD6nsyJGSlMhoj41/o4U9yXVNK55z6QqnKEyOgCCX4IPTEBDkchq0omBBLsEBpyEgyOU0aEXBglyCA05DQJDLadCKggW5BAechoChH6Leu5fAO04vfNPbrsVd5aqFAgULokCBguldvc366JXR06dP4f7CC+APYw1qhp65Pp/1Mb76bLYu0JFUhV65aLX6NSth+JAB2LVtC8+y/8c9eHfsSHTr2AZff/W5WTGksZo5YxratfBF7SrlENC5HdNiHTKlIUFf57YtUv0smDtHsTlEnEnjR6NO1fJo6VsX27dsMkv36cfTEejfHhNHv6OYX0sg6epJX+9MM/TMpWfHP/pgCipXrWbXX/o3i5ejxMsleTN+PRGN/B4efDa7GBtr1jRSNpDob8oHH+Fl9kKZyNCjix8OR5/mL5izZ88OuUSFyNYr0B9DhimTY8bUSYg68jNCt+/B+XNnMLBPELbvLQN6L0n22dwF+GbeFyzNL3ZDRGLBneFnsGbbCaerUQ1FruSkJHzx2SycOX0KjRo3SaVVor/oRV9/heioo/zF7dDhI+BZqjQHeMrEsXwA8+XPz69pgHPnyYPWbdtzgd2DB/fZjDOHa847d+2Oewl37dKjjxgzgZc7ftTbXPAnN6pz3sIlpqBhI8Zg6XcLOUGIXPSi2bdpc1P8D7u2c7FfG7+OPIyISYQj2Q39vyJkMZauXMev6adDJ398v3QxZs+Za1avvRckc/5m9WHQ/+lhhloW+/XsgdhzZzlp7t69izUrlplh0L9XICIPHsDAN95E8eLF0YotGbf+jOdpFs7/EqR5kiyCpTvy82F+Wa2mN/LmyYu69RugVZu2fMDTqkc3VaTwy507t/EHI0z5ChUVYsHIswSBPfuY1BBzZn+CT5jKlIyIdv/+PXjXef6ZnFrs91P/6uwVC1QJlA5okH4+vYhFTTLMzHX+7BkcjjyIs5dv8I1qo8ZNcYidkJGMSBe+by9+u/QHPDwK8JngGJvBQtgMMe69lIGxhjEtJzSL1a3fEKSLItNDj65U319sVhvavw+6BQajWvWaqZLQvu+Hnduw/+doU9wbb72Nv/5OmQ2JWGTUR8nohub+vZTwVAWqBBw9GYfF647ofnaxiLv6vGQYcl26GIsyZcpxYkkmH5yLLL5UqTJmoNf0roULsedV4FWOdoYenZa0oQP68D3WnHkpBy4sa1+7cjlqMEVqpcrPv7Mk18C75U35IhhtESQsEtmMnNdN25fCLOvLyGvDkMuD3e5Lf7USIHQt7aHocYD0aEKKT0hIYI8KUh5T5GLyYbprk4wOL0hacwqTa9P10qPLB4607MPf6A9aEtds3MrlzEq2cvlSvuxbM9pDkniQ/pikDTzdQNA5RUeMTvdUq/AS38DTRj49D8aqz22O9MiBPN616oD+Wn/au5vn/uP3a9jNlg/JSH9OM8O2sFAeRHut0PVr0LqdH78uW7Y8Ig8d4L/HM0367h3P81JY4cJFcP2P33m8Hnp0XtC/RsR6e+hA3uZV68NAcmYlow1+3NUr6Nr9NbPovT/sxM5tYTyM8rZq48ePm5ERWTdtWMtvQhw1kjn3D6iLmeM66HYg9k7SP1D7MQy5aAmY9y37q2b7FTp6FdytExo3fa6ipPhvQ1byZ03NG9RGo9rV0LvfQLzKBoJs0rTpGD9yOI8L7t4ZDX2bmI3FCHYecOKYEahcpgR+OxVj0qPTc6SN69ao6tHpUQbtMxYvnI+QxQv57x9OeZfXQZtwuvmIOBiOkkXz8Tj6occFcqONfOeuAfyRhtx2bt2CsNANpqBZn3/FbkYi4VPNi32TqSI6dumGDp27muVx5IIOaBDBiGjp8fVf/jHPlgNCsGH+6460V/c8tLTRYL3iWcp00kVeCT1novji7JCC5QzxODkZN9jTa7p9p32PmtnSo5co5IYF7DkX3QConcxRq8eReOonHaIlIhZhx9HkdvzYUaxesZwd67+N75avdqR4vsFfsv4IHJFBBwxbpokvhtlzSQjRfqNM2XJWAaO9ExFPyWjTayuvZR5bevT+g99kM9EBvpHOCHJRP0uXKWvZZH5NbwvIWr7aRjFeSyAd2HCEWFrKltIYjlz2NN6ZaT+abf6Kx5l12Vv2qPHv2ZslQ9Krrx0Z0ixRaWZAQJArM4yiQfsgyGXQgckMzRLkygyjaNA+CHIZdGAyQ7MEuTLDKBq0D4JcBh2YzNAsQS4DjCK98yQhJBm9n5S/gDdA8xxugiCXw9Dpl7F9qybsfedJXmCrxvWYjOicboULP/S6QSkKskRA+KG3RCQTXpMsZxXTcpFygpa9Fq1ao9frA2z29MmTJ+z00yyuyiXlrfBDbxOurBtJeq9V7KBIQFBP9B80JJUw0hIZEkr2YEfUHjx4gEZNmvHotOr+hR96S5QzwfXlSxe54C8mNs4kn5GfBrLsIh3IHdy3J14fOBiD33zbFK2H7l/4obdE28Wv6ewhyWcsdVnWujWkX28uhJQTi9I6Q/dvrQ1q4cIPvRpC6RRPEmv6Xo9W+/TL+Zg2aQLq1K0H/+6BPJteun/hh17rKLhIuho1ayEv08bL/c/fvXuH6/qVrGr1GtjETluTWwA6zf1ar7666P6FH3oltF08jOTYdIL6jf69+anvPLnzcAcnW3Zb99XgVbESwnb9hO7MN0VSchL6DRwi/NC7OA+c1nz67N3Rk+f4Rw1IHy+XWJ84e9lUr9wXPe3TjrHPsUgm/NA7bXgyR8FaP05grbe2dP9KeZytk1eqUwoTr39soSPi0oSAIFea4BOZbSEgyGULHRGXJgQEudIEn8hsCwFBLlvoiLg0ISDIlSb4RGZbCAhy2UJHxKUJAUGuNMEnMttCINP6ilDzYa8Wbws0istoP/Wu4Is+085caj7s1eLVyGXpp57SW/NVr+anXqkuvXzRZ6SGPtPOXEoDpneY3E89lW3NV72an3qldunli5409DHnbogPqCuBLA+zpSFX82GvFv/J9KnMe58/81m/DAlMDvPNku/t1qxb81Wv5qee+uhMX/SSq/DwI5cwNLihbq4r1cbLpZZFWxpyNR/2avHLFi/CO0MGorZPXa5zJ7NVnxqwtuKV/NQ72xc9tUdo6G2MijUNOXnhs+XDXs3HvVTlsJFj0COol6kF1uqTu/a20VzFKGt+6p3pi17eEL009C7lh15xJCwCrWnIExMf2fRhr+bjXqqmUpXnvuEpzFp9jpLLlp/6zOiL3mU29LY05Go+7NXiJXLlzPkcDlv1aflDsEyj1U895dPbF728LXpp6C37p3TtMnsuW77j1XzYq8UrAWOrPqX0tsK0+Kl3ti96ap+ersLVfNBTvMvMXOSyu35DX/hUr4BizE04fRxKWkrkPuw9mZvwp+yksqUPe8nHvVK8EjFs1aeUnsLIV/3nsz4yRZO/erqD7McOwUofySI/9ZKRU9+hw0fyS/JFT8u7X8cu/Jp80b/m34H7ok9gH9kKYHtBR33Rk8/5oI7e8GtWmblQz2aq39m/GM4PvVqHbfmOV/NhrxavVLe1+tLDT70evujpIeqAHvVArsH1Mpf1Q68GgC0NuZoPe7V4pbqt1Zcefur18EWfkRp6l1kWlQY+I8My2k+9K/iid5kNfUYSSdTtGAKCXI7hJnJpQECQSwNIIoljCAhyOYabyKUBAUEuDSCJJMoIdJsYAvqRzPJakEsZNxGqAwKCXDqAKIpQRkCQSxmXLBdKby9ItaGnGfIh6vAhAxDHPsFL5ubmDnKG9taI0ShatBgPM8UzHRe5gmzSvAX69h+s+Nni6e+/h/PnzmL5mo2gJ96SURl0yILCCxQoaAonj37RUUfw5dffoky58qZwy1/kbShWrDj/amtwn36mzx8f2Pcj5s75LxMcnoWHRwH4deqCUWMn8i/PytvA+2nRD3rRHdCprWWVpuvR7GOezZk3aDJr/bOaWSGCXjPR2wvJ/mJEyym7VsiiKciQ5DoedRRdugWgZeu2SEpMZB8i/xL9ggOwbU8475Q8nuTBUyaOxZ1btzDuvffNOp2QcBeLFszl5Ik4sB+Nmz3/IDuVcfv2LYSuX8O8Kw/l+cjb39pV33OZ8yP2EtmWydtADnUnTxjD85PAMCx0Pch784effIo27Tpwn1yTxo/Gz5GHELrtB+TIkYMXba0fYyZOxoRJU03V9wr0x7h3p4DUHWQVKlXm/9vqnymzhl/kf3SUnMithxmSXNSx0uw71z71GvA+kuqhU5vmZv2V4inN5YsXsHvn9lTk2rBmJXwbN+O+RVcyN91yclFhAa/15Jp5iVyUvpN/d6wI+c6sLmsX8jZcvXyJae63cpXDxDEjMHnaDO4NkKzEyyWxbvMOeFcqw8ksV7ta64fc23OunLlQrXpN7otebmr9s9ZutXCayfQww+65bv0Zz0lzKuZXfPfNfDRvmbIMKHX6IktX5N8lUx6/ankIgnr35T5Ft4WF4iHz6S63+g0bgc4vxrJlk4zS9+zzulIVqmG3b9+Gm7s7Yn49jj/jbyKwZx+zPPk9PNCeHQDZu3un1bKs9cNaBrX+WcsnhROJaJ9F0mu56UUuw85ctBQSeE+ePOakID2W3BZ9PRc7tobxUzMk7AtZud4snkh5le1n/Dp0BvkkrcX0YJs2ruV7M7kFMRKsXrEM3QKDOMik49JqO7dtwbWrV3CV/WxctxpLVqxF/M0bfKYtWLBQqmJeLvkKDkcctKsfqQr5N0Br/6zlp3BaDqUlWp5Ovi+0lV8tzrDkmvLhxwgM7s3bf5LNBu2aN0JEVIxpk02fLGnUpCl+PR6NkO8Wmm1IKc+KkCWozZbD49FRvIzqzKMykdWSXDSr+bVszIR6iejZtx9Pa4/RANGJoZFMFFi2vBcO7v8JdIyNzioSqeV2l81u+fLlNwtT64e1tmjtn7X8rYNmWItKFb5nzeRUYVoCDEsueePJ1XYBNhNEHztqIle1GjXRrn0n/kODOXbkMGzcuptno9PKG9euQjmvCviYqUMlI5LSEkiekiWj2aR8hYr4nu2zTp67YgrX8otfx86mPwApPc18ufPkwb6f9vC2SUab5PD9P6K3xfd+bPXDWhvs6Z+1MhwljLXylMINTy7aE+zYuhl32J0dPZJQshFjJ/DNcuShA/wjTJSe9ji79kWYJR/UN5h/f2fqjJlm4Z/OmQdSnBZljxTSalTvm2xTP5ndHXp5VeQEpz5MfW88Hj18iD79B1mtwrIf1hLa2z9r5Tg73LAb+nfYrTxJiUu9WAAzp0/DgsXLUamy+dEvCZxChQpj0JBhmDljGg+i5a9bYHAq7OiwKz1qsHxYSASwvJNMldmOgEnsTtE/4DW08PXhmv+yJQrj6C+HsXnHXsW9mFS0ZT+sVWlv/6yV4+xwl9PQOxsQPcunfRd9+ZVmMzpUkllM0tBLL61DZ/bjXbO8Nvyy6MoDQht62uRnVRPksjLy9FS9e0flVzAbt+1GWj9WYKXaTBUsyGVlOIk8EcdirMSKYC0IGHZDr6XxIo2xERAzl7HHx7CtK+yWDfu/7G/WPstrMXMZdvhcv2GCXK4/hobtgSCXYYfG9RsmyOX6Y2jYHghyGXZoXL9hglyuP4aG7YEgl2GHxvUbJsjl+mNo2B4Ichl2aFy/YYJcrj+Ghu2BIJdhh8b1G8bJlTtXDiQnP3P93ogeOB2Bp0+ecb5oMU6uWlVK4EhMnJb0Ik0WR+DYqWvwqVpCEwqcXM3rlsbh6KuaMohEWRuByOgraMb4osU4uZrU8sTZS/G49yBZSx6RJosi8OhRMk7FxsPX21MTApxc7m650KaRFzbvOa0pk0iUNRHYsvc02vp6cb5oMdPdYs/21RD+ywUsD43C/YdiBtMCXlZJk5iYjFWbo7An8gKC/Kpp7jY/WialTmDL4uodp7DrUCyqer2IBt6l4FPDE/TtGGFZCwG6KzwWcw2Rx68g5nw82jX2QjCbgAp5PPcvpoaIGbmkxEmPnyEiOg7hUVcQdfo6nj7T1+OcWqNEfMYjQI8b6K6wmU9p+Nb2hLsDE4wiuTK+a6IFmQGB/wNZDUXjkzyIEAAAAABJRU5ErkJggg==;" parent="1" vertex="1">
          <mxGeometry x="159" y="1265" width="151" height="139" as="geometry" />
        </mxCell>
        <mxCell id="rrwpw1Hd3HMWVf84mYSk-85" value="" style="endArrow=classic;html=1;rounded=0;exitX=-0.006;exitY=0.352;exitDx=0;exitDy=0;entryX=1.007;entryY=0.207;entryDx=0;entryDy=0;entryPerimeter=0;exitPerimeter=0;" parent="1" source="rrwpw1Hd3HMWVf84mYSk-77" target="rrwpw1Hd3HMWVf84mYSk-84" edge="1">
          <mxGeometry width="50" height="50" relative="1" as="geometry">
            <mxPoint x="540" y="1389" as="sourcePoint" />
            <mxPoint x="308" y="1280" as="targetPoint" />
          </mxGeometry>
        </mxCell>
        <mxCell id="rrwpw1Hd3HMWVf84mYSk-87" value="" style="endArrow=classic;html=1;rounded=0;entryX=-0.003;entryY=0.465;entryDx=0;entryDy=0;entryPerimeter=0;exitX=1.001;exitY=0.359;exitDx=0;exitDy=0;exitPerimeter=0;" parent="1" source="rrwpw1Hd3HMWVf84mYSk-84" target="rrwpw1Hd3HMWVf84mYSk-77" edge="1">
          <mxGeometry width="50" height="50" relative="1" as="geometry">
            <mxPoint x="315" y="1306" as="sourcePoint" />
            <mxPoint x="590" y="1269" as="targetPoint" />
          </mxGeometry>
        </mxCell>
        <mxCell id="rrwpw1Hd3HMWVf84mYSk-88" value="" style="endArrow=classic;html=1;rounded=0;exitX=-0.002;exitY=0.665;exitDx=0;exitDy=0;exitPerimeter=0;entryX=0.992;entryY=0.631;entryDx=0;entryDy=0;entryPerimeter=0;" parent="1" source="rrwpw1Hd3HMWVf84mYSk-77" target="rrwpw1Hd3HMWVf84mYSk-84" edge="1">
          <mxGeometry width="50" height="50" relative="1" as="geometry">
            <mxPoint x="400" y="1350" as="sourcePoint" />
            <mxPoint x="320" y="1348" as="targetPoint" />
          </mxGeometry>
        </mxCell>
        <mxCell id="rrwpw1Hd3HMWVf84mYSk-91" value="" style="shape=image;verticalLabelPosition=bottom;labelBackgroundColor=default;verticalAlign=top;aspect=fixed;imageAspect=0;image=data:image/png,iVBORw0KGgoAAAANSUhEUgAAAJgAAACzCAYAAAB1qdXUAAAABHNCSVQICAgIfAhkiAAAHEBJREFUeF7tXQdcFMf3fyZYwC6Wf4zBSmIXFYyK3ViwoiJijdgTk9hLLIkaY02isURJomDvXcROsGBDLNgRBfIzxljQKBJr/vOG7LK33t4Wbu9uj3l+/HA79b0335ud3fvOm2z/EgEmzAM6ecBFS7uP017AoZhkOHQ6Ec5e/gNevHilpRlWx8AeyJH9bahesTg08i4F9Wt6gFuu7GatyaZmBvvrYRqsDr8AB6LjoUK5YlC3eknwqeYBrhKNm+2RJTqFB9L+eQGnziVD9JkkuJxwB1r4ekL31pWhYD5XE/sUA+xOShr0n7gVGtUuBx2aV4L8eU0bcgqvMSM0eeDR4zTYsvciRJ24DqFT/aFQ/gxsKAbY3FWn4DVZrfXu5K1JCVbJ+T2wfHMM5Hgb4NMgH97Yt5SY/fjpCzh4LB78m1VSUpyVyaIeaPdRJdhzNB6ekjU6J4oAdig2GcqXLQYFRPfXLOpHZraEBxAfFcna/OjZZJUAi0mEOjVKSjTLkpkHMjxQm+Ak6lSiOoDhq4haVTyYH5kHZD3gXckDYi7+oQ5g+J7L1dX8ew7ZHlmBLOUBxMlzwXtRRWuwLOUhZqxVPcAAZlV3ssbEHmAAE3uEXVvVAwxgVnUna0zsAQYwsUfYtVU9wABmVXeyxsQeYAATe4RdW9UDDGBWdSdrTOwBBjCxR9i1VT3AAGZVd7LGxB5weZD2L3QcG0bTN8/oTf+Kr2kiE+YBDR5gM5gGp7Eqyj3AAKbcV6ykBg9YBWAvXryAV6/YziIN/nf6Kpq2rQm9gtsqs2fPoPK8JGBzEVwr8eBnA/tAcuJNWtTV1Q0qVakKnw4ZDoULF6FpfH62bODuXhjqN2oMvYL7g4vLm+p/89U4uHb1CixfuwmykfKcYBu/JyfR9Pz5C/Dpk8aPgdiYk/DjT79A6bLl+HTxB6EORYoUhSYfNYeuPXvDW2+lf0cPRR6A+XO+g/hrVyBfvvzg17Y9DBs5FnK5ZmyAkLLj9evXENC2hbhL/nr46HHQqGkzei1ln2RlO2e8OUIqFRIOIlZFZ6mVMzGnoH3HAGjSrAU8TU2FxQt+hN5dA2DnvijalDD/f78nw8SxI+H+3bswatxXJl2lpDyAnxfNpwA6eug3qNewMZ+Pbdy7dxc2b1gLwf0G0fQHD+7DutUrIIX8fZL6xKQt8YVQh5s3EmDCmBG0/ufDRsG2zRvg80F9Ycr02dC8ZWv48/YfMH70cDgefQQ279wLb79NdkIQkbJjxNgJMGb813yX3QP9YdSXE8Grek2a9n75CvSvJfv4yg72IdMAE9ujdaN4qTJlwbtWbdqcW+7c0LZ5I5OmuXwsczPhOuyJCH8DYBvXrgLfeg2hpk8tWLUizARg2FhAl26wZsUyHmBYvq1/J1gZ9qvYDLPXQh2Sbt6A3eE7YNBnQ2HsiCEwYdJU6N13IK1X/N0SsH7rLvAqX5oCunNQd749KTt8GzTiy2R3yQ6Vq1QDYRpmytnHN+BAHzSvwRBIuO56+fKliTlaAXb3rzsUOBfizsGvixdCoybptwRzvkog5dz/u30K81cvD4OgHr2gS/desHPbZnj8998m1T+sUxcePkyBeHILRcHy3Xp+bK4L2bR79+6Bq5sbxJ07A3/d+RMCu/U0qZM3Xz5o1c4f9u+JkGxLyg6pCnL2SdWzZ7rmGQxvjdzULzRAuOZQYxjeFtGBz579Q4Gx4JdQk+o//zQfdu3YBniLfPo0FcJWbTDJR2AmkXWcX+t2kDNXLqhewxu2bFpH12pCCSJAWLNyGXQMDKJfDi9STqlE7NwOvyclQhL5v2n9Gli6ch3c+fM2nXELFCj4RjPvlngPjh09rMqONxr5L0GpfVL17ZWuCWDNgqYq1nff2gmKyk6cMg0Cu/agZc+TWaFlo7pwNCaOX3jXrdcA6tZvAOfOxELYryEmDxZYZ2XYUqhBbo1nYmNoG1WqVaeAFQMMZze/JvUglaz1uvXqTcuqEfxi1fD2gaEjxkCZcp5w+LeDkPb0KTz75x8KbKE8ILNcnjx5TdLk7JDSRal9UvXtla4JYEpBo9WoqgQc+cmMEHv6FA+wylWrQctWbel/HNCRQwfDph17aBfPnz+HTetWQ1nP92Ha5Il8twhUvB16flCeT8NZpdz7H8AKsu46fzVRlYp+bdrxXwKuIs6AOXLmhMiD+6hunODDTtRvB6DHx31M+rBkh5QyauyTasNe6ZoApqeyuK7btWMr3CdPfPi6wpwMGTmGLqCjjxwCnBGwPK55dkceNSner1dXWE0W+19PnWGSPnvOArj9xy0oTF43ZFaw30/IQn8CeWr09PyAghxt+HrcaHjy+DH0DO4n2YXYDqmCau2Tasce6ZoX+dZW9gvymF+8oCuULJYfZnwzCRYtWQ7lK5gPVVCwYCHoN3AwzJg6iaqBt8KOgV3fUCkgqBt9DSF+CYwgEL7CeKOiyoTx5AnSP6ALNPb1Bu8q70OZ4oXg1IljsHXXfrNrM655sR1S3aq1T6ode6Rnu//09b/iH7fF1wGDl8HGhdqetuxhlL36xHXYrf/9TmfTIkWL2UsNu/eLeDm4tDfVw+FukXb3TiYUwEU+LvyZZHiAAew/X+Db905tzP9cs2nnHvi/d4oz3GjwAAPYf05DAB09HafBhayKJQ84zCLfkpIsz7geoDMYx2TlzBBfG9c8prm9PcBmMHuPgJP3zwDm5ANsb/MYwOw9Ak7ePwOYkw+wvc1zitcUyPFCMUeZwXS5fLlBQKo18tzyFyhgQreWq2etfHxHhz94Iy2Io5Fbq22929FtBpv1cyTcS0nVW3/a/g8zp8G872dJ9iWXL1nxv4wPq5Wn+wJ2Ez4YJ78d2AdfjhwKHds0h5/m/cCn4wYY/I20ZWNfqFGxLAS0a0mp05YEwYMU65qVykETXx8I377FpPjsad9AoH8rGDv8C0vNOGSebjPYSXLMSNzV2xDUxgv8GlYgmyMyNmA4pCdklFpMfnxHKjQn587G0t8ccWZLiI/n0/H3SLpvYPK38O57HhQsndv7wbHYi1CCXJuTqV+Ph5iTx2Fz+D6yYeUy9O0ZBOH7S0OVql60+PfzF5F9CnNJmRPmqjt0mm4AQ6vxPJvQjacg6uQNGNS1DpTxcFfsjN3h2yGCcN4f3L8P5Qj7YTDuMvqPXoN8sLnfz4TLFy8Quk79NzaayOVP/+ZraE3ozMjPxw0fi5euIPx66f7MKT2EEA5RRg/7HF4JaON58uaFBSFL+SqDh4yAUEKQRABxAEMAIsOjZKnS9O/KsCUQumo9vcb/rdv6w4rQJTBrznxzXRsqTbdbpNALN5Lvw9jZ4RRsCDolEn/tKrQiW7++GD6KFvf3+4in3fTu1pkSCQd9NoTs7HkAawkFWihy+cuW/AxfDOxLmalI6UGx1J9J4yov7t+/B7cIoJDkyMmcWdNh+pT0HVEItkePHoJXzQzqdnXy+cL5syp7csziLu5u8hhrHGzKj9diymty0FF45CU4cTYJ+gbWAp+q5m8XXNu4HQzXM7ihohch7W0gO4CuE9AhZflY9GG4cjOdC4+EwyNRkbxK165ctpjPFRw8dITJbh+p/j6oUFGLubQOcv4HBfekXDXcJcTJgE8/h5ev0jfLILhQcC8lJ/iw8uhhejqfaNAPut4iM+OTaeQbvoawUZH+4kY24z558piCLZXsXyxduix9ouJEOHg3EuIt5nN1ylc0JTNK9acVYHjrG9SnJ92YO2dBiIkrhG265krfmIu3dc6mVLKpRevmmcz4XI+6NgMYLvJxsY+LfrnzJa9evgR4G4u9eB1y58lD7a5UtgRda+Ujm2q5bz3nELzGtQ+KXD5XR7gr3FJ/XHk1f1HPzwYEA94e127aATly5JCs7lGyFN3AkkC+GNyiHh8acN3pDPIWYbSC3P/MGoqL+xmjWkNwgI8suLAv3JaGt0IOBLhzGt8FoeBuZ/y2H9yfvuEDGaR7InbyKsrlm7PFUn/myltKQ3DhLm/Ua/WGbW/sNMK6+/dGQMTObbQZJCk2be4HS0MW0WsE5ZaN66Bdh0702uii6wyGM5WW1xS4U+fDOr6U347UY3z64m4reBvBPZO4tvEgT1zPnz2Deg0yQgTI5ZsbMEv9mSuPad+S3Us/zPyWzw5bEgL4ZNm730D+oaNE4fTZl5af9QPdBY4SsWM7vdX7tWlPr2f+MA+6+LcG78qe5Kn2AXnw6E6ecjvQPKML5eTLGaGFk48vWvt0rgWFC2asleT6Eefjzh+cycyxSfEBAJ/A3vMoaTYIily+uC+8luoPN6PgJhQEIr5G0EPwfRpuHMZ3axjgRShnyPa9NSuXk1c29+DX5Wv06N6qbdqEkz96QMasolX7d4q/K1kV1y2lSTwLKZHLN1dPqr/g/p/A0cOH6MJbL4DhF6lU6TLm1AL81QAFI/oYTXS9RRrNGVL64u3NnjKMhG8yqsi/BDOqZUxvh/AAA5hDDIPzKsEA5rxj6xCWMYA5xDA4rxIMYM47tg5hGQOYQwyD8yrBAOa8Y+sQlhkSYH/c+h/lqKPgb3741p6JY3pAN4Dpyclv1bQ+XLpwnnq0ab1acD3+qmN6l2kFugEMOfnDpm6jJEMkGzLJmh7Q9aeizHDykfayenko+Q0wit4CG5OTLrqL4p2Kh+wZYVbMI1x9ZLlijHm1PHtxe+w68x7QbQYTqqaFk4+cKoyvipz5YEKBEZMMxaZjfmeyRexvEgK9bv2GNFsvnr24b3Yt7QGXmd9Ols7lc0opKGO5iBpOPh7VgqS7uPhknroiPvVC2BtujO3fqxt83Lc/9P/kcz5LD569ZStZrtgDLrMUAMwamz7EHVu6xr2BSF0R86Kk6gzs3QN69O5rAi4sa22evVT/LF3aAy7CQ5ikip1MZytLZStKV8PJL1TIne6HVCqzf1wIeGoanlHk3ymQVrM2z16pLqycqQdcRgtO+ZJyDjIUMyPIyVez8RYPYshFuOrLQ3/hT+rAk80QeOYE4+lvIbuicZs+7qzG0zysybM31ydLU+YBXZ8itXLycSME7nQeENyDxH2YAzlz5KSBR7bvydj/KDYPT/PYtvsgCeTbHJ6mPaUnn0nx+sV12bV+HtANYLWqeWSKk1+9pg+cOn+V7iZCvrqQznz2yk3eI1cSb/Ofcd12mmx142TZmo2SPHv9XMpaFnpAN4BZg5OPiprb8KFmCKV49mraYGW1e8Am78G0q8dqGt0DDGBGH0EH158BzMEHyOjqMYAZfQQdXH8GMAcfIKOrxwBm9BF0cP0ZwBx8gIyuHgOY0UfQwfXX7UWrte0Wx7pHXj4GBbYU3E2JDvaOgW9JRyPHx+fs0m0GszYnXxzrXsjLtzRIcnnWjIGPYTPbtWj8xv9F8+dIqmEpRr6R4+NzBus2g+kdJx/jZJXzzIjcLDmCCjKsFQMf47EK6U8IuO6B/jBwsPQBCpZi5Bs5Pr7uAMMOMsPJl4t1H7l/L/0BHGOzYtz7tv4dYdWyUPrjuF+bdhDYtQcPLbXcfK0x8DHGl5B5u3d3OA1g3NyvDdVFGB8fr509Rj7aqNstkh9d8kELJ18u1v0qsiHk7l93aDcYMHjIJ/2hVu060CEgEMaPGgaHIg/wKujFzTcXA19o98qwpRDYrScN8osijI+P184eIx9tdMg4+Upj3QsHc+jIMWQWSw+cezz6KEQRgDVo3JQW0YObLxUDn9Pp3r27sJcEJ/7teCyvpjA+PiY6e4x8tFG3NRjvVQ0flMa6FzZdVhD2293dnfDAMnje1ubmW4qBz+m0btVyqOpVA8pXyIjHL4657+wx8m0KMDWcfKWx7oUAw/WPUJCkiGJtbr7SGPh4C8ejbiyJs8fIR9sdMk6+llj3UgNpTW6+khj4qAcefJWclAgdOnUxUUsYHx8znD1GPtqo6y1SKydfS6x7KYDZOgY+6oGL+3YdAmhIcqGI4+NjnjPHyEf7HDpOvpZY9yYjKriwZwx8KZ24dKkY+UaLj8/ZY5g4+Vpi3UsNphQ33xYx8KV04tKlYuQbOT4+Z5uut0g5xzpCvr1j4FvygZHj43N22eRFqyUnsjzn9gADmHOPr92tYwCz+xA4twIMYM49vna3jgHM7kPg3AowgDn3+NrdOgYwuw+BcytgmPdgYk6+LYeF8fa1e9vmM9i9lFRAvr5aEXPy1dYXll9DggsjX0upiHn7+Ib9y5FDoSOJRfbTPNPDSvHnrRlTJ0HLxr5Qo2JZGhTvePQRviu1vH1LnH1s1NF5+zabwTAIcETUZVi78yylUttT8ED3CpUqQ+HCRRSrIeTtnzsbS3/Ixt8QE+LjTdrACIvIVJ04+Vt4lxxmH759C3Ru7wfHYi/Sw+3V8vYtcfaxY0fn7dsEYEiZXrzmGKVOKxU5Tj5+s3/+aR7ExpyiMcSQe4X8KpSJY0fSzRfI10fBQc6RMyc0a9EKcPb6++9HNHIibntr16ETPEx5ABHhO2hc2HKEuDh4yHCaJyVSnH0sj30uCFnKVx08ZASE/hpCKTwIMDW8fWfg7Ot6i+Q2fYydHa4KXDg6cpz84O6BEE0Oau874BMoWrQoNPX14Tn6IQt/pDFaOcED3U8eP0YvK1fzglw5c4HPh7WhafMWdND14uxjf5nh7TsDZ183Tv6p88mwZP1JwDWXWpHj5MdfvUI49/vh0o1bkC9ffrqT5zSZycLITDFq3FcWu6tS1YvOZj4f1gHkiqHowdnHdjPL23cGzr5NbpEWR9xMphwnPyEhHkqWLE3BxUk1r+rkUKxrZlqTT7I2Zx97tAZv3xk4+7oBzKeqB1R+/x26qMfFvZoDseQ4+fnzFwDutQUHn5SUFBKJuiC9zJ4jh8kRf0+ePIbcefLwSBPy963N2cdOrMXbdwbOvq6cfKRMBwf4wIxRrQFj5SsVOU5+NbJbB2eInds20yZxf+TmDWuhWUs/el2mTDmIPnKIfr7z523Ys2sn/cwJxtvH2BYo1uTsY3vW5O07A2df10U+N6AILgQZgg1BJydCTv5H9T+Erh3bQr0GjflqmP9L2Cr6LqpR7RpQt0ZlepTMR83TATZ+0jcweuhnNK9rp3ZQx7e+SZdDyB7KsSOGQIXSxcm5k3F8PP0m5EFh0/q1IN5eJtYXX3O4u70FS0IWQtiSEPp5ysQvaTFcmK9duYyeEleicB6ah/8XL5hr0owl3v62zRv5ssjZP3k8Grwre0KtKh9Am/YdoXW7DmKVHPZaN06+lMW46F+64SQoCXMux8nH91A4oEWLFqM7dITyT1oa3CZhBEqWKk3fPcmJFGcf6xUv6AqLliynDwXYnq1FirOPejgib98mnHypQShcMLcicGF9OU4+rqXe8yhptqtcrq5QukxZs3nmEqU4+1jW3rx9Kc4+6ubovH3dFvnmBtGoaYy3r33k5O8d2ttmNZkHbBNdh/k563qAzWBZd+xtYjkDmE3cnHU7YQDLumNvE8sZwGzi5qzbCQNY1h17m1jOAGYTN2fdTnQDmLXj5GfdITK25boBDOPkD5u6DcIjL6mi6hjbnUx7sQd0/akoM3Hy8QfeVcuWwuGoSHBzyw29+vQDPCgexdpx8cVOYdfW84BuM5hQRS1x8od/NojwvbZAr+B+JBx5E+je2R/izp+lzdorLr713J51WnKZ+e1kBdaWUlDGchFktOLt8sTZJOgbWAuQ8SolSYk3YeP61XAt6Q64urnRYkjLWRqyCOYsDKHXto6LL6UrS7fsAZdZCgDWODjUcitWzr165RK8evkSkGz4L/4jt8vUJ0+gYqUqfE+2jItvZfOyVHMuwsObpCw/mXGmgVQR2XQ1cfILEG59IffCcPR0nGS7toqLL6kAy1DkAZfRZIOqnCBDMTOClOlBXeso5uUj5x7PgVwe+gtZg/WnXeOO6T8Jv16OUWptjn1m7GZ1HTROPtKfl63dBIP79YYFc7+HvHnz0VPUJkyaKgswLXHxGRD084BurylqVfOAPp1rAVKktQhukD108iwNUvI0NZUe3cedWnYl8bZJkyPGTuCv8da5bM1GclbRLbpNH8MKMLGfB3QDmJJNHUrMpgFKVAQp4dq0xLFX0i8rYx0P2OQ9mHVUZa0Y0QMMYEYcNQPpzABmoMEyoqoMYEYcNQPpzABmoMEyoqoMYEYcNQPpzABmoMEyoqoMYEYcNQPprNuLViP4QO/49/jzFgYrxnBTaiJaG8F3SnXUbQYzAidfHP9eLia92Kly5R09hr3YHj2udZvBkJMfd/U2BLXxAr+GFUiMrmx66J/pNoXx7+Vi0os7kyvv6DHsxfboca3bDIbKag1jfuzoYVi/egVv74K535HIg2v467nfzYDEmzfoNZIRV4YtgYHBPWDY4IE0IBsnu8O3w5BP+0PPLh1h8oSxcO/uX3ye+AMXk37cV1MoYwNj6rdu6w8rQpfwRZFVi2xbFCXlxX1kxWtdAcY5VC0n38XFBWZNm0KrY6RCPEZm7uwZ9BoPUcA8bk1jibuvJv69kpj0c2ZNh+lT0sOkKymfFQEltlm3OPnijtRw8nH3ENJ0cBGeQEKTN2jcFC7EnaMz0KkTxwAJiXiihhx3X038eyUx6Qd8+jm8fPWSmqakvNgHWfFatzVYZpyJM1hd3wYQdXA/3Ei4TncVYWToqMgDBGDHKeBQ5Lj7auLfK4lJLwwOrKR8ZnzgLHVtBjA1nHx0LoIKAXXzRgKELF1BARZJTjnDGWz23IXU/5a4+2rj36uNSa+2vLMARq0dusbJ55RRG8Y8HWBNIXL/XnpbxB1EOGvtJgdWJScl0mNgUITcfa4v5O7jrVMtN19JTPr9eyMgYuc22pWS8pxOWfmvrjMYxsTX+pqiQsXK4JI9O9St35COD85gxQlt2r1IEbohhBtkKe5+UI+P+fj3RUiYczz0Si7+Pcak7+LfmsakT3nwAAKCupvEpI/YsR1SU5+AX5v2tH+58rRQFhfdAJZZTj7y6cXc+8hjp98YLkvcfSXcfLzlcvHvEYRHYs7TGRDPg3QnW+eEgu+1hCJXHl+Z3EhIeEPnrJSgG8CsxclXOhhS3H1L3Hxz8e8txaQ3p4ul8o4ew96cPdZO0w1g1lZUj/b0jn8/bPQ4PdQ2VJs2edFqKI8wZa3qAQYwq7qTNSb2gEshV8f8EVqsKLs2pgfYDGbMcTOM1gxghhkqYyrKAGbMcTOM1gxghhkqYyrKAGbMcTOM1gxghhkqYyrKAGbMcTOM1gxghhkqYyrKAGbMcTOM1gxghhkqYyrKAGbMcTOM1ooAliP725CW9sIwRjFF7eeB589eAOKFE0UAq16xOJyMS7af1qxnw3jg9IXfwbtSRmRvRQBr5FMKjsUmGcZIpqj9PBAdmwgNCV44UQSw+tU94MqNO/Dw7zT7ac56dngPPHmSBhfi74CvV8ZBZ4oA5uaaHZrX9YSt+y46vJFMQft5YPv+i9DC1xMQL6pmMCzcrVVliDpxHZZvjoFHj9lMZr9hdLyeU1PTYPXWGNgXfR2C/CqbKJiNRKf5V6nKKeQWuWbXBdh9JB4qeRaD2l4lwZuc+4j7H5lkLQ/g0+LpuN8h+kwixF27Ay3reUJXMgkVzOeqHWBczaf/vICjsckQFZMIMRdJFL8Xr7KWd5m19FUEPi029C4FvjU8wE1iklE1gzG/Mg+o9cD/AxEyoW4qNRYJAAAAAElFTkSuQmCC;" parent="1" vertex="1">
          <mxGeometry x="770" y="1230" width="152" height="179" as="geometry" />
        </mxCell>
        <mxCell id="rrwpw1Hd3HMWVf84mYSk-92" value="" style="endArrow=classic;html=1;rounded=0;entryX=-0.002;entryY=0.279;entryDx=0;entryDy=0;entryPerimeter=0;exitX=1;exitY=0.5;exitDx=0;exitDy=0;" parent="1" source="rrwpw1Hd3HMWVf84mYSk-103" target="rrwpw1Hd3HMWVf84mYSk-91" edge="1">
          <mxGeometry width="50" height="50" relative="1" as="geometry">
            <mxPoint x="580" y="1379" as="sourcePoint" />
            <mxPoint x="630" y="1329" as="targetPoint" />
          </mxGeometry>
        </mxCell>
        <mxCell id="rrwpw1Hd3HMWVf84mYSk-93" value="" style="endArrow=classic;html=1;rounded=0;entryX=0;entryY=0.5;entryDx=0;entryDy=0;exitX=1;exitY=0.5;exitDx=0;exitDy=0;" parent="1" source="rrwpw1Hd3HMWVf84mYSk-104" target="rrwpw1Hd3HMWVf84mYSk-91" edge="1">
          <mxGeometry width="50" height="50" relative="1" as="geometry">
            <mxPoint x="700" y="1320" as="sourcePoint" />
            <mxPoint x="745" y="1319.21" as="targetPoint" />
          </mxGeometry>
        </mxCell>
        <mxCell id="rrwpw1Hd3HMWVf84mYSk-94" value="" style="endArrow=classic;html=1;rounded=0;entryX=-0.006;entryY=0.723;entryDx=0;entryDy=0;entryPerimeter=0;exitX=1;exitY=0.25;exitDx=0;exitDy=0;" parent="1" source="rrwpw1Hd3HMWVf84mYSk-105" target="rrwpw1Hd3HMWVf84mYSk-91" edge="1">
          <mxGeometry width="50" height="50" relative="1" as="geometry">
            <mxPoint x="580" y="1379" as="sourcePoint" />
            <mxPoint x="630" y="1329" as="targetPoint" />
          </mxGeometry>
        </mxCell>
        <mxCell id="rrwpw1Hd3HMWVf84mYSk-95" value="" style="endArrow=classic;html=1;rounded=0;entryX=0.005;entryY=0.835;entryDx=0;entryDy=0;entryPerimeter=0;exitX=1;exitY=0.5;exitDx=0;exitDy=0;" parent="1" source="rrwpw1Hd3HMWVf84mYSk-106" target="rrwpw1Hd3HMWVf84mYSk-91" edge="1">
          <mxGeometry width="50" height="50" relative="1" as="geometry">
            <mxPoint x="710" y="1378" as="sourcePoint" />
            <mxPoint x="630" y="1329" as="targetPoint" />
          </mxGeometry>
        </mxCell>
        <mxCell id="rrwpw1Hd3HMWVf84mYSk-100" value="rom_ena" style="text;html=1;strokeColor=default;fillColor=none;align=center;verticalAlign=middle;whiteSpace=wrap;rounded=0;" parent="1" vertex="1">
          <mxGeometry x="405" y="1283" width="65" height="10" as="geometry" />
        </mxCell>
        <mxCell id="rrwpw1Hd3HMWVf84mYSk-101" value="rom_data" style="text;html=1;strokeColor=default;fillColor=none;align=center;verticalAlign=middle;whiteSpace=wrap;rounded=0;" parent="1" vertex="1">
          <mxGeometry x="405" y="1304" width="65" height="10" as="geometry" />
        </mxCell>
        <mxCell id="rrwpw1Hd3HMWVf84mYSk-102" value="rom_addr" style="text;html=1;strokeColor=default;fillColor=none;align=center;verticalAlign=middle;whiteSpace=wrap;rounded=0;" parent="1" vertex="1">
          <mxGeometry x="405" y="1342" width="65" height="10" as="geometry" />
        </mxCell>
        <mxCell id="rrwpw1Hd3HMWVf84mYSk-103" value="ram_addr" style="text;html=1;strokeColor=default;fillColor=none;align=center;verticalAlign=middle;whiteSpace=wrap;rounded=0;" parent="1" vertex="1">
          <mxGeometry x="630" y="1273" width="65" height="10" as="geometry" />
        </mxCell>
        <mxCell id="rrwpw1Hd3HMWVf84mYSk-104" value="ram_data" style="text;html=1;strokeColor=default;fillColor=none;align=center;verticalAlign=middle;whiteSpace=wrap;rounded=0;" parent="1" vertex="1">
          <mxGeometry x="630" y="1314.5" width="65" height="10" as="geometry" />
        </mxCell>
        <mxCell id="rrwpw1Hd3HMWVf84mYSk-105" value="ram_ena" style="text;html=1;strokeColor=default;fillColor=none;align=center;verticalAlign=middle;whiteSpace=wrap;rounded=0;" parent="1" vertex="1">
          <mxGeometry x="629" y="1355" width="65" height="10" as="geometry" />
        </mxCell>
        <mxCell id="rrwpw1Hd3HMWVf84mYSk-106" value="ram_wea" style="text;html=1;strokeColor=default;fillColor=none;align=center;verticalAlign=middle;whiteSpace=wrap;rounded=0;" parent="1" vertex="1">
          <mxGeometry x="630" y="1374" width="65" height="10" as="geometry" />
        </mxCell>
        <mxCell id="rrwpw1Hd3HMWVf84mYSk-131" value="rst" style="text;html=1;strokeColor=default;fillColor=none;align=center;verticalAlign=middle;whiteSpace=wrap;rounded=0;" parent="1" vertex="1">
          <mxGeometry x="405" y="1380" width="65" height="10" as="geometry" />
        </mxCell>
        <mxCell id="rrwpw1Hd3HMWVf84mYSk-161" value="" style="group" parent="1" vertex="1" connectable="0">
          <mxGeometry x="405" y="1370" width="50" height="10" as="geometry" />
        </mxCell>
        <mxCell id="rrwpw1Hd3HMWVf84mYSk-162" value="clk" style="text;html=1;strokeColor=default;fillColor=none;align=center;verticalAlign=middle;whiteSpace=wrap;rounded=0;container=0;" parent="rrwpw1Hd3HMWVf84mYSk-161" vertex="1">
          <mxGeometry width="50" height="10" as="geometry" />
        </mxCell>
        <mxCell id="rrwpw1Hd3HMWVf84mYSk-163" value="" style="triangle;whiteSpace=wrap;html=1;container=0;" parent="rrwpw1Hd3HMWVf84mYSk-161" vertex="1">
          <mxGeometry width="10" height="10" as="geometry" />
        </mxCell>
        <mxCell id="rrwpw1Hd3HMWVf84mYSk-164" value="" style="ellipse;html=1;shape=startState;fillColor=#000000;strokeColor=#ff0000;" parent="1" vertex="1">
          <mxGeometry x="1405" y="1730" width="30" height="30" as="geometry" />
        </mxCell>
        <mxCell id="rrwpw1Hd3HMWVf84mYSk-165" value="" style="edgeStyle=orthogonalEdgeStyle;html=1;verticalAlign=bottom;endArrow=open;endSize=8;strokeColor=#ff0000;rounded=0;entryX=0.5;entryY=0;entryDx=0;entryDy=0;" parent="1" source="rrwpw1Hd3HMWVf84mYSk-164" target="rrwpw1Hd3HMWVf84mYSk-166" edge="1">
          <mxGeometry relative="1" as="geometry">
            <mxPoint x="1465" y="1801" as="targetPoint" />
          </mxGeometry>
        </mxCell>
        <mxCell id="rrwpw1Hd3HMWVf84mYSk-230" style="edgeStyle=orthogonalEdgeStyle;rounded=0;orthogonalLoop=1;jettySize=auto;html=1;entryX=0;entryY=0.5;entryDx=0;entryDy=0;" parent="1" source="rrwpw1Hd3HMWVf84mYSk-166" target="rrwpw1Hd3HMWVf84mYSk-227" edge="1">
          <mxGeometry relative="1" as="geometry">
            <Array as="points">
              <mxPoint x="1530" y="1841" />
              <mxPoint x="1530" y="1841" />
            </Array>
          </mxGeometry>
        </mxCell>
        <mxCell id="rrwpw1Hd3HMWVf84mYSk-231" value="trigger" style="edgeLabel;html=1;align=center;verticalAlign=middle;resizable=0;points=[];" parent="rrwpw1Hd3HMWVf84mYSk-230" vertex="1" connectable="0">
          <mxGeometry x="0.25" y="-1" relative="1" as="geometry">
            <mxPoint x="-10" y="-11" as="offset" />
          </mxGeometry>
        </mxCell>
        <mxCell id="rrwpw1Hd3HMWVf84mYSk-166" value="Init" style="rounded=1;whiteSpace=wrap;html=1;arcSize=40;fontColor=#000000;fillColor=#ffffc0;strokeColor=#ff0000;" parent="1" vertex="1">
          <mxGeometry x="1360" y="1821" width="120" height="40" as="geometry" />
        </mxCell>
        <mxCell id="rrwpw1Hd3HMWVf84mYSk-168" value="Reset" style="text;html=1;align=center;verticalAlign=middle;resizable=0;points=[];autosize=1;strokeColor=none;fillColor=none;" parent="1" vertex="1">
          <mxGeometry x="1430" y="1730" width="50" height="30" as="geometry" />
        </mxCell>
        <mxCell id="rrwpw1Hd3HMWVf84mYSk-169" value="bit_addr" style="text;html=1;strokeColor=default;fillColor=none;align=center;verticalAlign=middle;whiteSpace=wrap;rounded=0;" parent="1" vertex="1">
          <mxGeometry x="405" y="1241" width="65" height="10" as="geometry" />
        </mxCell>
        <mxCell id="rrwpw1Hd3HMWVf84mYSk-170" value="bit_size" style="text;html=1;strokeColor=default;fillColor=none;align=center;verticalAlign=middle;whiteSpace=wrap;rounded=0;" parent="1" vertex="1">
          <mxGeometry x="405" y="1255" width="65" height="10" as="geometry" />
        </mxCell>
        <mxCell id="rrwpw1Hd3HMWVf84mYSk-171" value="done" style="text;html=1;strokeColor=default;fillColor=none;align=center;verticalAlign=middle;whiteSpace=wrap;rounded=0;" parent="1" vertex="1">
          <mxGeometry x="629" y="1241" width="65" height="10" as="geometry" />
        </mxCell>
        <mxCell id="rrwpw1Hd3HMWVf84mYSk-172" value="LOADER" style="rounded=1;whiteSpace=wrap;html=1;fillColor=#fff2cc;strokeColor=#d6b656;verticalAlign=bottom;labelPosition=center;verticalLabelPosition=top;align=center;absoluteArcSize=0;imageWidth=24;" parent="1" vertex="1">
          <mxGeometry x="396.25" y="1460" width="490.75" height="200" as="geometry" />
        </mxCell>
        <mxCell id="rrwpw1Hd3HMWVf84mYSk-173" value="" style="shape=image;verticalLabelPosition=bottom;labelBackgroundColor=default;verticalAlign=top;aspect=fixed;imageAspect=0;image=data:image/png,iVBORw0KGgoAAAANSUhEUgAAAJcAAACLCAYAAABsiwuZAAAABHNCSVQICAgIfAhkiAAAFo9JREFUeF7tXQd4FEUbfukkQuj4ixhq6CVAqKEjJdQAISY0qYKC0osCgoIK+CsqIIICAeklEDqCQoAEhRCQgJRQgwKREloSivr/803cY++yd7t32Uv2kvl48pCdPu+8mZndfefbbP9jBmECAScgkFOpzIfJz3AgKg4Hjl3BiTPX8ezZ30rJRFgmRiB3rhyoVaUEmvuURpM6nnDPm8vu3maTz1x/3kvGqu2n8GNkLCqXfxGNapVC3ZqecHOgYLtbIjIYCoHkx89w9Nc4RB6/ijMX49HW1wu9OlRDIQ83ze00kSs+IRmDp2xG8wbl0bVNVRTIr70QzbWJhC6JwP2Hydj0w2mE/3IBS2f4o3ABbdwwkeuLlUfxD9t99evu45IAiEY7H4HloVHInQN4K6iupsqyU6qHSc/w0+FY+LeuqimTSJQ1Eej8alXsjohFEtuTazFOrgPRcahU7kUUtGM91VK4SJO5ECB+VGF78YgTcZo6lkKuqCtoWLuUpgwiUdZGoAHjSfjRK5pA4OSixw31qntqyiASZW0EfKp6Iur0dU0gcHLRcyw3N/ufY2iqQSTKVAgQT55qfO7JySVMIOAMBAS5nIGqKJMjIMgliOA0BAS5nAatKFiQS3DAaQgIcjkNWlGwIJfggNMQEORyGrSiYEEuwQGnISDI5TRoRcGKMmcBi0BADYG7yepHL8TMpYaiiHcYAUEuh6ETGdUQEORSQ0jEO4yAIJfD0LlGxtmL9uF2QmKGNFaQK0NgT79Kj7DjYaNmhGH7vt/wD53ASUcTd4vpCDZVRQfcVy5bgoPh++Du/gL6DhiEWnVSTtN8Mn0qOvl3Y/FLcfPGdfh17IzA4N6mFu7avgU7t2/F3Tt3UN6rAoaNGI2ixYqr9oDOIC7dcBThRy5haHBDlPUsoppHjwRi5tIDRTvKGD18KLaFbULf/oPQtEVL9Orhj5iTJ3gJyxYvwog3B6Neg4boGhCISeNG4cC+H02lx54/h/aduuCd0eN4mL/fq/j7b+2n4S/F3cHET7dzohHhnG1i5nI2wrLyr165jA3rVuH81Xi4ubvzmN+vxWHJwgWYM38hvx45dgKbvbrz33+OjEA4I1fTFq349dujxjFJ+jP8GX+Tk3P9mpW4wAhXsXIVHq/FaGmkJfKXE1cxMLAe6tZw7OzErI8+UK1OkEsVIv0SnDv7G/7+6y+82qQ+/kf/2BKZ+OgRqlStbqqkHFvuJCtSpAhuXH9+GOLjD9/H6u9DULa8F9zd3PHo0UNONHvIpVdvZgty6QWlPuUULFgIhYsURcSxGKsFZsuWzSxOckJ07sxvfNmMPn0BL+TLx9NULVeSbdL/sVqWUkT27Nng16wygjp6p8kHyIRJU5WKNwsTM5cqRPolqOldG7lz58bypd+yZW0wL/jJ48e4efMGSpUuY7OipKREEPFy5kwZsrDQ9XzTb4/RRl6vDf14QS57oHd+2jx582LZmo0YNqgf5n3xGfLn9+AEmTxthiq5vGv7oH5DX/hUr4BixV9EyVc8NS+H5KWIZiqasWjmSi8TM1d6If1vPdVreOPAkRO4ffsWkhIT8VKJl5ErV8qZ0bNXbpi1ZszEyaZrmrWWrd7A9mB/8BnsPy+V0NTyeswF1oAe9VC00Aua0uuZSJBLTzTtKKto0WJgD6nsyJGSlMhoj41/o4U9yXVNK55z6QqnKEyOgCCX4IPTEBDkchq0omBBLsEBpyEgyOU0aEXBglyCA05DQJDLadCKggW5BAechoChH6Leu5fAO04vfNPbrsVd5aqFAgULokCBguldvc366JXR06dP4f7CC+APYw1qhp65Pp/1Mb76bLYu0JFUhV65aLX6NSth+JAB2LVtC8+y/8c9eHfsSHTr2AZff/W5WTGksZo5YxratfBF7SrlENC5HdNiHTKlIUFf57YtUv0smDtHsTlEnEnjR6NO1fJo6VsX27dsMkv36cfTEejfHhNHv6OYX0sg6epJX+9MM/TMpWfHP/pgCipXrWbXX/o3i5ejxMsleTN+PRGN/B4efDa7GBtr1jRSNpDob8oHH+Fl9kKZyNCjix8OR5/mL5izZ88OuUSFyNYr0B9DhimTY8bUSYg68jNCt+/B+XNnMLBPELbvLQN6L0n22dwF+GbeFyzNL3ZDRGLBneFnsGbbCaerUQ1FruSkJHzx2SycOX0KjRo3SaVVor/oRV9/heioo/zF7dDhI+BZqjQHeMrEsXwA8+XPz69pgHPnyYPWbdtzgd2DB/fZjDOHa847d+2Oewl37dKjjxgzgZc7ftTbXPAnN6pz3sIlpqBhI8Zg6XcLOUGIXPSi2bdpc1P8D7u2c7FfG7+OPIyISYQj2Q39vyJkMZauXMev6adDJ398v3QxZs+Za1avvRckc/5m9WHQ/+lhhloW+/XsgdhzZzlp7t69izUrlplh0L9XICIPHsDAN95E8eLF0YotGbf+jOdpFs7/EqR5kiyCpTvy82F+Wa2mN/LmyYu69RugVZu2fMDTqkc3VaTwy507t/EHI0z5ChUVYsHIswSBPfuY1BBzZn+CT5jKlIyIdv/+PXjXef6ZnFrs91P/6uwVC1QJlA5okH4+vYhFTTLMzHX+7BkcjjyIs5dv8I1qo8ZNcYidkJGMSBe+by9+u/QHPDwK8JngGJvBQtgMMe69lIGxhjEtJzSL1a3fEKSLItNDj65U319sVhvavw+6BQajWvWaqZLQvu+Hnduw/+doU9wbb72Nv/5OmQ2JWGTUR8nohub+vZTwVAWqBBw9GYfF647ofnaxiLv6vGQYcl26GIsyZcpxYkkmH5yLLL5UqTJmoNf0roULsedV4FWOdoYenZa0oQP68D3WnHkpBy4sa1+7cjlqMEVqpcrPv7Mk18C75U35IhhtESQsEtmMnNdN25fCLOvLyGvDkMuD3e5Lf7USIHQt7aHocYD0aEKKT0hIYI8KUh5T5GLyYbprk4wOL0hacwqTa9P10qPLB4607MPf6A9aEtds3MrlzEq2cvlSvuxbM9pDkniQ/pikDTzdQNA5RUeMTvdUq/AS38DTRj49D8aqz22O9MiBPN616oD+Wn/au5vn/uP3a9jNlg/JSH9OM8O2sFAeRHut0PVr0LqdH78uW7Y8Ig8d4L/HM0367h3P81JY4cJFcP2P33m8Hnp0XtC/RsR6e+hA3uZV68NAcmYlow1+3NUr6Nr9NbPovT/sxM5tYTyM8rZq48ePm5ERWTdtWMtvQhw1kjn3D6iLmeM66HYg9k7SP1D7MQy5aAmY9y37q2b7FTp6FdytExo3fa6ipPhvQ1byZ03NG9RGo9rV0LvfQLzKBoJs0rTpGD9yOI8L7t4ZDX2bmI3FCHYecOKYEahcpgR+OxVj0qPTc6SN69ao6tHpUQbtMxYvnI+QxQv57x9OeZfXQZtwuvmIOBiOkkXz8Tj6occFcqONfOeuAfyRhtx2bt2CsNANpqBZn3/FbkYi4VPNi32TqSI6dumGDp27muVx5IIOaBDBiGjp8fVf/jHPlgNCsGH+6460V/c8tLTRYL3iWcp00kVeCT1novji7JCC5QzxODkZN9jTa7p9p32PmtnSo5co5IYF7DkX3QConcxRq8eReOonHaIlIhZhx9HkdvzYUaxesZwd67+N75avdqR4vsFfsv4IHJFBBwxbpokvhtlzSQjRfqNM2XJWAaO9ExFPyWjTayuvZR5bevT+g99kM9EBvpHOCHJRP0uXKWvZZH5NbwvIWr7aRjFeSyAd2HCEWFrKltIYjlz2NN6ZaT+abf6Kx5l12Vv2qPHv2ZslQ9Krrx0Z0ixRaWZAQJArM4yiQfsgyGXQgckMzRLkygyjaNA+CHIZdGAyQ7MEuTLDKBq0D4JcBh2YzNAsQS4DjCK98yQhJBm9n5S/gDdA8xxugiCXw9Dpl7F9qybsfedJXmCrxvWYjOicboULP/S6QSkKskRA+KG3RCQTXpMsZxXTcpFygpa9Fq1ao9frA2z29MmTJ+z00yyuyiXlrfBDbxOurBtJeq9V7KBIQFBP9B80JJUw0hIZEkr2YEfUHjx4gEZNmvHotOr+hR96S5QzwfXlSxe54C8mNs4kn5GfBrLsIh3IHdy3J14fOBiD33zbFK2H7l/4obdE28Wv6ewhyWcsdVnWujWkX28uhJQTi9I6Q/dvrQ1q4cIPvRpC6RRPEmv6Xo9W+/TL+Zg2aQLq1K0H/+6BPJteun/hh17rKLhIuho1ayEv08bL/c/fvXuH6/qVrGr1GtjETluTWwA6zf1ar7666P6FH3oltF08jOTYdIL6jf69+anvPLnzcAcnW3Zb99XgVbESwnb9hO7MN0VSchL6DRwi/NC7OA+c1nz67N3Rk+f4Rw1IHy+XWJ84e9lUr9wXPe3TjrHPsUgm/NA7bXgyR8FaP05grbe2dP9KeZytk1eqUwoTr39soSPi0oSAIFea4BOZbSEgyGULHRGXJgQEudIEn8hsCwFBLlvoiLg0ISDIlSb4RGZbCAhy2UJHxKUJAUGuNMEnMttCINP6ilDzYa8Wbws0istoP/Wu4Is+085caj7s1eLVyGXpp57SW/NVr+anXqkuvXzRZ6SGPtPOXEoDpneY3E89lW3NV72an3qldunli5409DHnbogPqCuBLA+zpSFX82GvFv/J9KnMe58/81m/DAlMDvPNku/t1qxb81Wv5qee+uhMX/SSq/DwI5cwNLihbq4r1cbLpZZFWxpyNR/2avHLFi/CO0MGorZPXa5zJ7NVnxqwtuKV/NQ72xc9tUdo6G2MijUNOXnhs+XDXs3HvVTlsJFj0COol6kF1uqTu/a20VzFKGt+6p3pi17eEL009C7lh15xJCwCrWnIExMf2fRhr+bjXqqmUpXnvuEpzFp9jpLLlp/6zOiL3mU29LY05Go+7NXiJXLlzPkcDlv1aflDsEyj1U895dPbF728LXpp6C37p3TtMnsuW77j1XzYq8UrAWOrPqX0tsK0+Kl3ti96ap+ersLVfNBTvMvMXOSyu35DX/hUr4BizE04fRxKWkrkPuw9mZvwp+yksqUPe8nHvVK8EjFs1aeUnsLIV/3nsz4yRZO/erqD7McOwUofySI/9ZKRU9+hw0fyS/JFT8u7X8cu/Jp80b/m34H7ok9gH9kKYHtBR33Rk8/5oI7e8GtWmblQz2aq39m/GM4PvVqHbfmOV/NhrxavVLe1+tLDT70evujpIeqAHvVArsH1Mpf1Q68GgC0NuZoPe7V4pbqt1Zcefur18EWfkRp6l1kWlQY+I8My2k+9K/iid5kNfUYSSdTtGAKCXI7hJnJpQECQSwNIIoljCAhyOYabyKUBAUEuDSCJJMoIdJsYAvqRzPJakEsZNxGqAwKCXDqAKIpQRkCQSxmXLBdKby9ItaGnGfIh6vAhAxDHPsFL5ubmDnKG9taI0ShatBgPM8UzHRe5gmzSvAX69h+s+Nni6e+/h/PnzmL5mo2gJ96SURl0yILCCxQoaAonj37RUUfw5dffoky58qZwy1/kbShWrDj/amtwn36mzx8f2Pcj5s75LxMcnoWHRwH4deqCUWMn8i/PytvA+2nRD3rRHdCprWWVpuvR7GOezZk3aDJr/bOaWSGCXjPR2wvJ/mJEyym7VsiiKciQ5DoedRRdugWgZeu2SEpMZB8i/xL9ggOwbU8475Q8nuTBUyaOxZ1btzDuvffNOp2QcBeLFszl5Ik4sB+Nmz3/IDuVcfv2LYSuX8O8Kw/l+cjb39pV33OZ8yP2EtmWydtADnUnTxjD85PAMCx0Pch784effIo27Tpwn1yTxo/Gz5GHELrtB+TIkYMXba0fYyZOxoRJU03V9wr0x7h3p4DUHWQVKlXm/9vqnymzhl/kf3SUnMithxmSXNSx0uw71z71GvA+kuqhU5vmZv2V4inN5YsXsHvn9lTk2rBmJXwbN+O+RVcyN91yclFhAa/15Jp5iVyUvpN/d6wI+c6sLmsX8jZcvXyJae63cpXDxDEjMHnaDO4NkKzEyyWxbvMOeFcqw8ksV7ta64fc23OunLlQrXpN7otebmr9s9ZutXCayfQww+65bv0Zz0lzKuZXfPfNfDRvmbIMKHX6IktX5N8lUx6/ankIgnr35T5Ft4WF4iHz6S63+g0bgc4vxrJlk4zS9+zzulIVqmG3b9+Gm7s7Yn49jj/jbyKwZx+zPPk9PNCeHQDZu3un1bKs9cNaBrX+WcsnhROJaJ9F0mu56UUuw85ctBQSeE+ePOakID2W3BZ9PRc7tobxUzMk7AtZud4snkh5le1n/Dp0BvkkrcX0YJs2ruV7M7kFMRKsXrEM3QKDOMik49JqO7dtwbWrV3CV/WxctxpLVqxF/M0bfKYtWLBQqmJeLvkKDkcctKsfqQr5N0Br/6zlp3BaDqUlWp5Ovi+0lV8tzrDkmvLhxwgM7s3bf5LNBu2aN0JEVIxpk02fLGnUpCl+PR6NkO8Wmm1IKc+KkCWozZbD49FRvIzqzKMykdWSXDSr+bVszIR6iejZtx9Pa4/RANGJoZFMFFi2vBcO7v8JdIyNzioSqeV2l81u+fLlNwtT64e1tmjtn7X8rYNmWItKFb5nzeRUYVoCDEsueePJ1XYBNhNEHztqIle1GjXRrn0n/kODOXbkMGzcuptno9PKG9euQjmvCviYqUMlI5LSEkiekiWj2aR8hYr4nu2zTp67YgrX8otfx86mPwApPc18ufPkwb6f9vC2SUab5PD9P6K3xfd+bPXDWhvs6Z+1MhwljLXylMINTy7aE+zYuhl32J0dPZJQshFjJ/DNcuShA/wjTJSe9ji79kWYJR/UN5h/f2fqjJlm4Z/OmQdSnBZljxTSalTvm2xTP5ndHXp5VeQEpz5MfW88Hj18iD79B1mtwrIf1hLa2z9r5Tg73LAb+nfYrTxJiUu9WAAzp0/DgsXLUamy+dEvCZxChQpj0JBhmDljGg+i5a9bYHAq7OiwKz1qsHxYSASwvJNMldmOgEnsTtE/4DW08PXhmv+yJQrj6C+HsXnHXsW9mFS0ZT+sVWlv/6yV4+xwl9PQOxsQPcunfRd9+ZVmMzpUkllM0tBLL61DZ/bjXbO8Nvyy6MoDQht62uRnVRPksjLy9FS9e0flVzAbt+1GWj9WYKXaTBUsyGVlOIk8EcdirMSKYC0IGHZDr6XxIo2xERAzl7HHx7CtK+yWDfu/7G/WPstrMXMZdvhcv2GCXK4/hobtgSCXYYfG9RsmyOX6Y2jYHghyGXZoXL9hglyuP4aG7YEgl2GHxvUbJsjl+mNo2B4Ichl2aFy/YYJcrj+Ghu2BIJdhh8b1G8bJlTtXDiQnP3P93ogeOB2Bp0+ecb5oMU6uWlVK4EhMnJb0Ik0WR+DYqWvwqVpCEwqcXM3rlsbh6KuaMohEWRuByOgraMb4osU4uZrU8sTZS/G49yBZSx6RJosi8OhRMk7FxsPX21MTApxc7m650KaRFzbvOa0pk0iUNRHYsvc02vp6cb5oMdPdYs/21RD+ywUsD43C/YdiBtMCXlZJk5iYjFWbo7An8gKC/Kpp7jY/WialTmDL4uodp7DrUCyqer2IBt6l4FPDE/TtGGFZCwG6KzwWcw2Rx68g5nw82jX2QjCbgAp5PPcvpoaIGbmkxEmPnyEiOg7hUVcQdfo6nj7T1+OcWqNEfMYjQI8b6K6wmU9p+Nb2hLsDE4wiuTK+a6IFmQGB/wNZDUXjkzyIEAAAAABJRU5ErkJggg==;" parent="1" vertex="1">
          <mxGeometry x="159" y="1498" width="151" height="139" as="geometry" />
        </mxCell>
        <mxCell id="rrwpw1Hd3HMWVf84mYSk-174" value="" style="endArrow=classic;html=1;rounded=0;exitX=0;exitY=0.5;exitDx=0;exitDy=0;entryX=1.009;entryY=0.209;entryDx=0;entryDy=0;entryPerimeter=0;" parent="1" source="rrwpw1Hd3HMWVf84mYSk-182" target="rrwpw1Hd3HMWVf84mYSk-173" edge="1">
          <mxGeometry width="50" height="50" relative="1" as="geometry">
            <mxPoint x="531.25" y="1629" as="sourcePoint" />
            <mxPoint x="320" y="1520" as="targetPoint" />
          </mxGeometry>
        </mxCell>
        <mxCell id="rrwpw1Hd3HMWVf84mYSk-175" value="" style="endArrow=classic;html=1;rounded=0;entryX=0;entryY=0.5;entryDx=0;entryDy=0;exitX=1.001;exitY=0.359;exitDx=0;exitDy=0;exitPerimeter=0;" parent="1" source="rrwpw1Hd3HMWVf84mYSk-173" target="rrwpw1Hd3HMWVf84mYSk-183" edge="1">
          <mxGeometry width="50" height="50" relative="1" as="geometry">
            <mxPoint x="306.25" y="1546" as="sourcePoint" />
            <mxPoint x="581.25" y="1509" as="targetPoint" />
          </mxGeometry>
        </mxCell>
        <mxCell id="rrwpw1Hd3HMWVf84mYSk-176" value="" style="endArrow=classic;html=1;rounded=0;exitX=0;exitY=0.5;exitDx=0;exitDy=0;" parent="1" source="rrwpw1Hd3HMWVf84mYSk-184" edge="1">
          <mxGeometry width="50" height="50" relative="1" as="geometry">
            <mxPoint x="391.25" y="1590" as="sourcePoint" />
            <mxPoint x="308" y="1587" as="targetPoint" />
          </mxGeometry>
        </mxCell>
        <mxCell id="rrwpw1Hd3HMWVf84mYSk-177" value="" style="shape=image;verticalLabelPosition=bottom;labelBackgroundColor=default;verticalAlign=top;aspect=fixed;imageAspect=0;image=data:image/png,iVBORw0KGgoAAAANSUhEUgAAAJgAAACzCAYAAAB1qdXUAAAABHNCSVQICAgIfAhkiAAAHEBJREFUeF7tXQdcFMf3fyZYwC6Wf4zBSmIXFYyK3ViwoiJijdgTk9hLLIkaY02isURJomDvXcROsGBDLNgRBfIzxljQKBJr/vOG7LK33t4Wbu9uj3l+/HA79b0335ud3fvOm2z/EgEmzAM6ecBFS7uP017AoZhkOHQ6Ec5e/gNevHilpRlWx8AeyJH9bahesTg08i4F9Wt6gFuu7GatyaZmBvvrYRqsDr8AB6LjoUK5YlC3eknwqeYBrhKNm+2RJTqFB9L+eQGnziVD9JkkuJxwB1r4ekL31pWhYD5XE/sUA+xOShr0n7gVGtUuBx2aV4L8eU0bcgqvMSM0eeDR4zTYsvciRJ24DqFT/aFQ/gxsKAbY3FWn4DVZrfXu5K1JCVbJ+T2wfHMM5Hgb4NMgH97Yt5SY/fjpCzh4LB78m1VSUpyVyaIeaPdRJdhzNB6ekjU6J4oAdig2GcqXLQYFRPfXLOpHZraEBxAfFcna/OjZZJUAi0mEOjVKSjTLkpkHMjxQm+Ak6lSiOoDhq4haVTyYH5kHZD3gXckDYi7+oQ5g+J7L1dX8ew7ZHlmBLOUBxMlzwXtRRWuwLOUhZqxVPcAAZlV3ssbEHmAAE3uEXVvVAwxgVnUna0zsAQYwsUfYtVU9wABmVXeyxsQeYAATe4RdW9UDDGBWdSdrTOwBBjCxR9i1VT3AAGZVd7LGxB5weZD2L3QcG0bTN8/oTf+Kr2kiE+YBDR5gM5gGp7Eqyj3AAKbcV6ykBg9YBWAvXryAV6/YziIN/nf6Kpq2rQm9gtsqs2fPoPK8JGBzEVwr8eBnA/tAcuJNWtTV1Q0qVakKnw4ZDoULF6FpfH62bODuXhjqN2oMvYL7g4vLm+p/89U4uHb1CixfuwmykfKcYBu/JyfR9Pz5C/Dpk8aPgdiYk/DjT79A6bLl+HTxB6EORYoUhSYfNYeuPXvDW2+lf0cPRR6A+XO+g/hrVyBfvvzg17Y9DBs5FnK5ZmyAkLLj9evXENC2hbhL/nr46HHQqGkzei1ln2RlO2e8OUIqFRIOIlZFZ6mVMzGnoH3HAGjSrAU8TU2FxQt+hN5dA2DnvijalDD/f78nw8SxI+H+3bswatxXJl2lpDyAnxfNpwA6eug3qNewMZ+Pbdy7dxc2b1gLwf0G0fQHD+7DutUrIIX8fZL6xKQt8YVQh5s3EmDCmBG0/ufDRsG2zRvg80F9Ycr02dC8ZWv48/YfMH70cDgefQQ279wLb79NdkIQkbJjxNgJMGb813yX3QP9YdSXE8Grek2a9n75CvSvJfv4yg72IdMAE9ujdaN4qTJlwbtWbdqcW+7c0LZ5I5OmuXwsczPhOuyJCH8DYBvXrgLfeg2hpk8tWLUizARg2FhAl26wZsUyHmBYvq1/J1gZ9qvYDLPXQh2Sbt6A3eE7YNBnQ2HsiCEwYdJU6N13IK1X/N0SsH7rLvAqX5oCunNQd749KTt8GzTiy2R3yQ6Vq1QDYRpmytnHN+BAHzSvwRBIuO56+fKliTlaAXb3rzsUOBfizsGvixdCoybptwRzvkog5dz/u30K81cvD4OgHr2gS/desHPbZnj8998m1T+sUxcePkyBeHILRcHy3Xp+bK4L2bR79+6Bq5sbxJ07A3/d+RMCu/U0qZM3Xz5o1c4f9u+JkGxLyg6pCnL2SdWzZ7rmGQxvjdzULzRAuOZQYxjeFtGBz579Q4Gx4JdQk+o//zQfdu3YBniLfPo0FcJWbTDJR2AmkXWcX+t2kDNXLqhewxu2bFpH12pCCSJAWLNyGXQMDKJfDi9STqlE7NwOvyclQhL5v2n9Gli6ch3c+fM2nXELFCj4RjPvlngPjh09rMqONxr5L0GpfVL17ZWuCWDNgqYq1nff2gmKyk6cMg0Cu/agZc+TWaFlo7pwNCaOX3jXrdcA6tZvAOfOxELYryEmDxZYZ2XYUqhBbo1nYmNoG1WqVaeAFQMMZze/JvUglaz1uvXqTcuqEfxi1fD2gaEjxkCZcp5w+LeDkPb0KTz75x8KbKE8ILNcnjx5TdLk7JDSRal9UvXtla4JYEpBo9WoqgQc+cmMEHv6FA+wylWrQctWbel/HNCRQwfDph17aBfPnz+HTetWQ1nP92Ha5Il8twhUvB16flCeT8NZpdz7H8AKsu46fzVRlYp+bdrxXwKuIs6AOXLmhMiD+6hunODDTtRvB6DHx31M+rBkh5QyauyTasNe6ZoApqeyuK7btWMr3CdPfPi6wpwMGTmGLqCjjxwCnBGwPK55dkceNSner1dXWE0W+19PnWGSPnvOArj9xy0oTF43ZFaw30/IQn8CeWr09PyAghxt+HrcaHjy+DH0DO4n2YXYDqmCau2Tasce6ZoX+dZW9gvymF+8oCuULJYfZnwzCRYtWQ7lK5gPVVCwYCHoN3AwzJg6iaqBt8KOgV3fUCkgqBt9DSF+CYwgEL7CeKOiyoTx5AnSP6ALNPb1Bu8q70OZ4oXg1IljsHXXfrNrM655sR1S3aq1T6ode6Rnu//09b/iH7fF1wGDl8HGhdqetuxhlL36xHXYrf/9TmfTIkWL2UsNu/eLeDm4tDfVw+FukXb3TiYUwEU+LvyZZHiAAew/X+Db905tzP9cs2nnHvi/d4oz3GjwAAPYf05DAB09HafBhayKJQ84zCLfkpIsz7geoDMYx2TlzBBfG9c8prm9PcBmMHuPgJP3zwDm5ANsb/MYwOw9Ak7ePwOYkw+wvc1zitcUyPFCMUeZwXS5fLlBQKo18tzyFyhgQreWq2etfHxHhz94Iy2Io5Fbq22929FtBpv1cyTcS0nVW3/a/g8zp8G872dJ9iWXL1nxv4wPq5Wn+wJ2Ez4YJ78d2AdfjhwKHds0h5/m/cCn4wYY/I20ZWNfqFGxLAS0a0mp05YEwYMU65qVykETXx8I377FpPjsad9AoH8rGDv8C0vNOGSebjPYSXLMSNzV2xDUxgv8GlYgmyMyNmA4pCdklFpMfnxHKjQn587G0t8ccWZLiI/n0/H3SLpvYPK38O57HhQsndv7wbHYi1CCXJuTqV+Ph5iTx2Fz+D6yYeUy9O0ZBOH7S0OVql60+PfzF5F9CnNJmRPmqjt0mm4AQ6vxPJvQjacg6uQNGNS1DpTxcFfsjN3h2yGCcN4f3L8P5Qj7YTDuMvqPXoN8sLnfz4TLFy8Quk79NzaayOVP/+ZraE3ozMjPxw0fi5euIPx66f7MKT2EEA5RRg/7HF4JaON58uaFBSFL+SqDh4yAUEKQRABxAEMAIsOjZKnS9O/KsCUQumo9vcb/rdv6w4rQJTBrznxzXRsqTbdbpNALN5Lvw9jZ4RRsCDolEn/tKrQiW7++GD6KFvf3+4in3fTu1pkSCQd9NoTs7HkAawkFWihy+cuW/AxfDOxLmalI6UGx1J9J4yov7t+/B7cIoJDkyMmcWdNh+pT0HVEItkePHoJXzQzqdnXy+cL5syp7csziLu5u8hhrHGzKj9diymty0FF45CU4cTYJ+gbWAp+q5m8XXNu4HQzXM7ihohch7W0gO4CuE9AhZflY9GG4cjOdC4+EwyNRkbxK165ctpjPFRw8dITJbh+p/j6oUFGLubQOcv4HBfekXDXcJcTJgE8/h5ev0jfLILhQcC8lJ/iw8uhhejqfaNAPut4iM+OTaeQbvoawUZH+4kY24z558piCLZXsXyxduix9ouJEOHg3EuIt5nN1ylc0JTNK9acVYHjrG9SnJ92YO2dBiIkrhG265krfmIu3dc6mVLKpRevmmcz4XI+6NgMYLvJxsY+LfrnzJa9evgR4G4u9eB1y58lD7a5UtgRda+Ujm2q5bz3nELzGtQ+KXD5XR7gr3FJ/XHk1f1HPzwYEA94e127aATly5JCs7lGyFN3AkkC+GNyiHh8acN3pDPIWYbSC3P/MGoqL+xmjWkNwgI8suLAv3JaGt0IOBLhzGt8FoeBuZ/y2H9yfvuEDGaR7InbyKsrlm7PFUn/myltKQ3DhLm/Ua/WGbW/sNMK6+/dGQMTObbQZJCk2be4HS0MW0WsE5ZaN66Bdh0702uii6wyGM5WW1xS4U+fDOr6U347UY3z64m4reBvBPZO4tvEgT1zPnz2Deg0yQgTI5ZsbMEv9mSuPad+S3Us/zPyWzw5bEgL4ZNm730D+oaNE4fTZl5af9QPdBY4SsWM7vdX7tWlPr2f+MA+6+LcG78qe5Kn2AXnw6E6ecjvQPKML5eTLGaGFk48vWvt0rgWFC2asleT6Eefjzh+cycyxSfEBAJ/A3vMoaTYIily+uC+8luoPN6PgJhQEIr5G0EPwfRpuHMZ3axjgRShnyPa9NSuXk1c29+DX5Wv06N6qbdqEkz96QMasolX7d4q/K1kV1y2lSTwLKZHLN1dPqr/g/p/A0cOH6MJbL4DhF6lU6TLm1AL81QAFI/oYTXS9RRrNGVL64u3NnjKMhG8yqsi/BDOqZUxvh/AAA5hDDIPzKsEA5rxj6xCWMYA5xDA4rxIMYM47tg5hGQOYQwyD8yrBAOa8Y+sQlhkSYH/c+h/lqKPgb3741p6JY3pAN4Dpyclv1bQ+XLpwnnq0ab1acD3+qmN6l2kFugEMOfnDpm6jJEMkGzLJmh7Q9aeizHDykfayenko+Q0wit4CG5OTLrqL4p2Kh+wZYVbMI1x9ZLlijHm1PHtxe+w68x7QbQYTqqaFk4+cKoyvipz5YEKBEZMMxaZjfmeyRexvEgK9bv2GNFsvnr24b3Yt7QGXmd9Ols7lc0opKGO5iBpOPh7VgqS7uPhknroiPvVC2BtujO3fqxt83Lc/9P/kcz5LD569ZStZrtgDLrMUAMwamz7EHVu6xr2BSF0R86Kk6gzs3QN69O5rAi4sa22evVT/LF3aAy7CQ5ikip1MZytLZStKV8PJL1TIne6HVCqzf1wIeGoanlHk3ymQVrM2z16pLqycqQdcRgtO+ZJyDjIUMyPIyVez8RYPYshFuOrLQ3/hT+rAk80QeOYE4+lvIbuicZs+7qzG0zysybM31ydLU+YBXZ8itXLycSME7nQeENyDxH2YAzlz5KSBR7bvydj/KDYPT/PYtvsgCeTbHJ6mPaUnn0nx+sV12bV+HtANYLWqeWSKk1+9pg+cOn+V7iZCvrqQznz2yk3eI1cSb/Ofcd12mmx142TZmo2SPHv9XMpaFnpAN4BZg5OPiprb8KFmCKV49mraYGW1e8Am78G0q8dqGt0DDGBGH0EH158BzMEHyOjqMYAZfQQdXH8GMAcfIKOrxwBm9BF0cP0ZwBx8gIyuHgOY0UfQwfXX7UWrte0Wx7pHXj4GBbYU3E2JDvaOgW9JRyPHx+fs0m0GszYnXxzrXsjLtzRIcnnWjIGPYTPbtWj8xv9F8+dIqmEpRr6R4+NzBus2g+kdJx/jZJXzzIjcLDmCCjKsFQMf47EK6U8IuO6B/jBwsPQBCpZi5Bs5Pr7uAMMOMsPJl4t1H7l/L/0BHGOzYtz7tv4dYdWyUPrjuF+bdhDYtQcPLbXcfK0x8DHGl5B5u3d3OA1g3NyvDdVFGB8fr509Rj7aqNstkh9d8kELJ18u1v0qsiHk7l93aDcYMHjIJ/2hVu060CEgEMaPGgaHIg/wKujFzTcXA19o98qwpRDYrScN8osijI+P184eIx9tdMg4+Upj3QsHc+jIMWQWSw+cezz6KEQRgDVo3JQW0YObLxUDn9Pp3r27sJcEJ/7teCyvpjA+PiY6e4x8tFG3NRjvVQ0flMa6FzZdVhD2293dnfDAMnje1ubmW4qBz+m0btVyqOpVA8pXyIjHL4657+wx8m0KMDWcfKWx7oUAw/WPUJCkiGJtbr7SGPh4C8ejbiyJs8fIR9sdMk6+llj3UgNpTW6+khj4qAcefJWclAgdOnUxUUsYHx8znD1GPtqo6y1SKydfS6x7KYDZOgY+6oGL+3YdAmhIcqGI4+NjnjPHyEf7HDpOvpZY9yYjKriwZwx8KZ24dKkY+UaLj8/ZY5g4+Vpi3UsNphQ33xYx8KV04tKlYuQbOT4+Z5uut0g5xzpCvr1j4FvygZHj43N22eRFqyUnsjzn9gADmHOPr92tYwCz+xA4twIMYM49vna3jgHM7kPg3AowgDn3+NrdOgYwuw+BcytgmPdgYk6+LYeF8fa1e9vmM9i9lFRAvr5aEXPy1dYXll9DggsjX0upiHn7+Ib9y5FDoSOJRfbTPNPDSvHnrRlTJ0HLxr5Qo2JZGhTvePQRviu1vH1LnH1s1NF5+zabwTAIcETUZVi78yylUttT8ED3CpUqQ+HCRRSrIeTtnzsbS3/Ixt8QE+LjTdrACIvIVJ04+Vt4lxxmH759C3Ru7wfHYi/Sw+3V8vYtcfaxY0fn7dsEYEiZXrzmGKVOKxU5Tj5+s3/+aR7ExpyiMcSQe4X8KpSJY0fSzRfI10fBQc6RMyc0a9EKcPb6++9HNHIibntr16ETPEx5ABHhO2hc2HKEuDh4yHCaJyVSnH0sj30uCFnKVx08ZASE/hpCKTwIMDW8fWfg7Ot6i+Q2fYydHa4KXDg6cpz84O6BEE0Oau874BMoWrQoNPX14Tn6IQt/pDFaOcED3U8eP0YvK1fzglw5c4HPh7WhafMWdND14uxjf5nh7TsDZ183Tv6p88mwZP1JwDWXWpHj5MdfvUI49/vh0o1bkC9ffrqT5zSZycLITDFq3FcWu6tS1YvOZj4f1gHkiqHowdnHdjPL23cGzr5NbpEWR9xMphwnPyEhHkqWLE3BxUk1r+rkUKxrZlqTT7I2Zx97tAZv3xk4+7oBzKeqB1R+/x26qMfFvZoDseQ4+fnzFwDutQUHn5SUFBKJuiC9zJ4jh8kRf0+ePIbcefLwSBPy963N2cdOrMXbdwbOvq6cfKRMBwf4wIxRrQFj5SsVOU5+NbJbB2eInds20yZxf+TmDWuhWUs/el2mTDmIPnKIfr7z523Ys2sn/cwJxtvH2BYo1uTsY3vW5O07A2df10U+N6AILgQZgg1BJydCTv5H9T+Erh3bQr0GjflqmP9L2Cr6LqpR7RpQt0ZlepTMR83TATZ+0jcweuhnNK9rp3ZQx7e+SZdDyB7KsSOGQIXSxcm5k3F8PP0m5EFh0/q1IN5eJtYXX3O4u70FS0IWQtiSEPp5ysQvaTFcmK9duYyeEleicB6ah/8XL5hr0owl3v62zRv5ssjZP3k8Grwre0KtKh9Am/YdoXW7DmKVHPZaN06+lMW46F+64SQoCXMux8nH91A4oEWLFqM7dITyT1oa3CZhBEqWKk3fPcmJFGcf6xUv6AqLliynDwXYnq1FirOPejgib98mnHypQShcMLcicGF9OU4+rqXe8yhptqtcrq5QukxZs3nmEqU4+1jW3rx9Kc4+6ubovH3dFvnmBtGoaYy3r33k5O8d2ttmNZkHbBNdh/k563qAzWBZd+xtYjkDmE3cnHU7YQDLumNvE8sZwGzi5qzbCQNY1h17m1jOAGYTN2fdTnQDmLXj5GfdITK25boBDOPkD5u6DcIjL6mi6hjbnUx7sQd0/akoM3Hy8QfeVcuWwuGoSHBzyw29+vQDPCgexdpx8cVOYdfW84BuM5hQRS1x8od/NojwvbZAr+B+JBx5E+je2R/izp+lzdorLr713J51WnKZ+e1kBdaWUlDGchFktOLt8sTZJOgbWAuQ8SolSYk3YeP61XAt6Q64urnRYkjLWRqyCOYsDKHXto6LL6UrS7fsAZdZCgDWODjUcitWzr165RK8evkSkGz4L/4jt8vUJ0+gYqUqfE+2jItvZfOyVHMuwsObpCw/mXGmgVQR2XQ1cfILEG59IffCcPR0nGS7toqLL6kAy1DkAZfRZIOqnCBDMTOClOlBXeso5uUj5x7PgVwe+gtZg/WnXeOO6T8Jv16OUWptjn1m7GZ1HTROPtKfl63dBIP79YYFc7+HvHnz0VPUJkyaKgswLXHxGRD084BurylqVfOAPp1rAVKktQhukD108iwNUvI0NZUe3cedWnYl8bZJkyPGTuCv8da5bM1GclbRLbpNH8MKMLGfB3QDmJJNHUrMpgFKVAQp4dq0xLFX0i8rYx0P2OQ9mHVUZa0Y0QMMYEYcNQPpzABmoMEyoqoMYEYcNQPpzABmoMEyoqoMYEYcNQPpzABmoMEyoqoMYEYcNQPprNuLViP4QO/49/jzFgYrxnBTaiJaG8F3SnXUbQYzAidfHP9eLia92Kly5R09hr3YHj2udZvBkJMfd/U2BLXxAr+GFUiMrmx66J/pNoXx7+Vi0os7kyvv6DHsxfboca3bDIbKag1jfuzoYVi/egVv74K535HIg2v467nfzYDEmzfoNZIRV4YtgYHBPWDY4IE0IBsnu8O3w5BP+0PPLh1h8oSxcO/uX3ye+AMXk37cV1MoYwNj6rdu6w8rQpfwRZFVi2xbFCXlxX1kxWtdAcY5VC0n38XFBWZNm0KrY6RCPEZm7uwZ9BoPUcA8bk1jibuvJv69kpj0c2ZNh+lT0sOkKymfFQEltlm3OPnijtRw8nH3ENJ0cBGeQEKTN2jcFC7EnaMz0KkTxwAJiXiihhx3X038eyUx6Qd8+jm8fPWSmqakvNgHWfFatzVYZpyJM1hd3wYQdXA/3Ei4TncVYWToqMgDBGDHKeBQ5Lj7auLfK4lJLwwOrKR8ZnzgLHVtBjA1nHx0LoIKAXXzRgKELF1BARZJTjnDGWz23IXU/5a4+2rj36uNSa+2vLMARq0dusbJ55RRG8Y8HWBNIXL/XnpbxB1EOGvtJgdWJScl0mNgUITcfa4v5O7jrVMtN19JTPr9eyMgYuc22pWS8pxOWfmvrjMYxsTX+pqiQsXK4JI9O9St35COD85gxQlt2r1IEbohhBtkKe5+UI+P+fj3RUiYczz0Si7+Pcak7+LfmsakT3nwAAKCupvEpI/YsR1SU5+AX5v2tH+58rRQFhfdAJZZTj7y6cXc+8hjp98YLkvcfSXcfLzlcvHvEYRHYs7TGRDPg3QnW+eEgu+1hCJXHl+Z3EhIeEPnrJSgG8CsxclXOhhS3H1L3Hxz8e8txaQ3p4ul8o4ew96cPdZO0w1g1lZUj/b0jn8/bPQ4PdQ2VJs2edFqKI8wZa3qAQYwq7qTNSb2gEshV8f8EVqsKLs2pgfYDGbMcTOM1gxghhkqYyrKAGbMcTOM1gxghhkqYyrKAGbMcTOM1gxghhkqYyrKAGbMcTOM1gxghhkqYyrKAGbMcTOM1gxghhkqYyrKAGbMcTOM1ooAliP725CW9sIwRjFF7eeB589eAOKFE0UAq16xOJyMS7af1qxnw3jg9IXfwbtSRmRvRQBr5FMKjsUmGcZIpqj9PBAdmwgNCV44UQSw+tU94MqNO/Dw7zT7ac56dngPPHmSBhfi74CvV8ZBZ4oA5uaaHZrX9YSt+y46vJFMQft5YPv+i9DC1xMQL6pmMCzcrVVliDpxHZZvjoFHj9lMZr9hdLyeU1PTYPXWGNgXfR2C/CqbKJiNRKf5V6nKKeQWuWbXBdh9JB4qeRaD2l4lwZuc+4j7H5lkLQ/g0+LpuN8h+kwixF27Ay3reUJXMgkVzOeqHWBczaf/vICjsckQFZMIMRdJFL8Xr7KWd5m19FUEPi029C4FvjU8wE1iklE1gzG/Mg+o9cD/AxEyoW4qNRYJAAAAAElFTkSuQmCC;" parent="1" vertex="1">
          <mxGeometry x="961" y="1465" width="152" height="179" as="geometry" />
        </mxCell>
        <mxCell id="rrwpw1Hd3HMWVf84mYSk-178" value="" style="endArrow=classic;html=1;rounded=0;entryX=-0.002;entryY=0.279;entryDx=0;entryDy=0;entryPerimeter=0;exitX=1;exitY=0.5;exitDx=0;exitDy=0;" parent="1" source="rrwpw1Hd3HMWVf84mYSk-185" target="rrwpw1Hd3HMWVf84mYSk-177" edge="1">
          <mxGeometry width="50" height="50" relative="1" as="geometry">
            <mxPoint x="771" y="1614" as="sourcePoint" />
            <mxPoint x="821" y="1564" as="targetPoint" />
          </mxGeometry>
        </mxCell>
        <mxCell id="rrwpw1Hd3HMWVf84mYSk-179" value="" style="endArrow=classic;html=1;rounded=0;entryX=0;entryY=0.5;entryDx=0;entryDy=0;exitX=1;exitY=0.5;exitDx=0;exitDy=0;" parent="1" source="rrwpw1Hd3HMWVf84mYSk-186" target="rrwpw1Hd3HMWVf84mYSk-177" edge="1">
          <mxGeometry width="50" height="50" relative="1" as="geometry">
            <mxPoint x="891" y="1555" as="sourcePoint" />
            <mxPoint x="936" y="1554.21" as="targetPoint" />
          </mxGeometry>
        </mxCell>
        <mxCell id="rrwpw1Hd3HMWVf84mYSk-180" value="" style="endArrow=classic;html=1;rounded=0;entryX=-0.006;entryY=0.723;entryDx=0;entryDy=0;entryPerimeter=0;exitX=1;exitY=0.5;exitDx=0;exitDy=0;" parent="1" source="rrwpw1Hd3HMWVf84mYSk-187" target="rrwpw1Hd3HMWVf84mYSk-177" edge="1">
          <mxGeometry width="50" height="50" relative="1" as="geometry">
            <mxPoint x="771" y="1614" as="sourcePoint" />
            <mxPoint x="821" y="1564" as="targetPoint" />
          </mxGeometry>
        </mxCell>
        <mxCell id="rrwpw1Hd3HMWVf84mYSk-181" value="" style="endArrow=classic;html=1;rounded=0;entryX=0.005;entryY=0.835;entryDx=0;entryDy=0;entryPerimeter=0;exitX=1;exitY=0.5;exitDx=0;exitDy=0;" parent="1" source="rrwpw1Hd3HMWVf84mYSk-188" target="rrwpw1Hd3HMWVf84mYSk-177" edge="1">
          <mxGeometry width="50" height="50" relative="1" as="geometry">
            <mxPoint x="901" y="1613" as="sourcePoint" />
            <mxPoint x="821" y="1564" as="targetPoint" />
          </mxGeometry>
        </mxCell>
        <mxCell id="rrwpw1Hd3HMWVf84mYSk-182" value="rom_ena" style="text;html=1;strokeColor=default;fillColor=none;align=center;verticalAlign=middle;whiteSpace=wrap;rounded=0;" parent="1" vertex="1">
          <mxGeometry x="396.25" y="1523" width="65" height="10" as="geometry" />
        </mxCell>
        <mxCell id="rrwpw1Hd3HMWVf84mYSk-247" style="edgeStyle=orthogonalEdgeStyle;rounded=0;orthogonalLoop=1;jettySize=auto;html=1;entryX=0;entryY=0.5;entryDx=0;entryDy=0;" parent="1" source="rrwpw1Hd3HMWVf84mYSk-183" target="rrwpw1Hd3HMWVf84mYSk-237" edge="1">
          <mxGeometry relative="1" as="geometry" />
        </mxCell>
        <mxCell id="rrwpw1Hd3HMWVf84mYSk-183" value="rom_data" style="text;html=1;strokeColor=default;fillColor=none;align=center;verticalAlign=middle;whiteSpace=wrap;rounded=0;" parent="1" vertex="1">
          <mxGeometry x="396.25" y="1544" width="65" height="10" as="geometry" />
        </mxCell>
        <mxCell id="rrwpw1Hd3HMWVf84mYSk-184" value="rom_addr" style="text;html=1;strokeColor=default;fillColor=none;align=center;verticalAlign=middle;whiteSpace=wrap;rounded=0;" parent="1" vertex="1">
          <mxGeometry x="396.25" y="1582" width="65" height="10" as="geometry" />
        </mxCell>
        <mxCell id="rrwpw1Hd3HMWVf84mYSk-185" value="ram_addr" style="text;html=1;strokeColor=default;fillColor=none;align=center;verticalAlign=middle;whiteSpace=wrap;rounded=0;" parent="1" vertex="1">
          <mxGeometry x="821" y="1508" width="65" height="10" as="geometry" />
        </mxCell>
        <mxCell id="rrwpw1Hd3HMWVf84mYSk-186" value="ram_data" style="text;html=1;strokeColor=default;fillColor=none;align=center;verticalAlign=middle;whiteSpace=wrap;rounded=0;" parent="1" vertex="1">
          <mxGeometry x="821" y="1549.5" width="65" height="10" as="geometry" />
        </mxCell>
        <mxCell id="rrwpw1Hd3HMWVf84mYSk-187" value="ram_ena" style="text;html=1;strokeColor=default;fillColor=none;align=center;verticalAlign=middle;whiteSpace=wrap;rounded=0;" parent="1" vertex="1">
          <mxGeometry x="820" y="1590" width="65" height="10" as="geometry" />
        </mxCell>
        <mxCell id="rrwpw1Hd3HMWVf84mYSk-188" value="ram_wea" style="text;html=1;strokeColor=default;fillColor=none;align=center;verticalAlign=middle;whiteSpace=wrap;rounded=0;" parent="1" vertex="1">
          <mxGeometry x="821" y="1609" width="65" height="10" as="geometry" />
        </mxCell>
        <mxCell id="rrwpw1Hd3HMWVf84mYSk-189" value="rst" style="text;html=1;strokeColor=default;fillColor=none;align=center;verticalAlign=middle;whiteSpace=wrap;rounded=0;" parent="1" vertex="1">
          <mxGeometry x="396.25" y="1620" width="65" height="10" as="geometry" />
        </mxCell>
        <mxCell id="rrwpw1Hd3HMWVf84mYSk-190" value="" style="group" parent="1" vertex="1" connectable="0">
          <mxGeometry x="396.25" y="1610" width="50" height="10" as="geometry" />
        </mxCell>
        <mxCell id="rrwpw1Hd3HMWVf84mYSk-191" value="clk" style="text;html=1;strokeColor=default;fillColor=none;align=center;verticalAlign=middle;whiteSpace=wrap;rounded=0;container=0;" parent="rrwpw1Hd3HMWVf84mYSk-190" vertex="1">
          <mxGeometry width="50" height="10" as="geometry" />
        </mxCell>
        <mxCell id="rrwpw1Hd3HMWVf84mYSk-192" value="" style="triangle;whiteSpace=wrap;html=1;container=0;" parent="rrwpw1Hd3HMWVf84mYSk-190" vertex="1">
          <mxGeometry width="10" height="10" as="geometry" />
        </mxCell>
        <mxCell id="rrwpw1Hd3HMWVf84mYSk-193" value="bit_addr" style="text;html=1;strokeColor=default;fillColor=none;align=center;verticalAlign=middle;whiteSpace=wrap;rounded=0;" parent="1" vertex="1">
          <mxGeometry x="396.25" y="1481" width="65" height="10" as="geometry" />
        </mxCell>
        <mxCell id="rrwpw1Hd3HMWVf84mYSk-194" value="bit_size" style="text;html=1;strokeColor=default;fillColor=none;align=center;verticalAlign=middle;whiteSpace=wrap;rounded=0;" parent="1" vertex="1">
          <mxGeometry x="396.25" y="1495" width="65" height="10" as="geometry" />
        </mxCell>
        <mxCell id="rrwpw1Hd3HMWVf84mYSk-195" value="done" style="text;html=1;strokeColor=default;fillColor=none;align=center;verticalAlign=middle;whiteSpace=wrap;rounded=0;" parent="1" vertex="1">
          <mxGeometry x="820" y="1476" width="65" height="10" as="geometry" />
        </mxCell>
        <mxCell id="rrwpw1Hd3HMWVf84mYSk-200" style="edgeStyle=orthogonalEdgeStyle;rounded=0;orthogonalLoop=1;jettySize=auto;html=1;entryX=0;entryY=0.5;entryDx=0;entryDy=0;" parent="1" source="rrwpw1Hd3HMWVf84mYSk-196" target="rrwpw1Hd3HMWVf84mYSk-186" edge="1">
          <mxGeometry relative="1" as="geometry" />
        </mxCell>
        <mxCell id="rrwpw1Hd3HMWVf84mYSk-196" value="&lt;font style=&quot;font-size: 15px;&quot;&gt;Decrypt&lt;/font&gt;" style="rounded=1;whiteSpace=wrap;html=1;fontSize=15;fillColor=#dae8fc;strokeColor=#6c8ebf;" parent="1" vertex="1">
          <mxGeometry x="532.88" y="1527.5" width="207.12" height="80" as="geometry" />
        </mxCell>
        <mxCell id="rrwpw1Hd3HMWVf84mYSk-246" style="edgeStyle=orthogonalEdgeStyle;rounded=0;orthogonalLoop=1;jettySize=auto;html=1;entryX=0.004;entryY=0.651;entryDx=0;entryDy=0;entryPerimeter=0;" parent="1" source="rrwpw1Hd3HMWVf84mYSk-198" target="rrwpw1Hd3HMWVf84mYSk-196" edge="1">
          <mxGeometry relative="1" as="geometry" />
        </mxCell>
        <mxCell id="rrwpw1Hd3HMWVf84mYSk-198" value="Key" style="rounded=0;whiteSpace=wrap;html=1;fontSize=15;fillColor=#f8cecc;strokeColor=#b85450;" parent="1" vertex="1">
          <mxGeometry x="480" y="1630" width="70" height="20" as="geometry" />
        </mxCell>
        <mxCell id="rrwpw1Hd3HMWVf84mYSk-201" value="trigger" style="text;html=1;strokeColor=default;fillColor=none;align=center;verticalAlign=middle;whiteSpace=wrap;rounded=0;" parent="1" vertex="1">
          <mxGeometry x="405" y="1399" width="65" height="10" as="geometry" />
        </mxCell>
        <mxCell id="rrwpw1Hd3HMWVf84mYSk-202" value="trigger" style="text;html=1;strokeColor=default;fillColor=none;align=center;verticalAlign=middle;whiteSpace=wrap;rounded=0;" parent="1" vertex="1">
          <mxGeometry x="397.5" y="1637" width="65" height="10" as="geometry" />
        </mxCell>
        <mxCell id="rrwpw1Hd3HMWVf84mYSk-222" style="edgeStyle=orthogonalEdgeStyle;rounded=0;orthogonalLoop=1;jettySize=auto;html=1;entryX=0.5;entryY=0;entryDx=0;entryDy=0;" parent="1" source="rrwpw1Hd3HMWVf84mYSk-203" target="rrwpw1Hd3HMWVf84mYSk-220" edge="1">
          <mxGeometry relative="1" as="geometry" />
        </mxCell>
        <mxCell id="rrwpw1Hd3HMWVf84mYSk-203" value="Loading" style="rounded=1;whiteSpace=wrap;html=1;arcSize=40;fontColor=#000000;fillColor=#ffffc0;strokeColor=#ff0000;" parent="1" vertex="1">
          <mxGeometry x="1755" y="1821" width="120" height="40" as="geometry" />
        </mxCell>
        <mxCell id="rrwpw1Hd3HMWVf84mYSk-204" value="" style="edgeStyle=orthogonalEdgeStyle;html=1;verticalAlign=bottom;endArrow=open;endSize=8;strokeColor=#ff0000;rounded=0;entryX=1;entryY=0.75;entryDx=0;entryDy=0;" parent="1" source="rrwpw1Hd3HMWVf84mYSk-203" target="rrwpw1Hd3HMWVf84mYSk-203" edge="1">
          <mxGeometry relative="1" as="geometry">
            <mxPoint x="1815" y="1921" as="targetPoint" />
            <Array as="points">
              <mxPoint x="1895" y="1831" />
            </Array>
          </mxGeometry>
        </mxCell>
        <mxCell id="rrwpw1Hd3HMWVf84mYSk-218" value="&lt;h1&gt;Init&lt;/h1&gt;&lt;p&gt;rom_addr &amp;lt;- bit_addr&lt;/p&gt;&lt;p&gt;rom_ena &amp;lt;- 0&lt;/p&gt;&lt;p&gt;done &amp;lt;- 0&lt;/p&gt;&lt;p&gt;ram_ena &amp;lt;- 0&lt;/p&gt;&lt;p&gt;ram_wea &amp;lt;- 0&lt;/p&gt;&lt;p&gt;&lt;br&gt;&lt;/p&gt;" style="text;html=1;strokeColor=none;fillColor=none;spacing=5;spacingTop=-20;whiteSpace=wrap;overflow=hidden;rounded=0;" parent="1" vertex="1">
          <mxGeometry x="1340" y="1540" width="190" height="190" as="geometry" />
        </mxCell>
        <mxCell id="rrwpw1Hd3HMWVf84mYSk-220" value="done" style="rounded=1;whiteSpace=wrap;html=1;arcSize=40;fontColor=#000000;fillColor=#ffffc0;strokeColor=#ff0000;" parent="1" vertex="1">
          <mxGeometry x="1755" y="1921" width="120" height="40" as="geometry" />
        </mxCell>
        <mxCell id="rrwpw1Hd3HMWVf84mYSk-221" value="" style="edgeStyle=orthogonalEdgeStyle;html=1;verticalAlign=bottom;endArrow=open;endSize=8;strokeColor=#ff0000;rounded=0;entryX=1;entryY=0.75;entryDx=0;entryDy=0;" parent="1" source="rrwpw1Hd3HMWVf84mYSk-220" target="rrwpw1Hd3HMWVf84mYSk-220" edge="1">
          <mxGeometry relative="1" as="geometry">
            <mxPoint x="1825" y="2021" as="targetPoint" />
          </mxGeometry>
        </mxCell>
        <mxCell id="rrwpw1Hd3HMWVf84mYSk-229" style="edgeStyle=orthogonalEdgeStyle;rounded=0;orthogonalLoop=1;jettySize=auto;html=1;entryX=0;entryY=0.5;entryDx=0;entryDy=0;" parent="1" source="rrwpw1Hd3HMWVf84mYSk-227" target="rrwpw1Hd3HMWVf84mYSk-203" edge="1">
          <mxGeometry relative="1" as="geometry" />
        </mxCell>
        <mxCell id="rrwpw1Hd3HMWVf84mYSk-227" value="Start" style="rounded=1;whiteSpace=wrap;html=1;arcSize=40;fontColor=#000000;fillColor=#ffffc0;strokeColor=#ff0000;" parent="1" vertex="1">
          <mxGeometry x="1560" y="1821" width="120" height="40" as="geometry" />
        </mxCell>
        <mxCell id="rrwpw1Hd3HMWVf84mYSk-232" value="&lt;h1&gt;Start&lt;/h1&gt;&lt;p&gt;rom_ena &amp;lt;- 1&lt;/p&gt;&lt;p&gt;ram_ena &amp;lt;- 1&lt;/p&gt;&lt;p&gt;count &amp;lt;- 0&lt;/p&gt;" style="text;html=1;strokeColor=none;fillColor=none;spacing=5;spacingTop=-20;whiteSpace=wrap;overflow=hidden;rounded=0;" parent="1" vertex="1">
          <mxGeometry x="1570" y="1549.5" width="190" height="150.5" as="geometry" />
        </mxCell>
        <mxCell id="rrwpw1Hd3HMWVf84mYSk-233" value="!rst" style="text;html=1;align=center;verticalAlign=middle;resizable=0;points=[];autosize=1;strokeColor=none;fillColor=none;" parent="1" vertex="1">
          <mxGeometry x="1410" y="1771" width="40" height="30" as="geometry" />
        </mxCell>
        <mxCell id="rrwpw1Hd3HMWVf84mYSk-234" value="&lt;h1&gt;Loading&lt;/h1&gt;&lt;p&gt;rom_addr ++&lt;/p&gt;&lt;p&gt;ram_addr ++&lt;br&gt;&lt;/p&gt;" style="text;html=1;strokeColor=none;fillColor=none;spacing=5;spacingTop=-20;whiteSpace=wrap;overflow=hidden;rounded=0;" parent="1" vertex="1">
          <mxGeometry x="1820" y="1549.5" width="190" height="120.5" as="geometry" />
        </mxCell>
        <mxCell id="rrwpw1Hd3HMWVf84mYSk-235" style="edgeStyle=orthogonalEdgeStyle;rounded=0;orthogonalLoop=1;jettySize=auto;html=1;exitX=0.5;exitY=1;exitDx=0;exitDy=0;" parent="1" source="rrwpw1Hd3HMWVf84mYSk-234" target="rrwpw1Hd3HMWVf84mYSk-234" edge="1">
          <mxGeometry relative="1" as="geometry" />
        </mxCell>
        <mxCell id="rrwpw1Hd3HMWVf84mYSk-237" value="data_in" style="text;html=1;strokeColor=default;fillColor=none;align=center;verticalAlign=middle;whiteSpace=wrap;rounded=0;" parent="1" vertex="1">
          <mxGeometry x="532.88" y="1539.5" width="65" height="10" as="geometry" />
        </mxCell>
        <mxCell id="rrwpw1Hd3HMWVf84mYSk-238" value="data_out" style="text;html=1;strokeColor=default;fillColor=none;align=center;verticalAlign=middle;whiteSpace=wrap;rounded=0;" parent="1" vertex="1">
          <mxGeometry x="675" y="1561.25" width="65" height="12.5" as="geometry" />
        </mxCell>
        <mxCell id="rrwpw1Hd3HMWVf84mYSk-240" value="key" style="text;html=1;strokeColor=default;fillColor=none;align=center;verticalAlign=middle;whiteSpace=wrap;rounded=0;" parent="1" vertex="1">
          <mxGeometry x="532.88" y="1573.75" width="65" height="10" as="geometry" />
        </mxCell>
        <mxCell id="rrwpw1Hd3HMWVf84mYSk-245" value="&lt;h1&gt;Done&lt;/h1&gt;&lt;div&gt;done &amp;lt;- 1&lt;/div&gt;&lt;p style=&quot;border-color: var(--border-color);&quot;&gt;rom_ena &amp;lt;- 0&lt;/p&gt;&lt;p style=&quot;border-color: var(--border-color);&quot;&gt;&lt;span style=&quot;background-color: initial;&quot;&gt;ram_ena &amp;lt;- 0&lt;/span&gt;&lt;/p&gt;&lt;p style=&quot;border-color: var(--border-color);&quot;&gt;ram_wea &amp;lt;- 0&lt;/p&gt;" style="text;html=1;strokeColor=none;fillColor=none;spacing=5;spacingTop=-20;whiteSpace=wrap;overflow=hidden;rounded=0;" parent="1" vertex="1">
          <mxGeometry x="1990" y="1552.5" width="190" height="179" as="geometry" />
        </mxCell>
        <mxCell id="rrwpw1Hd3HMWVf84mYSk-249" value="count&amp;nbsp;&amp;lt;= + bit_size" style="text;html=1;align=center;verticalAlign=middle;resizable=0;points=[];autosize=1;strokeColor=none;fillColor=none;" parent="1" vertex="1">
          <mxGeometry x="1925" y="1826" width="120" height="30" as="geometry" />
        </mxCell>
        <mxCell id="rrwpw1Hd3HMWVf84mYSk-250" value="count &amp;gt; bit_size" style="text;html=1;align=center;verticalAlign=middle;resizable=0;points=[];autosize=1;strokeColor=none;fillColor=none;" parent="1" vertex="1">
          <mxGeometry x="1850" y="1871" width="110" height="30" as="geometry" />
        </mxCell>
        <mxCell id="acSpzJ2jcXkzIEG-W9K2-11" value="" style="shape=link;html=1;rounded=0;exitX=1;exitY=0.5;exitDx=0;exitDy=0;entryX=0;entryY=0.5;entryDx=0;entryDy=0;fillColor=#dae8fc;strokeColor=#6c8ebf;strokeWidth=4;" parent="1" source="acSpzJ2jcXkzIEG-W9K2-4" target="acSpzJ2jcXkzIEG-W9K2-32" edge="1">
          <mxGeometry width="100" relative="1" as="geometry">
            <mxPoint x="190" y="2376" as="sourcePoint" />
            <mxPoint x="142" y="2448.4999999999995" as="targetPoint" />
          </mxGeometry>
        </mxCell>
        <mxCell id="acSpzJ2jcXkzIEG-W9K2-34" value="Decrypted Bitstream" style="edgeLabel;html=1;align=center;verticalAlign=middle;resizable=0;points=[];" parent="acSpzJ2jcXkzIEG-W9K2-11" vertex="1" connectable="0">
          <mxGeometry x="-0.4256" y="-5" relative="1" as="geometry">
            <mxPoint x="19" y="13" as="offset" />
          </mxGeometry>
        </mxCell>
        <mxCell id="acSpzJ2jcXkzIEG-W9K2-12" value="" style="group" parent="1" vertex="1" connectable="0">
          <mxGeometry x="-110" y="2406" width="140" height="102.86999999999989" as="geometry" />
        </mxCell>
        <mxCell id="jpkNpPRwxP5RE655Wazi-10" value="DFX_Controller_IP" style="rounded=1;whiteSpace=wrap;html=1;verticalAlign=bottom;labelPosition=center;verticalLabelPosition=top;align=center;fillColor=#ffe6cc;strokeColor=#d79b00;" parent="acSpzJ2jcXkzIEG-W9K2-12" vertex="1">
          <mxGeometry width="140" height="102.87" as="geometry" />
        </mxCell>
        <mxCell id="acSpzJ2jcXkzIEG-W9K2-4" value="ICAP" style="text;html=1;strokeColor=#6c8ebf;fillColor=#dae8fc;align=center;verticalAlign=middle;whiteSpace=wrap;rounded=0;" parent="acSpzJ2jcXkzIEG-W9K2-12" vertex="1">
          <mxGeometry x="75" y="32.5" width="65" height="19" as="geometry" />
        </mxCell>
        <mxCell id="acSpzJ2jcXkzIEG-W9K2-13" value="" style="shape=image;verticalLabelPosition=bottom;labelBackgroundColor=default;verticalAlign=top;aspect=fixed;imageAspect=0;image=data:image/png,iVBORw0KGgoAAAANSUhEUgAAANUAAAERCAYAAADsTuKVAAAABHNCSVQICAgIfAhkiAAAIABJREFUeF7tXQl8TFf7fhA0i30NFbFvIZZYagsae621b6X8VapVRZXisxRVVGmrWmpfq9SH0lpKY2trX4IQu1ZFbCGVEHz/+x7umLmZydw7M5mZO/O+v9/8ZM5573vOec48zrnn3vOcDP+TDHba/aQU7Dp4BbsOXcLR09eQkvLEzoh8OSPgXghkyZwJVcoXQoOwYNSrFgS/lzJbrGAGe0h1424SVmyKxq/7YlGuZAHUrlIU1UOD4JtGgRZrwhmMgBsjkJScggPHrmDfkcs4fT4OTeuUQveWIciV3TdVrW0m1f5T1zFpzk6E1yyJdk0qIEe21MFTlcYJjIAHIJBwPwnrtp5E1P5zmDCwIULLFDRplU2kIkJN/vY3DO0bjgqlTAN6AGbcBEZAFQInY69jxoIojItsYEKsjKquNnKKu5OEyXOYUFpxY3/PQ4AGlCFvhmPc7N9wOyHJ0EDNpFq5ORr1a5bgEcrzfiPcIhsQIGKFS3xY9XO0baS6/yAFO36PRdvGFWwoni9hBDwTgdYRFbBlbyweSKvgZJpGql2Hr6BsiQLIaWbFwzPh4lYxAtYRID6Ul1a/9x69YgOpDl7CK1WLWi+FPRgBL0OglsSLqAOXtJOKHuzWqBjkZXBxcxkB6wiEVQjCwZPXtJOK3pTw9bX8JNl60ezBCHgmAsSLR8/fJNJ0T+WZcHCrGAHHIsCkciyeHI0R0Lb6x3gxAoyAdQR4pLKOEXswApoQYFJpgoudGQHrCDCprGPEHoyAJgSYVJrgYmdGwDoCTCrrGLEHI6AJASaVJrjYmRGwjgCTyjpG7MEIaEKASaUJLnZmBKwjwKSyjhF7MAKaEGBSaYKLnRkB6wj43E76H9qPWGTw/HFKb/G3uTTr4diDEWAEeKTi3wAj4GAEmFQOBpTDMQJMKv4NMAIORiBdSJWSkoInT56IjwOk2q02OTkpCQkJd51SltXKsIPXI+BwUhGJMmfOjEyZMolPhgwZBMiPJaLZYjM+nYQaoWVTXfro0SN8PnUyqlUoicJ5/FE8MDdKFs6LyL69cD72rIk/1alh7TCUK1YIf/91NVUsSqByygYHig/5hdesgkGR/XD50kWz/pzICFhCwOGkslSQremJiYmIj4szufzx48fo3K4lPp8+BT1790XUn0dwMDoWcxYswb2EBMyY9omJ/56onThx7AgePXyIVcsWm60KlZOYeB8zvpyDz774Gt169cbO7VvRMqK+GAXZGAG1CPiodVTrJ49MSv+nT58qk2z+PnvWZyCibNiyE6/UqWeIU6x4CTRp1hLnzp4xib18yULUql0XYTVqYaVEqiEfjjKMoMaOmX0yo0WrtoakiqFV0KpJA2z9eRM6duluc335Qu9CwGkjlSPvrZYsmIdXGzczIZRxt5UsXcbw9d69BGxc/yM6d++JLj164eKF89i3O0pVL5d6Hifu+j+q/NmJESAEHEYqIg0tTNDUzJw5ilS3b9/CpYsXpJGnjrliUqWtXb1SpLVp3xFly1VAaJVqWL50USo/cwk0QpGVLlvOXDanMQJmEXDY9I+mfbQwYcle8nXM+VUJd5/d3+TMndtSUSbpyxcvRIvX2iB79hwivas0Wo0fMxJTZ3yJgGzZTHyTk5Mw9N1IkfbX1SvYsX0LwhtFIKJJcxM//sIIpIWA3aRq3GViWvHTzNu2anSa+eYyAwICRPL9e/fMZZukxZw+iSOHDuCDj8YYRlAascaMGIZ1a7+XFjn6mfjTaJr8MFncb5UPqSgWK1q1fR0ZMzpsQLdaZ3bQPwJ2k8rZEOTLXwAFCgbi8MEDVotetmiB8On2eutUvjSCKUnl6+uH2XMXpvLlBEZACwK6IxU1rmuPN/D1FzNw5vQplClXPlV7b8bfQI6cufDDymXo2rM3+r31tonPgT9/x4ih7yH2TAxKlUn9DCxVQE5gBDQgYDepbJnCaaifWdchwz8Sy9ztWjbG+MlTEdG0Ofz8/BF7NgZL5s8TU7gmzVrg5s149O0ficpVw0zilA+phCkfj8MKacFi7MQpZsvgREbAVgR0ebPgL91X/bQ9SjyTGjywv3iTolAuXzSoVRUxMafQu29/rFiyCCVKlUaVatVTYZMlSxa0btcB369YKlYs2RgBRyKQ4daDp/8zt3fKXFqHgYuxZvYbjizf7lgPpbckLl44B3ptKahoMHJK0z42RsAVCBA/dizoDbunf66ovHGZWbNmFc+f2BgBd0FAl9M/dwGP68EImEOASWUOFU5jBOxAgEllB3h8KSNgDgEmlTlUOI0RsAMBsVAhKygZxzGXZkc5fCkj4DUI8EjlNV3NDXUWAkwqZyHN5XgNAkwqr+lqbqizEGBSOQtpLsdrEGBSeU1Xc0OdhQCTyllIczleg4BHkUqtqOa/khzZw+Rkr+lkbqhzEXAqqaZ8swNxN+87tIVqRTWJRBPHjUaZoAIIyp8dhXL7CeHMPt07GepjTrjTWGST/KuWL4G2LSIgC8o4tDEczCMQcOpb6gdPXMWxmGto1zgE7ZpUlJRsLQvFqEFXFtU8dOBPDPlgJCKkjYn+/gFis+Li7+YKUU15e/wH778jiDBp6gzUD2+ERymPEH38GNasWmEoypxwpyyyOXfhMuH34MED/Lr1F/Tv3V3sxerUtYeaqrKPFyHgVFIRrikpT7B68zFE7b+APh2rIyykiM1waxHVXLfme2nz4lviIxttGenQuZvV8pUim3TNsaOH8dP6dUwqq+h5n4NTp3/G8NI0cMqcHbBnSqhFVJOIcefObYf0MKnt0rTT39/fIfE4iGch4PSRSgmfrVNCWVSTtNTVGI0u8+d+LXTZI5o2Q81X6ghhTUsy1cYxaaq48LtvRFKSNP3bIWms07/vvD9MTdHs42UI+Hw6abyGJgdr8FXvasuUUKuo5uTpMyXNilLSAQVLMGr4EHHsTv4CBTH2408kOei0JQJSpFFp6cL5okF0yMHlyxeFPkZ+SS6NjRFQIuAzVQOpGvZxH008LaKa1GgfHx+8NfA98bl79w5+37MLsz6bioH9+6BQ4ZdRv+GrSmwM32nxY8feFzqDpM/eqU0L6eSR1/Drnv2qRjuLwTnD4xDw+XDUWNWN2n9NtasmR1oF1LoiqEVUU1kZEodpLklB15NWAUsXLYBNG9enSSrl9SQh3albD3zw3kBxflVwseJKF/7uxQj4DNdAKlKLcbSFVSyCPh2qo0BeU11zNeWoEdXMmy+/xVC+fn5iBKMpnVa78fzMLD8pBhsjYIyAyxYqiET2LqmrEdX8Ys53or2vNQ5Hrz79UEs6z4qme/9c+xtTJ08AvV3RtOVraf4qnjx9goP7/xA+tOp3XFpOJ4VcOryA7svYGAFjBJxOKlumepa6TBbVHDtyuBDVpNeUyGhFr3a9cIwzUp8tElRUSD0bn4oYWKgwpkunJjZr0cpSESJdEK9BbfE3Hb1a+OUieOPN/hg6YlSa13GmdyIgxDTVNt1eMU16JmXrVM9aHdWIatIbEDRC0XJ8PmlaSAcd8Ike1pDlfLUIuERMc8SARmrrp9lPjagmnZ/1cpEg8WFjBNILAZe9UZFeDeK4jICrEWBSuboHuHyPQ4BJ5XFdyg1yNQJMKlf3AJfvcQgwqTyuS7lBrkaASeXqHuDyPQ4BJpXHdSk3yNUIMKlc3QNcvschwKTyuC7lBrkaASaVq3uAy/c4BJhUHtel3CBXI8CkcnUPcPkeh4BTSWWPcpI55I2FLssVK4R61UMR2bcXzsacTuVu7Fu+eGHUrFxObImf9dmnuHXrpsGftAEp1s34GyYxSHaAxDS3/PyTSfr2rT+L9DOnT4l0W+vEQp2puky3CU7dT2WrcpIldJVCl7StY86XM8WGxL2HToC23Mum9E28fx+nTkbjm69mYfbMz7B09TqhsFRZUli6EXcde3dHoU37jobrt235GUlJD/Dbr9vRtPmLTY1RO34VO4dLlSkrfJXlaKkTC3Va6ml9pTuVVASNLcpJaUGqFLqsGlYDEfVqYrtEgq49e5tcqvSlzPeHj0Tb5hHo3a0jDp88JykulUbBwELYu+sFqWiTIu32fef9D7Dt500mMffs+g2v1K1vsi9LWY6WOrFQZ1q9rY88p07/jCFxhJimOYhpqzyZ8ZTOnJ+cliNHTkyYPFWMTpt/Wi+S60i7hvfs/s1w2R+/7wGJxfTp95Y0up0wiHKSqtLJE8dQt354WkWI7ftkaurEQp1pQqmLTJeRSkaHpoSDJ67H6k1HxShmj5GW33fffi1C1KpdV3WompIvbWA8fvSIuKaORBK6R7p5M15837d7lxiN5A2OJG9G9se+PUJPvU79BuK7ObNWJ1mok8Q6SfeiU9sWLNRpDkgdpelWTFPGODHxPsJrVhFfr1//Bw8fJmParNkIq1FLdTdkyZJFHGwgC3TWq99QXLtPuq9q3a4DaIrXoXNXkUbk2iNNDVu0aiumiDSChVQMNSlLS51YqFN1N+nGUbdimjLCWbJmRb/IgWLEOBUdjSUL5or/6bUYnR7y4MG/yJY9u7iseMlSIFEYIk9Ek+Y4duQQZnz1TPa5dt16+G7ObOFHixnK+ylK11InFuoUUHqU6VZMU+6FLJmzoGfvfoZOCS5WDGM/Gi7EMStWqqyqs+goHiJWhZCKBn+6r9orjVD7/9gnRrHyFZ7l1a5TH+8PfAtXr1wWixfyCGZckD11YqFOVV3m1k66FtM0h2z/twdhwbxvMGnsaKxaZ/pMyZw/qTBNkg6Dox9zi9ZtX5BKuq+iZ1brf1wjRiP5IANaHaSl+s+nfmL1fkoOprVOLNRprqf0k+b0JXUZGkeIaZqDmRRnh304SmikHzl0AFWqVTe4GYti0jI5reQtXjAPVy5fwoKlqwSxZKtbr4E4xGDV8sX4j3SIgbG9Iglyrly2SNxPVQipZK4aJmlq68RCnVah1IWD00nlSDFNSwh37NoD0z+dhKmTJmDljxsNbrIoJo06AdmyISgoGI0imuL/BgxEsRIlTcLRfRUthV/7+y/UlkYqY6tTr740gv2AV6X7LbW6gdbqRPFZqNNSj+or3WPENPUFO9fWExHwODFNT+wkbpM+EXD5w199wsa1ZgQsI8CksowN5zACNiHApLIJNr6IEbCMAJPKMjacwwjYhACTyibY+CJGwDICTCrL2HAOI2ATAkwqm2DjixgBywgwqSxjwzmMgE0IMKlsgo0vYgQsI8CksowN5zACNiHApLIJNr6IEbCMgNPfUrdcFcfk7P5tB/7555oIVqNWbQQXK24SmDYj/vtvIkjwJb2MBGF8ff3EW+fGRpsaY57rA5YtVx6VKldNrypwXBci4NSRKj3ENGuEPtPbkzH8YsY0TBw7ChvWrcVVaZ+UbKtXLgP5FsyRFcUDc6NIvmwYFNnPoIxEfhfOxeI/Iz9A66YNQYKb/Xt319Q1u3b+irCKpVGsYC4UzZ8d7739f3iYnGyIcfLEcVGvEUMGYc33KzXFZmf9IODUkSo9xDTj4+JSoV2vQSPMnrvQJN3X1xcD3nlPiLSQFsWxw4cwavgQ0PXynqsTx48KkZcqVcNwTRLmvHP7dqrYlhIuXjiPrh1ao3PXntjwyw5B0L49uyBTxkwGfQvSIaRPozovNk5aisfp+kXAqaQimBwtpqkW+lZtXzdxLVc+BH9dvYLpUyZKdUoRUzVSpJVVadu1bKw2tPAjpVvaCTx15legnb60wXH46LEYOfQ9fDTuY+TNm09TPHbWLwJOnf4Zw5ReYppauuLGjRvIlTtPqnsfazGiJQFNIh0Jxsi2O2oH6ksjJBFKNlJiIpUnkjpj8x4EnD5SKaF19JRQGV/5fe7XX0jagA8lZdnj2PnrNsyeZzpNVPqb+55w5w7o/ummNJ2U7fKli3itTXsTdxLfpO32lMfmPQj45PFTP1g17KP9B6gGSmdOCf+79geQVsWFC+dQrXpNFH65iJoqmviQUOeR0xeQ//kBCCQQk5yUBD/pvs3YSPWWNADp4AE270FAPaM8BJPNv+5G1J9HcOr83xIJ/NCuRWNBMi2W9aWXEFQ0GC89JxEJyWSVyJMsjYDGRmSjE0FekvzZvAcBtyAVKSx1ahGKmaPbICxE+8hhS3fRCuDgD0Yg/kackDKz1wpLU72//7pqEoaO0aEDB2gayOY9CPjcevBUdWtJLcbRFlaxCPp0qA7SAXS23Xp+AEFmSUvdXiMtwD1RO4VWoCy8SfddZFoOS7C3Hny96xFw2UhFJBoR2QgjBjRyCqGmTZ4gTumgExLpNI9fNm/EyGGDhd4fnR9FRg9qyYc+9xISkJBw1/Dd+CEurfqFhZQSJJKtn6QdSEv0n0onLtJbG/Sciv6mxQtb7ttc/9PgGtiKgNNX/5whpmkOjBPHj2HaJx+LJW4yGk3o5I6Pp0w3LKmTcGbLCFPhTPn7wRNnDYKbtChBD3v/lQ41kK1SaBV89e0CfPD+O5Ik9GRBLNJzn/n1XHPV4TQPRsCppHL0VI/kmJWSzNRXtDhAB6wFBGQTCwhkS1atFQsSNJqQFQkqCj9/f/G3bDRqqZkO03lU5vw6despjt6JjT0jHgRTGcZGp5E8kI44fSIRjs1zEXDq9M8ZUz06a2rThnWoWLII1q9dbdJz/gEBKCO9yEofJaEc1cW0IkinjSgJRfHp7Q2qV+zZGM0PnB1VP46T/gg4daRK/+YAy9c8O2LUGWVpLWPMhMmgD5tnI+DUkcqzoeTWMQLPEPC4kYo71v0QSEhM/UZJjgA/96uog2rEpHIQkBzmBQLJj1Jw7dZdEJkSjfaTKTEKkN40IXIVypMTL2Ux3dCp9NXTdyaVnnrLzetKZLpy4xbi7iSoqikRjj5/37yNArlyICh/Ho8gF5NKVfezkzUELktkuhJ305qbxXwiIn2CCuSVdk3nseinhwwmlR56yY3r+PjpE1y4Fq96dLLWFCLmQ2nEK14oH3ykXdN6NF7902OvuVGdT12+5jBCyc2iEYvi6tWYVHrtOTeo99m/rovFiPQwikvx9WhMKj32mhvU+da9+w4foZTNohGLytGbMan01mNuUF+6jzp7NbWKVXpUjcqh8vRkHrVQcf/ePfFOnbwjV9kR7iy0SXXVi9jm48dPUShfLiW86fadyvPJop9FC7ciFSksLVxzQOyxUmv05vf0TydhxZKFuBH3bA5eqkxZRL47GG+82d8kDAltnok5JZRhAwMLGdRrSWiTXnalPVC0yZBetm3XoTPGT56KXLlyG2JQ/qL5c3H08EGciz2LutLb6nMXLVdVVdqwOGRQJC6ePyfenO/YtQemzvgStDVfNhKj2bRxvVBf6tG7r9sq2NKDWr0ve6vqNBud3IJUJPyybusJrNsWLXQB1dqjR4/QoXUzxJw6idETJqFBo8aSUlKyUH8dNuhtKf0UPpk+0yScrUKbFMRWsU01QpsUX09im9fj72Lb7uMm2Pr7ZUXtamVQMN8LSe2lP+6y2J2hZYNQqXywyD9+6hKOxVwRf/dsb7qnzWIAN81wOakORl/Fwh8OgEYprTZ75nSxM3fDlp2oUy/ccPnocROFstGk8WPQslUb1A1vmGZoNUKbFMBWsU1PFNq8IZFq6drUeobL1u7CtNE9UaJoQYG5OR9DZ7webiAVEUr21TupXLZQIcQ0v9mBKXN22EQo0WGL5gvCGBNK7rAB7wwWhxAsWfidoQ+1/MFCm+rRahIeCvqQJT5IxtIfdxsu7ikRhz7yiEQZchqNVJ5oTh+pbJ3qKcG/c+e2EKls17GLMkt8p/uichVCcES6/1FrLLSpFilTvyZ1KwnSXI9PENM4IpZshlFHmgZSHpneRyJrKDlVTNOeqZ6yIXcllViywMBAZZbhe2Chwog9E2MxX5nBQptKRNR937rnOOgjk6ZgvhzqLvRQL6ePVI7CMVu2Z5Jm8fHxFkPekDT9Ap77WXQyyiChTTJamn+rTw8htHkoOha0DV+tyUKbsr83CG1ujTpmgCfA7yX0aKfvhQa1fW3Jz6n3VCSUSYKZJJxJqkr2WN58+VGgYCCijx01G4ZO8jgjHbAWIulFaDUW2tSGGN1PEZnIigcXNFn90xbJM7ydLqYp1GhbVkZ4zRLimRQdUGCrdZbUi778fBpOnTyB8hUqmoRZtni+0Pjr0r2nTeFZaFM9bHRPVSBvTrF6R1PAfQdjUDvM9DA+9dGAYZOWGtxLBhXAgJ5NtFzucl+njlTGrRVimtJDXhLUtFWdduiHo1CiVGl0e701tm3ZLE7zoKnbovnfYvSHQ4WQJWn7WTM1QpsUQ43YprcKbbZrVsMwWn2zbJs1yNPMJ2LKn3NXnPM6VJoV0pjp8nsqmhKGlilk08Nful/atC1KKM327NROHN5GRukDBr6HEWPGq4JDjdAmBVIjtuktQpv5pQe8tDRORn/T9G/YW61w/soNkUYPh40fAovl8+f+wkFhlvIL5NHfokcGSRTyf8oGWvpOWuprZr9hKdvudFteU5ILTbx/H5cuXUBmn8xCSZb0/5TWsXVz5MyVC1NmfGEitEl+1oQ2lbFs+U6EsyS0SfFksc320gJJeKMITPhkmi3F8DUuQoD4sWNBb7h8pDJuvzwltAUTGp3oPN+0TBbaJLHNmbPnghRlZZOFNtO63t48WWjTUhx6/3DOl5+L7IimzS25uTydtCji7t5zWj0K5MyuK+0KtyJVeveSOwttUtv1Irbp45MR1+LvOGVLBm2pLywtgujJXLZQoSeQuK6mCNAPvXSRAk6BhcrRm1YFk8opPw3PKyRP9mxCViw9jeJTOXozJpXeesyN6lv65YJCDDM9jOJSfD0ak0qPveZGdS5ftJDDRywaoSiuXs2rFir02knuXG9xfyWNKFml3cD2iGnKbWQxTXfuba6bUxGg7fW09K1F9tm4giz77NTu4sL0ggBpV9CoRZrofECBXnqN66kLBIhcxQPzGepqTnAzvRY43AEgvqdyh17w8Dp4MoHMdR2v/plDhdMYATsQYFLZAR5fygiYQ8CtSCUrLJmraFppJIDZsHYYyhUrhL//Sr3psX/v7mjdrJHFEONHj5D06kLw+PFjg4+1mDMkAc8aoaYb8cylWSyUMzwWAbcgFSksrd50FIMnrrdpJ/CeqJ04cewIHkmbFFctW5yqsxo3a4G9u37DyWhT8UdyJEHOpZKMWf0Gr8LH58UtprWYiYmJiI8z3UBnLi1VZTjB4xFwOalIYYnItHrzMU3qtMY9s1ySfK5Vuy569umHlRKpaJQxttZtXxcagCuWLErVoT//tB4kd9atV2+TPGsxUwXiBEbgOQIuI5UjxDSpDffuJWDj+h/RWdKi6NKjF0himbTIjY0UjtpL+oBrVi037A6W81cuXYyKkjhMpdAqhkvUxORfECNgCQGnk8reqZ6yIWtXrxRJJMlctlwFhFaphuVLFynd0P2NPrh5Mx7bJS0L2eKu/4Md27eIPGNTGzNVIZzACEgI+Hw6SZ2OwzO0gu0CzZFimnJFli9eiBavtUH27M+2IXSVRqvxY0aKEzWMNf+qVKsuFJeWS1PA5pI/2arlS5ApUya83rmbSbvUxrQLDL7YYxHwmaqBVA37LHQrIGJOn8SRQwfwwUdjDCt3NGKNGTEM69Z+j569+5nUl+6baKWPRqy8efMJUhHBcud+cRq61phuBQhXxi0Q8Plw1FjVFdlv59nG9ignmavkskULRDJJlCmNRhslqUiTgkhF91ZhNWrhbMxpfDxlusmlWmMqy+XvjIDPcA2kIrUYe81RYpokR/aDdFgbnenU7623Tap14M/fMWLoe0JHnQ6Aky1Pnrxo2qIVaHHibEwMSGu94asvhBptiWkvHny95yHgsnf/ZOUkW++ztmzeKKZxfftHonLVMJOeKR9SCVM+HocV0oLF2IlTTPJoUaJr+1aIPRuDyEFDxD2VbLbGNC7giXQ+LZ2ZpbTyIRUN933KPP7uWQg4ffVPCZ+t+ur0zInUaWkBQmkkRda6XQd8v2IpnjwxPZnx1cbNUFA6mpTUbLtLo5yx2RrTOAbpB7aMqJ/qc+LoEWU1+buHIuAxYpoe2j/cLB0hIItpunykMsbMHjFNHWHPVfVwBNyKVB6ONTfPSxBgUnlJR3MznYcAk8p5WHNJXoIAk8pLOpqb6TwEmFTOw5pL8hIEmFRe0tHcTOchwKRyHtZckpcgwKTyko7mZjoPASaV87DmkrwEASaVl3Q0N9N5CDCpnIc1l+QlCDCpHNTR9+/dA50+z8YIuBWptIppknhl2eBA8SEhzfCaVTAosh8uX7po6FmlT73qoYjs20vs+lWasW/54oVRs3I5dGrTArM++xS3bt1UuiPpwQN8PHaUKDu4YE4UzuOPWlXKY/GCual85dgD+5uKzJAjiX3SRzbjesjtk//d+N+1qWJzgnsh4LJNisYwkMLSuq0nsG5btCbtPxKvTEy8j7kLl4lwV69cxlczP8OObVuw99AJofWn9Pnn2t+Y8+VMvNY4XPjky//iQGilb+L9+zh1MhrffDULs6W4S1evQ81X6oiySISzQ+tmiDl1EqMnTEKDRo2lPVrJWPP9Sgwb9LaUfgqfTJ9paKYQ2rwRh+8lXYz+ke8I1SfZ7ty+bfib/pDr8cWc70zS6YtyQ2YqB05wOQIuJ5WtO39l5DL7ZEaLVm0NQFaU9PtaNWmArT9vQscuz/73V/pUDauBiHo1Jbmyn8V2fGNT+lLe+8NHom3zCPTu1hGHT56Dr5+fRLLpYofvhi07UadeuCHE6HET4efri0njx6BlqzaoG97QkEcELlGylBjd1mz4xaRc5ReqB2kVsukPAZdN/xwlpqmEvFTpMiKJNP0sWaHCL4ssc1M6c9fQiDdh8lTciLuOzZKiLdnSRfMFYYwJJV874J3BYpRcIslJK23MhMnYuX0rSFaazTMRcPpIZetUTy38NEKRlS5bzuwlJAn93beNFIfsAAAKVUlEQVRfizySilZrNSVf0rM4Lm2Lb9S4qbhva2dhJPHz90e5CiE4cvhgqvBUZuOmLTDhPx9ha9TvqfLlhIePHkrTzhfTRzm9W68+rHVhETX3yNC9mGZychKGvhsp0Pzr6hWhOBveKAIRTZobEKb7LlrEILsujWB07zNt1mwhU6bWSPfC3z8ACXfv4u6dO+KywMBAi5eTUhOpOZkzcQ9Wqyo2b/yvydTV2DdFumcj1SeltZJ04WXhUGUef3cPBHQtpkkQ0siTLJEkQ4YMIMUiEsykH17GjC9mtlmyZkW/yIFCBOZUdDSWSKtztHKnxeiYnQcP/kW27NmRLVs2cWl8fLzFEDekRQljhVxjx5CKoeJ+adK4MWjWMrVmIfkGBGRD1J8sFmMRYDfO0LWYJuHq6ystGsxNWzk3S+YsJsKawcWKYexHw1G/4avicAI1dujAn0IFt4JE3Lz58qNAwUBEHztq9lLSDzxz+pRhpdCc08j/TMAr0vI7aReyeRYCuhXTtKcb+r89CAvmfYNJY0dj1bqfrIYiObNJ40aLaVeL1s9WGjtLardffj5NWnI/ITTajW3Z4vm4GX8DXaSTSCxZseIl0OONvpgycRyCgouBiM/mGQg4faFChs1eMU174KfD3YZ9OAr0IJa02I21A0kM8+D+P0R40vAj0ixeMA9XLl/CgqWrDPczQ6XraSWQJKfp/owOjaND59b+sBKjPxyK19q0t3i/JNedNOBXrVgiTn8Mbxhh0iRLopxFgoqi8MtF7Gk+X5vOCLiMVHK7HK2vrhavjl17YLr0RsbUSROw8seNhsuISE0b1Bb3aHRPFBQUjEYRTfF/AwaiWImSBj/K27QtCiOHDUbPTu0M515R+oCB72HEGOunqdAUsn/ku+KNDaXJopzK9I+kaePQEaOVyfzdjRBgMU0HdAa9eXHp0gXQA1siHq0UsnkfArKYpstHKmPo9SqmSaMTreixMQKEgMveqGD4GQFPRYBJ5ak9y+1yGQJMKpdBzwV7KgJMKk/tWW6XyxBgUrkMei7YUxFgUnlqz3K7XIYAk8pl0HPBnooAk8pTe5bb5TIEmFQug54L9lQEmFSe2rPcLpchwKRyGfRcsKciwKRyw55lYU437BQNVXIrUrmTmKYlEUtbxTlJcDMtIU9bhDllEdG04mr4LbCrgxBwi7fUbVVYUopfOkpMMy0RS2WZWsQ5LfnaIsxpLCJqKa6DfiMcRiMCLieVO4ppWhOxVApuahHnNOdrizCnljpo/E2wu50IuGz6pycxTWsYaxHnNOdrqzCncb3MxbVWb85PHwScPlLZOtVT23x7xTS1ilhqEec053vnzm2bhTllTMzFVYsX+zkeARbTVGCqRsRSizinNV9bhTmtxXX8T4UjqkWAxTQVSKkRsdQizmnN11ZhTmtx1f4A2M/xCLCYpkoxTWPotYhzWvO1VZjTWlzH/1Q4oloEWExThZimNTC1iHOa87VXmJPqZy6utXpzfvog4LLVP1k5aURkI9DfzjRZTHPbls1CTNPYZBFLOnvK+EOCl5YsrXjKa8z5kjBniVKlhTAn1YkUcemtikXzv1UtzGkurrJs/u4cBFxGKrl5JKY5c3QbdGoRisyZMzmn1VIpJKZJGn0kpmlssohly4j6MP6sWpb6BA7j6yzFM9cgpa8szFm95itCmLNQLl9x3CnpvZMw53dLVpoLkypNGTeVAyc4BQEW03QKzOoLYWFO9Vi5myeLabpbjzyvDwtzumnHaKiWy6d/GurKroyALhBgUumim7iSekKASaWn3uK66gIBJpUuuokrqScEfHL7ZtBTfbmujIDbI8Ajldt3EVdQbwgwqfTWY1xft0eASeX2XcQV1BsCTCq99RjX1+0RYFK5fRdxBfWGAJNKbz3G9XV7BJxGquSkJCQk3AXpKbAxAp6MQLqSivTsPp86GdUqlEThPP4oHpgbJQvnRWTfXjgfe9aAKwlU1ggtaxFnc/lPnz7F8MHvILRMMPZE7bR4LWcwAs5GIN1I9fjxY3Ru1xKfT5+Cnr37IurPIzgYHYs5C5bgXkICZkz7xNBWEqiMj4uz2HZlPsUmYi5fuhCfz/4WdcMbWryWMxgBZyOQbhJls2d9JkaQDVt24pU69QztKla8BJo0a4lzZ8/Y1FbaFftmj87Yu/s3rNnwi0lsmwLyRYyAgxFIN1ItWTAPrzZuZvFHX7J0Gc1NoV253Tu1xakTx7Hhlx2oVLmq5hh8ASOQ3giky/Tv9u1buHTxAmrVruOw+qc8TkH715qIEe6nbVFMKIchy4EcjUDGDBkyQO1HbeEJd+8K15y5c6u9xKrfI2nad/TwQdSoVRu2jHJWC2AHRsBBCKTLSBUQECCqR4pAjjJ//wDMXbQcmzasw7sD+oJW/9gYAXdEIF3uqfLlL4ACBQNx+KCp/Je9ALRp31GE6N+7uxhd6cibjBnT5f8Fe6vK13sxAhnpYazajxacuvZ4A79s2oAzp0+Zvexm/A2z6dYSiVjfLlyG1SuWYlBkPx6xrAHG+U5HIF1GKmrFkOEfgU7gaNeyMcZPnoqIps3h5+eP2LMxWDJ/HpIfJouRRjZZxFKJQPmQisoktH29k/iP4K0+PcSINevreTxipUKJE1yFQLqRyl+6r/ppexTGjhyOwQP7g15TIiMS1K4XjnETp5i0WRaxVAJBS+fmrF2HziKZiEXGxDKHEqe5AoEM0v/4ql/Ga/TmIqyZ/YbmetID24sXzoFeWwoqGoycOXNpjsEXMALujoBTxTSzZs2KsuUquDsmXD9GwCEI8NKZQ2DkIIzACwSYVPxrYAQcjACTysGAcjhGgEnFvwFGwMEIMKkcDCiHYwSYVPwbYAQcjACTysGAcjhGgEnFvwFGwMEIMKkcDCiHYwSYVPwbYAQcjACTysGAcjhGgEnFvwFGwMEIMKkcDCiHYwSYVPwbYAQcjACTysGAcjhGgEnFvwFGwMEIMKkcDCiHYwSYVPwbYAQcjACTysGAcjhGQBOpsmTOhKSkFEaNEWAEFAg8epgC4geZJlJVKV8I+09cYUAZAUZAgcCh6KsIq1BIO6kaVA/G74cvM6CMACOgQGDf4UsIl/hBpmmkqlclCDEX4nD33jNhTEaWEWAEgMTEJETHxqFO5SDtpPLzzYwmtUvhv9tOMpaMACPwHIEN20+iaZ1SIH6QaRqp6IJuLUKwa/95nIy9zqAyAl6PwLmLcfj19/Po0jzEgIVmUuXO4YvxAxtgxoIoJpbX/6S8GwAi1JS5v2GcxAfihWyatNSNITx25jrGzt6JBjVLok3jCsiR7UVQ74aaW+/pCPz7bxLWS7dA238/Jw0wDRFapqBJk20mFUW5Iy1YrNwcjV/2xKJCqQKoVbkowioFwfelZ3NLTweX2+c9CNBzqEMnrmLfkUs4cTYOzeqWQlfpVihX9tSDiV2kkiF9kJyCvYevIOrgJRw8eQ2PUp54D9rcUq9AgB7s0nOo8LBg1KkaBL80Bg6HkMorUOVGMgIqEdC8UKEyLrsxAl6LwP8DruCsZDQhndwAAAAASUVORK5CYII=;" parent="1" vertex="1">
          <mxGeometry x="990" y="3110" width="213" height="273" as="geometry" />
        </mxCell>
        <mxCell id="acSpzJ2jcXkzIEG-W9K2-14" value="" style="rounded=1;whiteSpace=wrap;html=1;fillColor=#f5f5f5;strokeColor=#666666;fontColor=#333333;" parent="1" vertex="1">
          <mxGeometry x="280" y="2616" width="610" height="280" as="geometry" />
        </mxCell>
        <mxCell id="acSpzJ2jcXkzIEG-W9K2-15" style="edgeStyle=orthogonalEdgeStyle;rounded=0;orthogonalLoop=1;jettySize=auto;html=1;entryX=0;entryY=0.5;entryDx=0;entryDy=0;" parent="1" source="acSpzJ2jcXkzIEG-W9K2-16" target="acSpzJ2jcXkzIEG-W9K2-23" edge="1">
          <mxGeometry relative="1" as="geometry" />
        </mxCell>
        <mxCell id="acSpzJ2jcXkzIEG-W9K2-16" value="Key" style="rounded=0;whiteSpace=wrap;html=1;fontSize=15;fillColor=#f8cecc;strokeColor=#b85450;" parent="1" vertex="1">
          <mxGeometry x="358" y="2836" width="70" height="20" as="geometry" />
        </mxCell>
        <mxCell id="acSpzJ2jcXkzIEG-W9K2-37" style="edgeStyle=orthogonalEdgeStyle;rounded=0;orthogonalLoop=1;jettySize=auto;html=1;entryX=0;entryY=0.5;entryDx=0;entryDy=0;" parent="1" source="acSpzJ2jcXkzIEG-W9K2-17" target="acSpzJ2jcXkzIEG-W9K2-24" edge="1">
          <mxGeometry relative="1" as="geometry" />
        </mxCell>
        <mxCell id="acSpzJ2jcXkzIEG-W9K2-38" value="&lt;font style=&quot;font-size: 14px;&quot;&gt;ICAP_i [31:0]&lt;/font&gt;" style="edgeLabel;html=1;align=center;verticalAlign=middle;resizable=0;points=[];labelBackgroundColor=none;" parent="acSpzJ2jcXkzIEG-W9K2-37" vertex="1" connectable="0">
          <mxGeometry x="-0.2353" y="-1" relative="1" as="geometry">
            <mxPoint x="10" y="-11" as="offset" />
          </mxGeometry>
        </mxCell>
        <mxCell id="acSpzJ2jcXkzIEG-W9K2-17" value="ICAP" style="text;html=1;strokeColor=#6c8ebf;fillColor=#dae8fc;align=center;verticalAlign=middle;whiteSpace=wrap;rounded=0;" parent="1" vertex="1">
          <mxGeometry x="280" y="2678.5" width="65" height="20" as="geometry" />
        </mxCell>
        <mxCell id="acSpzJ2jcXkzIEG-W9K2-19" value="" style="group" parent="1" vertex="1" connectable="0">
          <mxGeometry x="650" y="2668.87" width="207.12" height="80" as="geometry" />
        </mxCell>
        <mxCell id="acSpzJ2jcXkzIEG-W9K2-20" value="&lt;font style=&quot;font-size: 15px;&quot;&gt;Decrypt&lt;/font&gt;" style="rounded=1;whiteSpace=wrap;html=1;fontSize=15;fillColor=#dae8fc;strokeColor=#6c8ebf;" parent="acSpzJ2jcXkzIEG-W9K2-19" vertex="1">
          <mxGeometry width="207.12" height="80" as="geometry" />
        </mxCell>
        <mxCell id="acSpzJ2jcXkzIEG-W9K2-21" value="data_in" style="text;html=1;strokeColor=default;fillColor=none;align=center;verticalAlign=middle;whiteSpace=wrap;rounded=0;" parent="acSpzJ2jcXkzIEG-W9K2-19" vertex="1">
          <mxGeometry y="17.88000000000011" width="65" height="10" as="geometry" />
        </mxCell>
        <mxCell id="acSpzJ2jcXkzIEG-W9K2-22" value="data_out" style="text;html=1;strokeColor=default;fillColor=none;align=center;verticalAlign=middle;whiteSpace=wrap;rounded=0;" parent="acSpzJ2jcXkzIEG-W9K2-19" vertex="1">
          <mxGeometry x="142.12" y="39.63000000000011" width="65" height="12.5" as="geometry" />
        </mxCell>
        <mxCell id="acSpzJ2jcXkzIEG-W9K2-23" value="key" style="text;html=1;strokeColor=default;fillColor=none;align=center;verticalAlign=middle;whiteSpace=wrap;rounded=0;" parent="acSpzJ2jcXkzIEG-W9K2-19" vertex="1">
          <mxGeometry y="52.13000000000011" width="65" height="10" as="geometry" />
        </mxCell>
        <mxCell id="acSpzJ2jcXkzIEG-W9K2-36" style="edgeStyle=orthogonalEdgeStyle;rounded=0;orthogonalLoop=1;jettySize=auto;html=1;entryX=0;entryY=0.25;entryDx=0;entryDy=0;" parent="1" source="acSpzJ2jcXkzIEG-W9K2-24" target="acSpzJ2jcXkzIEG-W9K2-21" edge="1">
          <mxGeometry relative="1" as="geometry" />
        </mxCell>
        <mxCell id="acSpzJ2jcXkzIEG-W9K2-39" value="&lt;font style=&quot;font-size: 13px;&quot;&gt;[127:0]&lt;/font&gt;" style="edgeLabel;html=1;align=center;verticalAlign=middle;resizable=0;points=[];labelBackgroundColor=none;" parent="acSpzJ2jcXkzIEG-W9K2-36" vertex="1" connectable="0">
          <mxGeometry x="-0.3263" y="1" relative="1" as="geometry">
            <mxPoint x="5" y="-9" as="offset" />
          </mxGeometry>
        </mxCell>
        <mxCell id="acSpzJ2jcXkzIEG-W9K2-24" value="bit sawping" style="rounded=1;whiteSpace=wrap;html=1;fontSize=15;" parent="1" vertex="1">
          <mxGeometry x="445.38" y="2658.5" width="120" height="60" as="geometry" />
        </mxCell>
        <mxCell id="acSpzJ2jcXkzIEG-W9K2-25" value="" style="shape=link;html=1;rounded=0;exitX=1;exitY=0.5;exitDx=0;exitDy=0;entryX=0;entryY=0.5;entryDx=0;entryDy=0;fillColor=#dae8fc;strokeColor=#6c8ebf;strokeWidth=4;" parent="1" source="acSpzJ2jcXkzIEG-W9K2-28" target="acSpzJ2jcXkzIEG-W9K2-17" edge="1">
          <mxGeometry width="100" relative="1" as="geometry">
            <mxPoint x="328" y="2616" as="sourcePoint" />
            <mxPoint x="428" y="2616" as="targetPoint" />
          </mxGeometry>
        </mxCell>
        <mxCell id="acSpzJ2jcXkzIEG-W9K2-35" value="Encrypted Bitstream" style="edgeLabel;html=1;align=center;verticalAlign=middle;resizable=0;points=[];fontSize=13;" parent="acSpzJ2jcXkzIEG-W9K2-25" vertex="1" connectable="0">
          <mxGeometry x="-0.1759" y="4" relative="1" as="geometry">
            <mxPoint x="14" y="22" as="offset" />
          </mxGeometry>
        </mxCell>
        <mxCell id="acSpzJ2jcXkzIEG-W9K2-26" value="" style="group" parent="1" vertex="1" connectable="0">
          <mxGeometry x="10" y="2646" width="140" height="102.86999999999989" as="geometry" />
        </mxCell>
        <mxCell id="acSpzJ2jcXkzIEG-W9K2-27" value="DFX_Controller_IP" style="rounded=1;whiteSpace=wrap;html=1;verticalAlign=bottom;labelPosition=center;verticalLabelPosition=top;align=center;fillColor=#ffe6cc;strokeColor=#d79b00;" parent="acSpzJ2jcXkzIEG-W9K2-26" vertex="1">
          <mxGeometry width="140" height="102.87" as="geometry" />
        </mxCell>
        <mxCell id="acSpzJ2jcXkzIEG-W9K2-28" value="ICAP" style="text;html=1;strokeColor=#6c8ebf;fillColor=#dae8fc;align=center;verticalAlign=middle;whiteSpace=wrap;rounded=0;" parent="acSpzJ2jcXkzIEG-W9K2-26" vertex="1">
          <mxGeometry x="75" y="32.5" width="65" height="19" as="geometry" />
        </mxCell>
        <mxCell id="acSpzJ2jcXkzIEG-W9K2-33" value="" style="group" parent="1" vertex="1" connectable="0">
          <mxGeometry x="176" y="2397" width="140.12" height="80" as="geometry" />
        </mxCell>
        <mxCell id="acSpzJ2jcXkzIEG-W9K2-6" value="Internal Configuration Acess Port (ICAP)" style="rounded=1;whiteSpace=wrap;html=1;fillColor=#e1d5e7;strokeColor=#9673a6;verticalAlign=top;" parent="acSpzJ2jcXkzIEG-W9K2-33" vertex="1">
          <mxGeometry width="140.12" height="80" as="geometry" />
        </mxCell>
        <mxCell id="acSpzJ2jcXkzIEG-W9K2-32" value="ICAP" style="text;html=1;strokeColor=#6c8ebf;fillColor=#dae8fc;align=center;verticalAlign=middle;whiteSpace=wrap;rounded=0;" parent="acSpzJ2jcXkzIEG-W9K2-33" vertex="1">
          <mxGeometry y="41" width="65" height="19" as="geometry" />
        </mxCell>
        <mxCell id="acSpzJ2jcXkzIEG-W9K2-40" value="" style="group" parent="1" vertex="1" connectable="0">
          <mxGeometry x="715.94" y="2786" width="140.12" height="80" as="geometry" />
        </mxCell>
        <mxCell id="acSpzJ2jcXkzIEG-W9K2-41" value="Internal Configuration Acess Port (ICAP)" style="rounded=1;whiteSpace=wrap;html=1;fillColor=#e1d5e7;strokeColor=#9673a6;verticalAlign=top;" parent="acSpzJ2jcXkzIEG-W9K2-40" vertex="1">
          <mxGeometry width="140.12" height="80" as="geometry" />
        </mxCell>
        <mxCell id="acSpzJ2jcXkzIEG-W9K2-42" value="ICAP" style="text;html=1;strokeColor=#6c8ebf;fillColor=#dae8fc;align=center;verticalAlign=middle;whiteSpace=wrap;rounded=0;" parent="acSpzJ2jcXkzIEG-W9K2-40" vertex="1">
          <mxGeometry y="41" width="65" height="19" as="geometry" />
        </mxCell>
        <mxCell id="acSpzJ2jcXkzIEG-W9K2-43" value="" style="rounded=1;whiteSpace=wrap;html=1;fillColor=#f5f5f5;strokeColor=#666666;fontColor=#333333;arcSize=7;" parent="1" vertex="1">
          <mxGeometry x="285.44" y="3040" width="610" height="460" as="geometry" />
        </mxCell>
        <mxCell id="acSpzJ2jcXkzIEG-W9K2-44" style="edgeStyle=orthogonalEdgeStyle;rounded=0;orthogonalLoop=1;jettySize=auto;html=1;entryX=0;entryY=0.5;entryDx=0;entryDy=0;" parent="1" source="acSpzJ2jcXkzIEG-W9K2-45" target="acSpzJ2jcXkzIEG-W9K2-53" edge="1">
          <mxGeometry relative="1" as="geometry" />
        </mxCell>
        <mxCell id="acSpzJ2jcXkzIEG-W9K2-45" value="Key" style="rounded=0;whiteSpace=wrap;html=1;fontSize=15;fillColor=#f8cecc;strokeColor=#b85450;" parent="1" vertex="1">
          <mxGeometry x="484" y="3307.13" width="70" height="20" as="geometry" />
        </mxCell>
        <mxCell id="acSpzJ2jcXkzIEG-W9K2-46" style="edgeStyle=orthogonalEdgeStyle;rounded=0;orthogonalLoop=1;jettySize=auto;html=1;exitX=1;exitY=0.25;exitDx=0;exitDy=0;" parent="1" source="acSpzJ2jcXkzIEG-W9K2-48" edge="1">
          <mxGeometry relative="1" as="geometry">
            <mxPoint x="469" y="3129" as="targetPoint" />
            <Array as="points" />
          </mxGeometry>
        </mxCell>
        <mxCell id="acSpzJ2jcXkzIEG-W9K2-47" value="&lt;font style=&quot;font-size: 14px;&quot;&gt;ICAP_i [31:0]&lt;/font&gt;" style="edgeLabel;html=1;align=center;verticalAlign=middle;resizable=0;points=[];labelBackgroundColor=none;" parent="acSpzJ2jcXkzIEG-W9K2-46" vertex="1" connectable="0">
          <mxGeometry x="-0.2353" y="-1" relative="1" as="geometry">
            <mxPoint x="14" y="-13" as="offset" />
          </mxGeometry>
        </mxCell>
        <mxCell id="acSpzJ2jcXkzIEG-W9K2-48" value="ICAP" style="text;html=1;strokeColor=#6c8ebf;fillColor=#dae8fc;align=center;verticalAlign=middle;whiteSpace=wrap;rounded=0;" parent="1" vertex="1">
          <mxGeometry x="285.44" y="3122.5" width="65" height="27.5" as="geometry" />
        </mxCell>
        <mxCell id="acSpzJ2jcXkzIEG-W9K2-49" value="" style="group" parent="1" vertex="1" connectable="0">
          <mxGeometry x="592.88" y="3260" width="207.12" height="80" as="geometry" />
        </mxCell>
        <mxCell id="acSpzJ2jcXkzIEG-W9K2-50" value="&lt;font style=&quot;font-size: 15px;&quot;&gt;Decrypt&lt;/font&gt;" style="rounded=1;whiteSpace=wrap;html=1;fontSize=15;fillColor=#dae8fc;strokeColor=#6c8ebf;" parent="acSpzJ2jcXkzIEG-W9K2-49" vertex="1">
          <mxGeometry width="207.12" height="80" as="geometry" />
        </mxCell>
        <mxCell id="acSpzJ2jcXkzIEG-W9K2-51" value="data_in" style="text;html=1;strokeColor=default;fillColor=none;align=center;verticalAlign=middle;whiteSpace=wrap;rounded=0;" parent="acSpzJ2jcXkzIEG-W9K2-49" vertex="1">
          <mxGeometry y="17.88000000000011" width="65" height="10" as="geometry" />
        </mxCell>
        <mxCell id="acSpzJ2jcXkzIEG-W9K2-52" value="data_out" style="text;html=1;strokeColor=default;fillColor=none;align=center;verticalAlign=bottom;whiteSpace=wrap;rounded=0;labelPosition=center;verticalLabelPosition=top;" parent="acSpzJ2jcXkzIEG-W9K2-49" vertex="1">
          <mxGeometry x="140" y="27.88" width="67.12" height="12.13" as="geometry" />
        </mxCell>
        <mxCell id="acSpzJ2jcXkzIEG-W9K2-53" value="key" style="text;html=1;strokeColor=default;fillColor=none;align=center;verticalAlign=middle;whiteSpace=wrap;rounded=0;" parent="acSpzJ2jcXkzIEG-W9K2-49" vertex="1">
          <mxGeometry y="52.13000000000011" width="65" height="10" as="geometry" />
        </mxCell>
        <mxCell id="acSpzJ2jcXkzIEG-W9K2-133" value="" style="text;html=1;strokeColor=default;fillColor=none;align=center;verticalAlign=middle;whiteSpace=wrap;rounded=0;container=0;" parent="acSpzJ2jcXkzIEG-W9K2-49" vertex="1">
          <mxGeometry x="140" y="40.01" width="67.12" height="10" as="geometry" />
        </mxCell>
        <mxCell id="acSpzJ2jcXkzIEG-W9K2-134" value="" style="text;html=1;strokeColor=default;fillColor=none;align=center;verticalAlign=middle;whiteSpace=wrap;rounded=0;container=0;" parent="acSpzJ2jcXkzIEG-W9K2-49" vertex="1">
          <mxGeometry x="140" y="50.01000000000022" width="67.12" height="10" as="geometry" />
        </mxCell>
        <mxCell id="acSpzJ2jcXkzIEG-W9K2-135" value="" style="text;html=1;strokeColor=default;fillColor=none;align=center;verticalAlign=middle;whiteSpace=wrap;rounded=0;container=0;" parent="acSpzJ2jcXkzIEG-W9K2-49" vertex="1">
          <mxGeometry x="140" y="60.01000000000022" width="67.12" height="10" as="geometry" />
        </mxCell>
        <mxCell id="acSpzJ2jcXkzIEG-W9K2-54" style="edgeStyle=orthogonalEdgeStyle;rounded=0;orthogonalLoop=1;jettySize=auto;html=1;entryX=0;entryY=0.5;entryDx=0;entryDy=0;exitX=1;exitY=0.5;exitDx=0;exitDy=0;" parent="1" source="acSpzJ2jcXkzIEG-W9K2-56" target="acSpzJ2jcXkzIEG-W9K2-97" edge="1">
          <mxGeometry relative="1" as="geometry">
            <mxPoint x="761.5442424242425" y="3070" as="sourcePoint" />
            <Array as="points">
              <mxPoint x="651" y="3132" />
              <mxPoint x="651" y="3128" />
            </Array>
          </mxGeometry>
        </mxCell>
        <mxCell id="acSpzJ2jcXkzIEG-W9K2-56" value="bit sawping" style="rounded=1;whiteSpace=wrap;html=1;fontSize=15;" parent="1" vertex="1">
          <mxGeometry x="469.38" y="3102.5" width="120" height="60" as="geometry" />
        </mxCell>
        <mxCell id="acSpzJ2jcXkzIEG-W9K2-57" value="" style="shape=link;html=1;rounded=0;exitX=1;exitY=0.5;exitDx=0;exitDy=0;entryX=0;entryY=0.5;entryDx=0;entryDy=0;fillColor=#dae8fc;strokeColor=#6c8ebf;strokeWidth=4;" parent="1" source="acSpzJ2jcXkzIEG-W9K2-61" target="acSpzJ2jcXkzIEG-W9K2-48" edge="1">
          <mxGeometry width="100" relative="1" as="geometry">
            <mxPoint x="352" y="3060" as="sourcePoint" />
            <mxPoint x="452" y="3060" as="targetPoint" />
          </mxGeometry>
        </mxCell>
        <mxCell id="acSpzJ2jcXkzIEG-W9K2-58" value="Encrypted Bitstream" style="edgeLabel;html=1;align=center;verticalAlign=middle;resizable=0;points=[];fontSize=13;" parent="acSpzJ2jcXkzIEG-W9K2-57" vertex="1" connectable="0">
          <mxGeometry x="-0.1759" y="4" relative="1" as="geometry">
            <mxPoint x="14" y="25" as="offset" />
          </mxGeometry>
        </mxCell>
        <mxCell id="acSpzJ2jcXkzIEG-W9K2-59" value="" style="group" parent="1" vertex="1" connectable="0">
          <mxGeometry x="10" y="3094.63" width="140" height="102.86999999999989" as="geometry" />
        </mxCell>
        <mxCell id="acSpzJ2jcXkzIEG-W9K2-60" value="DFX_Controller_IP" style="rounded=1;whiteSpace=wrap;html=1;verticalAlign=bottom;labelPosition=center;verticalLabelPosition=top;align=center;fillColor=#ffe6cc;strokeColor=#d79b00;" parent="acSpzJ2jcXkzIEG-W9K2-59" vertex="1">
          <mxGeometry width="140" height="102.87" as="geometry" />
        </mxCell>
        <mxCell id="acSpzJ2jcXkzIEG-W9K2-61" value="ICAP" style="text;html=1;strokeColor=#6c8ebf;fillColor=#dae8fc;align=center;verticalAlign=middle;whiteSpace=wrap;rounded=0;" parent="acSpzJ2jcXkzIEG-W9K2-59" vertex="1">
          <mxGeometry x="75" y="32.5" width="65" height="19" as="geometry" />
        </mxCell>
        <mxCell id="acSpzJ2jcXkzIEG-W9K2-62" value="" style="group;strokeWidth=1;" parent="1" vertex="1" connectable="0">
          <mxGeometry x="403.94" y="3190" width="140.12" height="92.5" as="geometry" />
        </mxCell>
        <mxCell id="acSpzJ2jcXkzIEG-W9K2-63" value="Internal Configuration Acess Port (ICAP)" style="rounded=1;whiteSpace=wrap;html=1;fillColor=#e1d5e7;strokeColor=#9673a6;verticalAlign=top;strokeWidth=3;gradientColor=#CCCCCC;" parent="acSpzJ2jcXkzIEG-W9K2-62" vertex="1">
          <mxGeometry width="140.12" height="92.5" as="geometry" />
        </mxCell>
        <mxCell id="acSpzJ2jcXkzIEG-W9K2-64" value="ICAP" style="text;html=1;strokeColor=#6c8ebf;fillColor=#dae8fc;align=center;verticalAlign=middle;whiteSpace=wrap;rounded=0;strokeWidth=1;" parent="acSpzJ2jcXkzIEG-W9K2-62" vertex="1">
          <mxGeometry y="40" width="65" height="29.38" as="geometry" />
        </mxCell>
        <mxCell id="acSpzJ2jcXkzIEG-W9K2-118" value="clk" style="text;html=1;strokeColor=default;fillColor=none;align=center;verticalAlign=middle;whiteSpace=wrap;rounded=0;container=0;" parent="acSpzJ2jcXkzIEG-W9K2-62" vertex="1">
          <mxGeometry y="69.38000000000011" width="50" height="10" as="geometry" />
        </mxCell>
        <mxCell id="acSpzJ2jcXkzIEG-W9K2-119" value="" style="triangle;whiteSpace=wrap;html=1;container=0;" parent="acSpzJ2jcXkzIEG-W9K2-62" vertex="1">
          <mxGeometry y="69.38000000000011" width="10" height="10" as="geometry" />
        </mxCell>
        <mxCell id="acSpzJ2jcXkzIEG-W9K2-95" value="" style="group" parent="1" vertex="1" connectable="0">
          <mxGeometry x="285.44" y="3162.5" width="50" height="10" as="geometry" />
        </mxCell>
        <mxCell id="acSpzJ2jcXkzIEG-W9K2-91" value="clk" style="text;html=1;strokeColor=default;fillColor=none;align=center;verticalAlign=middle;whiteSpace=wrap;rounded=0;container=0;" parent="acSpzJ2jcXkzIEG-W9K2-95" vertex="1">
          <mxGeometry width="50" height="10" as="geometry" />
        </mxCell>
        <mxCell id="acSpzJ2jcXkzIEG-W9K2-94" value="" style="triangle;whiteSpace=wrap;html=1;container=0;" parent="acSpzJ2jcXkzIEG-W9K2-95" vertex="1">
          <mxGeometry width="10" height="10" as="geometry" />
        </mxCell>
        <mxCell id="acSpzJ2jcXkzIEG-W9K2-97" value="" style="rounded=0;whiteSpace=wrap;html=1;" parent="1" vertex="1">
          <mxGeometry x="712.12" y="3117.5" width="55.88" height="20" as="geometry" />
        </mxCell>
        <mxCell id="acSpzJ2jcXkzIEG-W9K2-98" value="" style="rounded=0;whiteSpace=wrap;html=1;" parent="1" vertex="1">
          <mxGeometry x="712.12" y="3137.5" width="55.88" height="20" as="geometry" />
        </mxCell>
        <mxCell id="acSpzJ2jcXkzIEG-W9K2-99" value="" style="rounded=0;whiteSpace=wrap;html=1;" parent="1" vertex="1">
          <mxGeometry x="712.12" y="3157.5" width="55.88" height="20" as="geometry" />
        </mxCell>
        <mxCell id="acSpzJ2jcXkzIEG-W9K2-100" value="" style="rounded=0;whiteSpace=wrap;html=1;" parent="1" vertex="1">
          <mxGeometry x="712.12" y="3177.5" width="55.88" height="20" as="geometry" />
        </mxCell>
        <mxCell id="acSpzJ2jcXkzIEG-W9K2-101" value="" style="endArrow=classic;html=1;rounded=0;entryX=0;entryY=0.5;entryDx=0;entryDy=0;" parent="1" target="acSpzJ2jcXkzIEG-W9K2-98" edge="1">
          <mxGeometry width="50" height="50" relative="1" as="geometry">
            <mxPoint x="682.12" y="3127.5" as="sourcePoint" />
            <mxPoint x="802.12" y="3097.5" as="targetPoint" />
            <Array as="points">
              <mxPoint x="682.12" y="3147.5" />
            </Array>
          </mxGeometry>
        </mxCell>
        <mxCell id="acSpzJ2jcXkzIEG-W9K2-102" value="" style="endArrow=classic;html=1;rounded=0;entryX=0;entryY=0.5;entryDx=0;entryDy=0;" parent="1" edge="1">
          <mxGeometry width="50" height="50" relative="1" as="geometry">
            <mxPoint x="682.12" y="3147.5" as="sourcePoint" />
            <mxPoint x="712.12" y="3167.5" as="targetPoint" />
            <Array as="points">
              <mxPoint x="682.12" y="3167.5" />
            </Array>
          </mxGeometry>
        </mxCell>
        <mxCell id="acSpzJ2jcXkzIEG-W9K2-104" value="" style="endArrow=classic;html=1;rounded=0;entryX=0;entryY=0.5;entryDx=0;entryDy=0;" parent="1" edge="1">
          <mxGeometry width="50" height="50" relative="1" as="geometry">
            <mxPoint x="682.12" y="3167.5" as="sourcePoint" />
            <mxPoint x="712.12" y="3187.5" as="targetPoint" />
            <Array as="points">
              <mxPoint x="682.12" y="3187.5" />
            </Array>
          </mxGeometry>
        </mxCell>
        <mxCell id="acSpzJ2jcXkzIEG-W9K2-106" style="edgeStyle=orthogonalEdgeStyle;rounded=0;orthogonalLoop=1;jettySize=auto;html=1;entryX=0;entryY=0.5;entryDx=0;entryDy=0;exitX=0.1;exitY=0.5;exitDx=0;exitDy=0;exitPerimeter=0;" parent="1" source="acSpzJ2jcXkzIEG-W9K2-105" target="acSpzJ2jcXkzIEG-W9K2-51" edge="1">
          <mxGeometry relative="1" as="geometry">
            <Array as="points">
              <mxPoint x="790" y="3158" />
              <mxPoint x="790" y="3210" />
              <mxPoint x="560" y="3210" />
              <mxPoint x="560" y="3283" />
            </Array>
          </mxGeometry>
        </mxCell>
        <mxCell id="acSpzJ2jcXkzIEG-W9K2-105" value="" style="shape=curlyBracket;whiteSpace=wrap;html=1;rounded=1;flipH=1;labelPosition=right;verticalLabelPosition=middle;align=left;verticalAlign=middle;" parent="1" vertex="1">
          <mxGeometry x="768" y="3117.5" width="20" height="80" as="geometry" />
        </mxCell>
        <mxCell id="acSpzJ2jcXkzIEG-W9K2-109" value="&lt;font style=&quot;font-size: 13px;&quot;&gt;[127:0]&lt;/font&gt;" style="edgeLabel;html=1;align=center;verticalAlign=middle;resizable=0;points=[];labelBackgroundColor=none;" parent="1" vertex="1" connectable="0">
          <mxGeometry x="810.0000558431806" y="3147.499419467611" as="geometry" />
        </mxCell>
        <mxCell id="acSpzJ2jcXkzIEG-W9K2-110" value="" style="shape=link;html=1;rounded=0;exitX=1;exitY=0.75;exitDx=0;exitDy=0;fillColor=#dae8fc;strokeColor=#6c8ebf;strokeWidth=4;entryX=0;entryY=0.25;entryDx=0;entryDy=0;" parent="1" source="acSpzJ2jcXkzIEG-W9K2-48" target="acSpzJ2jcXkzIEG-W9K2-64" edge="1">
          <mxGeometry width="100" relative="1" as="geometry">
            <mxPoint x="221.44" y="3260" as="sourcePoint" />
            <mxPoint x="400" y="3240" as="targetPoint" />
            <Array as="points">
              <mxPoint x="370" y="3143" />
              <mxPoint x="370" y="3237" />
            </Array>
          </mxGeometry>
        </mxCell>
        <mxCell id="acSpzJ2jcXkzIEG-W9K2-113" value="Only &quot;i&quot; port is necessary in this case, as is the line where the bitstreams goes" style="text;html=1;strokeColor=none;fillColor=none;align=center;verticalAlign=middle;whiteSpace=wrap;rounded=0;strokeWidth=2;fontSize=14;" parent="1" vertex="1">
          <mxGeometry x="304.96999999999997" y="3050" width="247.56" height="30" as="geometry" />
        </mxCell>
        <mxCell id="acSpzJ2jcXkzIEG-W9K2-120" value="&lt;font style=&quot;font-size: 14px;&quot;&gt;(ICAP_i [0:31])&lt;/font&gt;" style="edgeLabel;html=1;align=center;verticalAlign=middle;resizable=0;points=[];labelBackgroundColor=none;" parent="1" vertex="1" connectable="0">
          <mxGeometry x="636.4433632554934" y="3117.4963156287504" as="geometry" />
        </mxCell>
        <mxCell id="acSpzJ2jcXkzIEG-W9K2-144" style="edgeStyle=orthogonalEdgeStyle;rounded=0;orthogonalLoop=1;jettySize=auto;html=1;entryX=1;entryY=0.5;entryDx=0;entryDy=0;" parent="1" source="acSpzJ2jcXkzIEG-W9K2-136" target="acSpzJ2jcXkzIEG-W9K2-143" edge="1">
          <mxGeometry relative="1" as="geometry">
            <Array as="points">
              <mxPoint x="840" y="3310" />
              <mxPoint x="840" y="3400" />
            </Array>
          </mxGeometry>
        </mxCell>
        <mxCell id="acSpzJ2jcXkzIEG-W9K2-136" value="" style="shape=curlyBracket;whiteSpace=wrap;html=1;rounded=1;flipH=1;labelPosition=right;verticalLabelPosition=middle;align=left;verticalAlign=middle;" parent="1" vertex="1">
          <mxGeometry x="800" y="3290" width="20" height="40" as="geometry" />
        </mxCell>
        <mxCell id="acSpzJ2jcXkzIEG-W9K2-138" value="[31:0]" style="text;html=1;strokeColor=none;fillColor=none;align=center;verticalAlign=middle;whiteSpace=wrap;rounded=0;" parent="1" vertex="1">
          <mxGeometry x="337.5" y="3282.5" width="60" height="30" as="geometry" />
        </mxCell>
        <mxCell id="acSpzJ2jcXkzIEG-W9K2-141" value="It is necessary to sawp the bit order because of the DFX_Controller_IP" style="text;html=1;strokeColor=none;fillColor=none;align=center;verticalAlign=middle;whiteSpace=wrap;rounded=0;strokeWidth=2;fontSize=14;" parent="1" vertex="1">
          <mxGeometry x="596.19" y="3050" width="227.62" height="30" as="geometry" />
        </mxCell>
        <mxCell id="acSpzJ2jcXkzIEG-W9K2-142" value="AES Decrypt only works with 128 bit chunks and ICAP with 32 bits" style="text;html=1;strokeColor=none;fillColor=none;align=center;verticalAlign=middle;whiteSpace=wrap;rounded=0;strokeWidth=2;fontSize=14;" parent="1" vertex="1">
          <mxGeometry x="471.19000000000005" y="3451" width="227.62" height="30" as="geometry" />
        </mxCell>
        <mxCell id="acSpzJ2jcXkzIEG-W9K2-145" style="edgeStyle=orthogonalEdgeStyle;rounded=0;orthogonalLoop=1;jettySize=auto;html=1;entryX=-0.007;entryY=0.649;entryDx=0;entryDy=0;entryPerimeter=0;" parent="1" source="acSpzJ2jcXkzIEG-W9K2-143" target="acSpzJ2jcXkzIEG-W9K2-63" edge="1">
          <mxGeometry relative="1" as="geometry">
            <Array as="points">
              <mxPoint x="384" y="3400" />
              <mxPoint x="384" y="3250" />
            </Array>
          </mxGeometry>
        </mxCell>
        <mxCell id="acSpzJ2jcXkzIEG-W9K2-143" value="bit sawping" style="rounded=1;whiteSpace=wrap;html=1;fontSize=15;" parent="1" vertex="1">
          <mxGeometry x="525" y="3370" width="120" height="60" as="geometry" />
        </mxCell>
        <mxCell id="acSpzJ2jcXkzIEG-W9K2-146" value="ICAP ports Representation" style="text;html=1;strokeColor=none;fillColor=none;align=center;verticalAlign=middle;whiteSpace=wrap;rounded=0;strokeWidth=2;fontSize=14;" parent="1" vertex="1">
          <mxGeometry x="982.69" y="3080" width="227.62" height="30" as="geometry" />
        </mxCell>
        <mxCell id="8r8xtqVQbLohuy-IvTBO-1" value="" style="shape=flexArrow;endArrow=classic;html=1;rounded=0;fillColor=#FF3333;strokeColor=#d6b656;gradientColor=#18FF08;gradientDirection=radial;" parent="1" edge="1">
          <mxGeometry width="50" height="50" relative="1" as="geometry">
            <mxPoint x="170" y="-520" as="sourcePoint" />
            <mxPoint x="1320" y="-520" as="targetPoint" />
          </mxGeometry>
        </mxCell>
        <mxCell id="8r8xtqVQbLohuy-IvTBO-2" value="" style="endArrow=none;dashed=1;html=1;strokeWidth=3;rounded=0;" parent="1" edge="1">
          <mxGeometry width="50" height="50" relative="1" as="geometry">
            <mxPoint x="303.97" y="-494" as="sourcePoint" />
            <mxPoint x="303.97" y="-574" as="targetPoint" />
          </mxGeometry>
        </mxCell>
        <mxCell id="8r8xtqVQbLohuy-IvTBO-3" value="" style="endArrow=none;dashed=1;html=1;strokeWidth=3;rounded=0;" parent="1" edge="1">
          <mxGeometry width="50" height="50" relative="1" as="geometry">
            <mxPoint x="895.44" y="-494" as="sourcePoint" />
            <mxPoint x="895.44" y="-574" as="targetPoint" />
          </mxGeometry>
        </mxCell>
        <mxCell id="8r8xtqVQbLohuy-IvTBO-4" value="Bitstream gereration" style="text;html=1;strokeColor=none;fillColor=none;align=center;verticalAlign=middle;whiteSpace=wrap;rounded=0;fontSize=14;" parent="1" vertex="1">
          <mxGeometry x="198.47" y="-574" width="60" height="30" as="geometry" />
        </mxCell>
        <mxCell id="8r8xtqVQbLohuy-IvTBO-5" value="Bitstream at rest" style="text;html=1;strokeColor=none;fillColor=none;align=center;verticalAlign=middle;whiteSpace=wrap;rounded=0;fontSize=14;" parent="1" vertex="1">
          <mxGeometry x="536.19" y="-574" width="60" height="30" as="geometry" />
        </mxCell>
        <mxCell id="8r8xtqVQbLohuy-IvTBO-6" value="Bitstream at loading" style="text;html=1;strokeColor=none;fillColor=none;align=center;verticalAlign=middle;whiteSpace=wrap;rounded=0;fontSize=14;" parent="1" vertex="1">
          <mxGeometry x="930" y="-574" width="60" height="30" as="geometry" />
        </mxCell>
        <mxCell id="8r8xtqVQbLohuy-IvTBO-7" value="&lt;h1 style=&quot;font-size: 18px;&quot;&gt;&lt;font style=&quot;font-size: 18px;&quot;&gt;Bitstream stages&lt;/font&gt;&lt;/h1&gt;&lt;p style=&quot;font-size: 15px;&quot;&gt;&lt;font style=&quot;font-size: 15px;&quot;&gt;Bitstream goes thourh various stages. Some of these stages require different forms of security because they also have different vulnerabilities.&lt;/font&gt;&lt;/p&gt;&lt;p style=&quot;font-size: 15px;&quot;&gt;&lt;font style=&quot;font-size: 15px;&quot;&gt;For isntante, a bitstream at rest is more likely to be attacked because is where it will be most of the time and most likly to be attacked.&lt;/font&gt;&lt;/p&gt;&lt;p style=&quot;font-size: 15px;&quot;&gt;Using a single key for all bitstream when loading to the board may not be a bad solution, but keeping that encypted bitstraeam unchecked while stoed on board may not be very wise because it is where it&#39;s most vulnerable. It may be a good ideia to aply another encryption layer to it with a unique key, that way it would be way more dificult to an adversary to find to pirate that bitstream by discovering the key&amp;nbsp;&lt;/p&gt;" style="text;html=1;strokeColor=none;fillColor=none;spacing=5;spacingTop=-20;whiteSpace=wrap;overflow=hidden;rounded=0;" parent="1" vertex="1">
          <mxGeometry x="150" y="-910" width="839.5" height="280" as="geometry" />
        </mxCell>
        <mxCell id="8r8xtqVQbLohuy-IvTBO-9" value="" style="endArrow=none;dashed=1;html=1;strokeWidth=3;rounded=0;" parent="1" edge="1">
          <mxGeometry width="50" height="50" relative="1" as="geometry">
            <mxPoint x="1036.5" y="-494" as="sourcePoint" />
            <mxPoint x="1036.5" y="-574" as="targetPoint" />
          </mxGeometry>
        </mxCell>
        <mxCell id="8r8xtqVQbLohuy-IvTBO-10" value="Bitstream at use" style="text;html=1;strokeColor=none;fillColor=none;align=center;verticalAlign=middle;whiteSpace=wrap;rounded=0;fontSize=14;" parent="1" vertex="1">
          <mxGeometry x="1100" y="-574" width="60" height="30" as="geometry" />
        </mxCell>
        <mxCell id="8r8xtqVQbLohuy-IvTBO-11" value="Bitstream End Of Life" style="text;html=1;strokeColor=none;fillColor=none;align=center;verticalAlign=middle;whiteSpace=wrap;rounded=0;fontSize=14;" parent="1" vertex="1">
          <mxGeometry x="1230" y="-574" width="70" height="30" as="geometry" />
        </mxCell>
        <mxCell id="8r8xtqVQbLohuy-IvTBO-12" value="" style="endArrow=none;dashed=1;html=1;strokeWidth=3;rounded=0;" parent="1" edge="1">
          <mxGeometry width="50" height="50" relative="1" as="geometry">
            <mxPoint x="1210.31" y="-494" as="sourcePoint" />
            <mxPoint x="1210.31" y="-574" as="targetPoint" />
          </mxGeometry>
        </mxCell>
        <mxCell id="8r8xtqVQbLohuy-IvTBO-13" value="" style="shape=link;html=1;rounded=0;exitX=1;exitY=0.5;exitDx=0;exitDy=0;entryX=0;entryY=0.5;entryDx=0;entryDy=0;fillColor=#dae8fc;strokeColor=#6c8ebf;strokeWidth=4;" parent="1" source="8r8xtqVQbLohuy-IvTBO-17" target="8r8xtqVQbLohuy-IvTBO-20" edge="1">
          <mxGeometry width="100" relative="1" as="geometry">
            <mxPoint x="320" y="2049" as="sourcePoint" />
            <mxPoint x="272" y="2121.4999999999995" as="targetPoint" />
          </mxGeometry>
        </mxCell>
        <mxCell id="8r8xtqVQbLohuy-IvTBO-14" value="Decrypted Bitstream" style="edgeLabel;html=1;align=center;verticalAlign=middle;resizable=0;points=[];" parent="8r8xtqVQbLohuy-IvTBO-13" vertex="1" connectable="0">
          <mxGeometry x="-0.4256" y="-5" relative="1" as="geometry">
            <mxPoint x="19" y="13" as="offset" />
          </mxGeometry>
        </mxCell>
        <mxCell id="8r8xtqVQbLohuy-IvTBO-15" value="" style="group" parent="1" vertex="1" connectable="0">
          <mxGeometry x="20" y="2079" width="140" height="102.86999999999989" as="geometry" />
        </mxCell>
        <mxCell id="8r8xtqVQbLohuy-IvTBO-16" value="DFX_Controller_IP" style="rounded=1;whiteSpace=wrap;html=1;verticalAlign=bottom;labelPosition=center;verticalLabelPosition=top;align=center;fillColor=#ffe6cc;strokeColor=#d79b00;" parent="8r8xtqVQbLohuy-IvTBO-15" vertex="1">
          <mxGeometry width="140" height="102.87" as="geometry" />
        </mxCell>
        <mxCell id="8r8xtqVQbLohuy-IvTBO-17" value="ICAP" style="text;html=1;strokeColor=#6c8ebf;fillColor=#dae8fc;align=center;verticalAlign=middle;whiteSpace=wrap;rounded=0;" parent="8r8xtqVQbLohuy-IvTBO-15" vertex="1">
          <mxGeometry x="75" y="32.5" width="65" height="19" as="geometry" />
        </mxCell>
        <mxCell id="8r8xtqVQbLohuy-IvTBO-18" value="" style="group" parent="1" vertex="1" connectable="0">
          <mxGeometry x="306" y="2070" width="140.12" height="80" as="geometry" />
        </mxCell>
        <mxCell id="8r8xtqVQbLohuy-IvTBO-19" value="Internal Configuration Acess Port (ICAP)" style="rounded=1;whiteSpace=wrap;html=1;fillColor=#e1d5e7;strokeColor=#9673a6;verticalAlign=top;" parent="8r8xtqVQbLohuy-IvTBO-18" vertex="1">
          <mxGeometry width="140.12" height="80" as="geometry" />
        </mxCell>
        <mxCell id="8r8xtqVQbLohuy-IvTBO-20" value="ICAP" style="text;html=1;strokeColor=#6c8ebf;fillColor=#dae8fc;align=center;verticalAlign=middle;whiteSpace=wrap;rounded=0;" parent="8r8xtqVQbLohuy-IvTBO-18" vertex="1">
          <mxGeometry y="41" width="65" height="19" as="geometry" />
        </mxCell>
        <mxCell id="8r8xtqVQbLohuy-IvTBO-21" value="Memoria" style="rounded=1;whiteSpace=wrap;html=1;" parent="1" vertex="1">
          <mxGeometry x="-220" y="1880" width="120" height="60" as="geometry" />
        </mxCell>
        <mxCell id="8r8xtqVQbLohuy-IvTBO-22" value="AES_AXI" style="rounded=1;whiteSpace=wrap;html=1;" parent="1" vertex="1">
          <mxGeometry x="-40" y="1970" width="120" height="60" as="geometry" />
        </mxCell>
        <mxCell id="8r8xtqVQbLohuy-IvTBO-24" value="" style="rounded=1;whiteSpace=wrap;html=1;" parent="1" vertex="1">
          <mxGeometry x="20" y="1750" width="120" height="60" as="geometry" />
        </mxCell>
        <mxCell id="mDX5iDFE9dq794IlEfw0-1" value="" style="group" parent="1" vertex="1" connectable="0">
          <mxGeometry x="1659" y="2560" width="140" height="102.86999999999989" as="geometry" />
        </mxCell>
        <mxCell id="mDX5iDFE9dq794IlEfw0-2" value="DFX_Controller_IP" style="rounded=1;whiteSpace=wrap;html=1;verticalAlign=bottom;labelPosition=center;verticalLabelPosition=top;align=center;fillColor=#ffe6cc;strokeColor=#d79b00;" parent="mDX5iDFE9dq794IlEfw0-1" vertex="1">
          <mxGeometry width="140" height="102.87" as="geometry" />
        </mxCell>
        <mxCell id="mDX5iDFE9dq794IlEfw0-3" value="Master" style="text;html=1;strokeColor=#6c8ebf;fillColor=#dae8fc;align=center;verticalAlign=middle;whiteSpace=wrap;rounded=0;" parent="mDX5iDFE9dq794IlEfw0-1" vertex="1">
          <mxGeometry y="32.5" width="65" height="19" as="geometry" />
        </mxCell>
        <mxCell id="mDX5iDFE9dq794IlEfw0-4" value="Memory" style="rounded=1;whiteSpace=wrap;html=1;horizontal=1;verticalAlign=bottom;labelPosition=center;verticalLabelPosition=top;align=center;fillColor=#d5e8d4;strokeColor=#82b366;" parent="1" vertex="1">
          <mxGeometry x="1410" y="2570" width="120" height="60" as="geometry" />
        </mxCell>
        <mxCell id="mDX5iDFE9dq794IlEfw0-5" value="Slave" style="text;html=1;strokeColor=#6c8ebf;fillColor=#dae8fc;align=center;verticalAlign=middle;whiteSpace=wrap;rounded=0;" parent="1" vertex="1">
          <mxGeometry x="1465" y="2590.5" width="65" height="19" as="geometry" />
        </mxCell>
        <mxCell id="mDX5iDFE9dq794IlEfw0-6" value="" style="shape=link;endArrow=classic;html=1;rounded=0;exitX=1;exitY=0.5;exitDx=0;exitDy=0;strokeWidth=2;fillColor=none;strokeColor=#3399FF;" parent="1" source="mDX5iDFE9dq794IlEfw0-5" target="mDX5iDFE9dq794IlEfw0-3" edge="1">
          <mxGeometry width="50" height="50" relative="1" as="geometry">
            <mxPoint x="1705" y="2590" as="sourcePoint" />
            <mxPoint x="1755" y="2540" as="targetPoint" />
          </mxGeometry>
        </mxCell>
        <mxCell id="mDX5iDFE9dq794IlEfw0-7" value="" style="group" parent="1" vertex="1" connectable="0">
          <mxGeometry x="1740" y="2704.57" width="140" height="102.86999999999989" as="geometry" />
        </mxCell>
        <mxCell id="mDX5iDFE9dq794IlEfw0-8" value="DFX_Controller_IP" style="rounded=1;whiteSpace=wrap;html=1;verticalAlign=bottom;labelPosition=center;verticalLabelPosition=top;align=center;fillColor=#ffe6cc;strokeColor=#d79b00;" parent="mDX5iDFE9dq794IlEfw0-7" vertex="1">
          <mxGeometry width="140" height="102.87" as="geometry" />
        </mxCell>
        <mxCell id="mDX5iDFE9dq794IlEfw0-9" value="Master" style="text;html=1;strokeColor=#6c8ebf;fillColor=#dae8fc;align=center;verticalAlign=middle;whiteSpace=wrap;rounded=0;" parent="mDX5iDFE9dq794IlEfw0-7" vertex="1">
          <mxGeometry y="32.5" width="65" height="19" as="geometry" />
        </mxCell>
        <mxCell id="mDX5iDFE9dq794IlEfw0-10" value="Memory" style="rounded=1;whiteSpace=wrap;html=1;horizontal=1;verticalAlign=bottom;labelPosition=center;verticalLabelPosition=top;align=center;fillColor=#d5e8d4;strokeColor=#82b366;" parent="1" vertex="1">
          <mxGeometry x="1330" y="2718.5" width="120" height="60" as="geometry" />
        </mxCell>
        <mxCell id="mDX5iDFE9dq794IlEfw0-11" value="Slave" style="text;html=1;strokeColor=#6c8ebf;fillColor=#dae8fc;align=center;verticalAlign=middle;whiteSpace=wrap;rounded=0;" parent="1" vertex="1">
          <mxGeometry x="1385" y="2739" width="65" height="19" as="geometry" />
        </mxCell>
        <mxCell id="mDX5iDFE9dq794IlEfw0-12" value="" style="shape=link;endArrow=classic;html=1;rounded=0;exitX=1;exitY=0.5;exitDx=0;exitDy=0;strokeWidth=2;fillColor=none;strokeColor=#3399FF;entryX=0;entryY=0.5;entryDx=0;entryDy=0;" parent="1" source="mDX5iDFE9dq794IlEfw0-11" target="mDX5iDFE9dq794IlEfw0-13" edge="1">
          <mxGeometry width="50" height="50" relative="1" as="geometry">
            <mxPoint x="1700" y="2740" as="sourcePoint" />
            <mxPoint x="1540" y="2750" as="targetPoint" />
          </mxGeometry>
        </mxCell>
        <mxCell id="mDX5iDFE9dq794IlEfw0-13" value="AES_Decrypt" style="rounded=1;whiteSpace=wrap;html=1;fillColor=#fff2cc;strokeColor=#d6b656;labelPosition=center;verticalLabelPosition=top;align=center;verticalAlign=bottom;" parent="1" vertex="1">
          <mxGeometry x="1500" y="2718.5" width="180" height="60" as="geometry" />
        </mxCell>
        <mxCell id="mDX5iDFE9dq794IlEfw0-14" value="" style="shape=link;endArrow=classic;html=1;rounded=0;strokeWidth=2;fillColor=none;strokeColor=#3399FF;entryX=0;entryY=0.5;entryDx=0;entryDy=0;exitX=1;exitY=0.5;exitDx=0;exitDy=0;" parent="1" source="mDX5iDFE9dq794IlEfw0-18" edge="1">
          <mxGeometry width="50" height="50" relative="1" as="geometry">
            <mxPoint x="1700" y="2740" as="sourcePoint" />
            <mxPoint x="1740" y="2748.87" as="targetPoint" />
          </mxGeometry>
        </mxCell>
        <mxCell id="mDX5iDFE9dq794IlEfw0-18" value="Slave" style="text;html=1;strokeColor=#6c8ebf;fillColor=#dae8fc;align=center;verticalAlign=middle;whiteSpace=wrap;rounded=0;" parent="1" vertex="1">
          <mxGeometry x="1615" y="2739" width="65" height="19" as="geometry" />
        </mxCell>
        <mxCell id="mDX5iDFE9dq794IlEfw0-19" value="Master" style="text;html=1;strokeColor=#6c8ebf;fillColor=#dae8fc;align=center;verticalAlign=middle;whiteSpace=wrap;rounded=0;" parent="1" vertex="1">
          <mxGeometry x="1500" y="2739" width="65" height="19" as="geometry" />
        </mxCell>
        <mxCell id="-w_h8tINNkThG0UJgWIP-1" value="&lt;h2 style=&quot;box-sizing: border-box; margin-top: 24px; margin-bottom: 16px; font-weight: var(--base-text-weight-semibold, 600); line-height: 1.25; padding-bottom: 0.3em; border-bottom: 1px solid var(--color-border-muted); color: rgb(31, 35, 40); font-family: -apple-system, BlinkMacSystemFont, &amp;quot;Segoe UI&amp;quot;, &amp;quot;Noto Sans&amp;quot;, Helvetica, Arial, sans-serif, &amp;quot;Apple Color Emoji&amp;quot;, &amp;quot;Segoe UI Emoji&amp;quot;; text-align: start; background-color: rgb(255, 255, 255);&quot; dir=&quot;auto&quot; tabindex=&quot;-1&quot;&gt;Core Usage&lt;/h2&gt;&lt;h3 style=&quot;box-sizing: border-box; margin-top: 24px; margin-bottom: 16px; font-size: 1.25em; font-weight: var(--base-text-weight-semibold, 600); line-height: 1.25; color: rgb(31, 35, 40); font-family: -apple-system, BlinkMacSystemFont, &amp;quot;Segoe UI&amp;quot;, &amp;quot;Noto Sans&amp;quot;, Helvetica, Arial, sans-serif, &amp;quot;Apple Color Emoji&amp;quot;, &amp;quot;Segoe UI Emoji&amp;quot;; text-align: start; background-color: rgb(255, 255, 255);&quot; dir=&quot;auto&quot; tabindex=&quot;-1&quot;&gt;&lt;a style=&quot;box-sizing: border-box; background-color: transparent; text-decoration-line: none; float: left; padding-right: 4px; margin-left: -20px; line-height: 1;&quot; href=&quot;https://github.com/secworks/cbc#usage-sequence&quot; aria-hidden=&quot;true&quot; class=&quot;anchor&quot; id=&quot;user-content-usage-sequence&quot;&gt;&lt;svg aria-hidden=&quot;true&quot; height=&quot;16&quot; width=&quot;16&quot; version=&quot;1.1&quot; viewBox=&quot;0 0 16 16&quot; class=&quot;octicon octicon-link&quot;&gt;&lt;path d=&quot;m7.775 3.275 1.25-1.25a3.5 3.5 0 1 1 4.95 4.95l-2.5 2.5a3.5 3.5 0 0 1-4.95 0 .751.751 0 0 1 .018-1.042.751.751 0 0 1 1.042-.018 1.998 1.998 0 0 0 2.83 0l2.5-2.5a2.002 2.002 0 0 0-2.83-2.83l-1.25 1.25a.751.751 0 0 1-1.042-.018.751.751 0 0 1-.018-1.042Zm-4.69 9.64a1.998 1.998 0 0 0 2.83 0l1.25-1.25a.751.751 0 0 1 1.042.018.751.751 0 0 1 .018 1.042l-1.25 1.25a3.5 3.5 0 1 1-4.95-4.95l2.5-2.5a3.5 3.5 0 0 1 4.95 0 .751.751 0 0 1-.018 1.042.751.751 0 0 1-1.042.018 1.998 1.998 0 0 0-2.83 0l-2.5 2.5a1.998 1.998 0 0 0 0 2.83Z&quot;&gt;&lt;/path&gt;&lt;/svg&gt;&lt;/a&gt;Usage sequence:&lt;/h3&gt;&lt;ol style=&quot;box-sizing: border-box; padding-left: 2em; margin-top: 0px; margin-bottom: 16px; font-family: -apple-system, BlinkMacSystemFont, &amp;quot;Segoe UI&amp;quot;, &amp;quot;Noto Sans&amp;quot;, Helvetica, Arial, sans-serif, &amp;quot;Apple Color Emoji&amp;quot;, &amp;quot;Segoe UI Emoji&amp;quot;; font-size: 16px; text-align: start; background-color: rgb(255, 255, 255);&quot; dir=&quot;auto&quot;&gt;&lt;li style=&quot;box-sizing: border-box;&quot;&gt;&lt;font color=&quot;#ff6666&quot;&gt;Load the key to be used by writing the key to the key registers (0x10..0x17).&lt;/font&gt;&lt;/li&gt;&lt;li style=&quot;box-sizing: border-box; margin-top: 0.25em;&quot;&gt;&lt;font color=&quot;#ff6666&quot;&gt;Set the key length by writing to the config register.&lt;/font&gt;&lt;/li&gt;&lt;li style=&quot;box-sizing: border-box; margin-top: 0.25em;&quot;&gt;&lt;font color=&quot;#ff6666&quot;&gt;Set the key length by writing to the KEYLEN bit in the config register.&lt;/font&gt;&lt;/li&gt;&lt;li style=&quot;box-sizing: border-box; margin-top: 0.25em;&quot;&gt;&lt;font color=&quot;#ff6666&quot;&gt;Initialize key expansion by writing a one to the init bit in the control register (0x08).&lt;/font&gt;&lt;/li&gt;&lt;li style=&quot;box-sizing: border-box; margin-top: 0.25em;&quot;&gt;&lt;font color=&quot;#ffb366&quot;&gt;Wait for the ready bit in the status register to be cleared &lt;/font&gt;and&lt;font color=&quot;#994c00&quot;&gt; then to be set again&lt;/font&gt;&lt;font color=&quot;#ffff00&quot;&gt;.&lt;/font&gt;&lt;font color=&quot;#ffb366&quot;&gt; &lt;/font&gt;This means that the key expansion has been completed&lt;font color=&quot;#ffb366&quot;&gt;.&lt;/font&gt;&lt;/li&gt;&lt;li style=&quot;box-sizing: border-box; margin-top: 0.25em;&quot;&gt;&lt;font color=&quot;#80ff00&quot;&gt;Write the IV to the IV registers (0x40..0x43)&lt;/font&gt;&lt;/li&gt;&lt;li style=&quot;box-sizing: border-box; margin-top: 0.25em;&quot;&gt;&lt;font color=&quot;#ff6666&quot;&gt;Select encryption or decryption operation by writing (1 - ENC, or 0 - DEC) to the configuration register (0x0a).&lt;/font&gt;&lt;/li&gt;&lt;li style=&quot;box-sizing: border-box; margin-top: 0.25em;&quot;&gt;&lt;font color=&quot;#007fff&quot;&gt;Write the cleartext (or ciphertext) block to the block registers (0x20..0x23).&lt;/font&gt;&lt;/li&gt;&lt;li style=&quot;box-sizing: border-box; margin-top: 0.25em;&quot;&gt;&lt;font color=&quot;#007fff&quot;&gt;Start block processing by writing a one to the next bit in the control register.&lt;/font&gt;&lt;/li&gt;&lt;li style=&quot;box-sizing: border-box; margin-top: 0.25em;&quot;&gt;&lt;font color=&quot;#009999&quot;&gt;Wait for the ready bit in the status register to be cleared&lt;/font&gt;&lt;span style=&quot;color: rgb(31, 35, 40);&quot;&gt; and &lt;/span&gt;&lt;font color=&quot;#ffcce6&quot;&gt;then to be set again&lt;/font&gt;&lt;span style=&quot;color: rgb(31, 35, 40);&quot;&gt;. This means that the data block has been processed.&lt;/span&gt;&lt;/li&gt;&lt;li style=&quot;box-sizing: border-box; margin-top: 0.25em;&quot;&gt;&lt;font color=&quot;#9933ff&quot;&gt;Read out the ciphertext block from the result registers (0x30..0x33).&lt;/font&gt;&lt;/li&gt;&lt;/ol&gt;" style="text;html=1;strokeColor=none;fillColor=none;align=center;verticalAlign=middle;whiteSpace=wrap;rounded=0;" vertex="1" parent="1">
          <mxGeometry x="-496.53" y="3680" width="1450" height="30" as="geometry" />
        </mxCell>
      </root>
    </mxGraphModel>
  </diagram>
</mxfile>
